<svg width="201" height="200" viewBox="0 0 201 200" fill="none" xmlns="http://www.w3.org/2000/svg">
<g clip-path="url(#clip0_2458_1033)">
<path d="M139.226 147.52C125.554 144.68 106.321 124.647 98.4173 114.996C102.666 111.983 108.11 102.146 98.4313 94.4378C90.6814 88.2686 69.8306 44.6005 55.0421 25.8418C40.0677 28.5382 38.5242 47.2923 40.5605 49.5099C36.395 60.263 40.0538 65.5722 42.4015 66.8832C40.8162 77.9757 46.0091 83.1128 48.8078 84.2937C48.6684 93.071 53.7079 96.5066 56.2416 97.1296C56.2974 101.021 59.375 103.355 61.2346 104.41C51.0672 112.346 51.2765 123.629 52.0203 129.477C47.985 136.228 54.0101 143.606 60.8394 147.078C66.2927 149.863 76.2276 154.763 82.8013 152.857C96.5763 157.534 101.583 165.084 103.35 168.654C122.941 178.106 149.263 175.409 158.427 162.583C163.02 156.153 156.316 151.063 139.231 147.52H139.226Z" fill="#010101"/>
<path d="M142.253 144.926C128.58 142.085 109.347 122.053 101.444 112.402C105.693 109.389 111.137 99.5517 101.458 91.8437C93.7078 85.6791 70.4582 44.6935 55.6604 25.9395C40.6906 28.6405 41.5507 44.6982 43.587 46.9204C39.4308 57.6782 43.0802 62.9827 45.4326 64.2937C43.8473 75.3862 49.0449 80.528 51.8389 81.7042C51.6995 90.4815 56.739 93.9125 59.2727 94.5401C59.3285 98.4313 62.4061 100.765 64.2657 101.82C54.0984 109.756 54.3076 121.039 55.0514 126.888C51.0207 133.634 57.0412 141.016 63.8706 144.489C69.3238 147.269 79.2587 152.174 85.8324 150.268C99.6074 154.945 104.614 162.495 106.381 166.065C125.972 175.516 150.584 174.308 159.742 161.486C164.335 155.056 159.347 148.473 142.267 144.931L142.253 144.926Z" fill="#C62129"/>
<path d="M150.849 143.122C137.176 140.282 117.952 120.254 110.04 110.598C114.294 107.595 119.742 97.7481 110.054 90.0401C102.304 83.8709 70.7835 44.8239 55.9951 26.0605C48.0592 35.9769 50.1513 42.8946 52.1875 45.1168C48.022 55.8699 51.6808 61.1791 54.0332 62.4901C52.4479 73.5826 57.6408 78.7198 60.4395 79.9006C60.3 88.6779 65.3396 92.1136 67.8733 92.7365C67.9291 96.6277 71.6576 99.71 73.5172 100.765C62.1782 107.943 60.8347 121.449 61.5832 127.302C57.5478 134.052 64.8189 138.436 71.6436 141.914C77.1015 144.689 85.7394 145.777 89.3749 145.972C103.145 150.654 110.119 158.952 111.876 162.513C131.472 171.956 148.873 168.841 155.8 165.047C162.727 161.253 167.943 146.665 150.853 143.118L150.849 143.122Z" fill="#EE3446"/>
<path d="M64.6423 102.397C67.6316 99.8729 67.4038 103.657 66.9296 105.982L69.984 103.295L73.1034 100.747L68.8961 96.1769L67.176 93.248C67.6827 99.4545 61.5879 98.427 59.9142 94.2941L59.0681 95.9352L60.9974 99.5707L64.6469 102.397H64.6423Z" fill="#010101"/>
<path d="M155.005 140.183C155.284 139.867 155.023 139.378 154.61 139.439L149.663 140.094C149.538 140.108 149.407 140.071 149.301 139.983L145.586 136.659C145.275 136.375 144.786 136.631 144.842 137.054L145.502 141.996C145.512 142.131 145.474 142.256 145.391 142.358L142.053 146.073C141.778 146.38 142.039 146.873 142.453 146.822L147.394 146.161C147.525 146.138 147.659 146.185 147.757 146.273L151.476 149.602C151.783 149.876 152.271 149.62 152.22 149.206L151.565 144.26C151.541 144.13 151.583 144 151.672 143.907L155 140.187L155.005 140.183Z" fill="#FEE200"/>
<path d="M73.9913 35.3357C73.8286 34.2989 72.4665 34.0153 71.9132 34.9126L68.4823 40.4496C68.301 40.7285 68.0174 40.9238 67.6873 40.9749L61.2484 41.9698C60.2117 42.1325 59.9374 43.4993 60.8254 44.0479L66.367 47.4835C66.6413 47.6602 66.8365 47.9438 66.883 48.2738L67.8779 54.7127C68.0406 55.7494 69.4074 56.0237 69.956 55.1358L73.3963 49.5988C73.5636 49.3199 73.8565 49.1292 74.1773 49.0781L80.6162 48.0832C81.6529 47.9205 81.9365 46.5584 81.0392 46.0051L75.5069 42.5695C75.2233 42.3975 75.0327 42.1046 74.9769 41.7838L73.982 35.345L73.9913 35.3357Z" fill="#FEE200"/>
<path d="M136.265 169.435C139.482 170.002 137.288 171.541 135.326 171.485L135.079 173.963L144.084 171.694L151.123 168.905L152.811 166.543L141.662 168.403L136.265 169.439V169.435Z" fill="#010101"/>
<path d="M54.4424 130.593C55.1583 127.031 60.1049 128.877 59.7562 130.453L61.2718 128.333L61.3555 125.716L60.7464 125.111C60.3606 129.602 55.3304 126.418 55.4512 123.326L54.4749 126.218L54.4377 130.588L54.4424 130.593Z" fill="#010101"/>
<path d="M53.8939 125.483C53.9264 125.07 53.429 124.837 53.1314 125.139L51.3602 126.915C51.2672 127.004 51.137 127.05 51.0068 127.041L48.5057 126.86C48.0919 126.827 47.8548 127.329 48.1477 127.622L49.9376 129.393C50.0259 129.486 50.0724 129.616 50.0631 129.747L49.8771 132.257C49.8492 132.666 50.3467 132.894 50.6396 132.601L52.4108 130.825C52.5131 130.728 52.6386 130.681 52.7688 130.69L55.2653 130.881C55.6884 130.909 55.9162 130.411 55.6233 130.118L53.8381 128.343C53.7451 128.254 53.6986 128.129 53.7126 127.989L53.8939 125.483Z" fill="#FEE200"/>
<path fill-rule="evenodd" clip-rule="evenodd" d="M51.2206 137.041C52.5781 141.178 56.5437 144.893 60.8347 147.078C61.2578 147.296 61.7134 147.524 62.1922 147.766C67.8175 150.588 76.7343 154.614 82.7966 152.861C83.4568 153.08 84.0983 153.317 84.7167 153.549C85.507 153.851 86.2648 154.163 86.9993 154.484C96.7297 158.747 101.03 164.419 102.894 167.789C103.062 168.096 103.21 168.394 103.345 168.659C103.829 168.891 104.308 169.114 104.796 169.328C112.95 172.959 122.136 174.553 130.719 174.261C132.16 174.209 133.578 174.107 134.977 173.954C135.014 173.949 135.042 173.949 135.07 173.94H135.079V173.963L135.233 173.926C135.233 173.926 135.247 173.926 135.256 173.926C135.874 173.851 136.479 173.772 137.083 173.675C137.915 173.554 138.743 173.41 139.547 173.238C139.789 173.191 140.035 173.145 140.272 173.084C140.719 172.987 141.165 172.88 141.611 172.768C141.862 172.708 142.109 172.643 142.355 172.578C142.397 172.564 142.425 172.554 142.462 172.55C143.038 172.387 143.61 172.215 144.177 172.043C144.191 172.043 144.205 172.034 144.219 172.029C146.734 171.225 149.068 170.202 151.169 168.984C151.188 168.975 151.197 168.975 151.216 168.965C151.839 168.593 152.448 168.208 153.029 167.808C153.294 167.631 153.554 167.441 153.805 167.25C154.103 167.022 154.396 166.79 154.679 166.553C154.982 166.306 155.279 166.05 155.567 165.79C155.712 165.674 155.865 165.553 156.009 165.437C156.283 165.214 156.544 164.981 156.799 164.753C157.422 164.191 157.999 163.605 158.543 162.987C158.599 162.922 158.654 162.857 158.71 162.792C159.063 162.373 159.407 161.936 159.728 161.485C159.928 161.206 160.1 160.932 160.263 160.662C161.639 158.454 162.485 155.804 162.304 153.219C162.085 150.132 160.421 147.129 156.502 145.065C156.358 144.986 156.204 144.907 156.046 144.832C156 144.809 155.944 144.781 155.893 144.753C155.279 144.465 154.614 144.196 153.889 143.944H153.884C153.694 143.879 153.494 143.819 153.299 143.754C152.913 143.633 152.513 143.517 152.104 143.414L155 140.183C155.116 140.049 155.14 139.886 155.089 139.732C155.019 139.547 154.838 139.407 154.605 139.44L149.659 140.095C149.533 140.109 149.403 140.072 149.305 139.988H149.301L145.586 136.659C145.275 136.376 144.786 136.632 144.842 137.055L145.4 141.271C145.233 141.197 145.061 141.113 144.889 141.034C144.768 140.978 144.647 140.913 144.531 140.862C143.917 140.56 143.303 140.249 142.685 139.904C142.652 139.891 142.625 139.872 142.592 139.858C142.401 139.756 142.225 139.649 142.039 139.547C141.579 139.282 141.118 139.017 140.653 138.724C140.416 138.584 140.179 138.435 139.937 138.287C139.891 138.254 139.835 138.226 139.789 138.189C137.334 136.646 134.847 134.828 132.392 132.866C124.921 126.901 117.771 119.537 112.88 113.944C112.443 113.456 112.034 112.973 111.63 112.508C111.309 112.122 110.997 111.75 110.695 111.392C110.467 111.123 110.254 110.867 110.04 110.606C110.151 110.527 110.254 110.453 110.365 110.369C110.598 110.188 110.83 109.988 111.067 109.77C114.638 106.446 118.143 98.9654 112.453 92.3406C111.792 91.5642 110.984 90.7971 110.049 90.0486C109.719 89.7929 109.352 89.4675 108.933 89.0956C106.888 87.2267 103.866 83.9956 100.244 79.8998C96.2462 75.3856 91.5135 69.8208 86.5577 63.8701C83.6148 60.3322 80.5837 56.6548 77.5944 52.9868C77.5851 52.9821 77.5804 52.9635 77.5711 52.9589C77.3573 52.7032 77.1527 52.4428 76.9389 52.1825L76.9249 52.1732C76.725 51.9268 76.5251 51.6757 76.3252 51.4293C75.679 50.6437 75.0328 49.844 74.4005 49.0584L80.6209 48.096C81.6576 47.9333 81.9412 46.5711 81.0439 46.0179L75.5116 42.5823C75.228 42.4103 75.0374 42.1174 74.9816 41.7966L73.9868 35.3578C73.824 34.321 72.4619 34.0374 71.9087 34.9347L68.4777 40.4717C68.408 40.5832 68.3196 40.6762 68.2174 40.7599C68.1011 40.8482 67.9803 40.918 67.8361 40.9598C67.771 40.8715 67.706 40.7924 67.6362 40.7134C67.2318 40.2067 66.8319 39.7092 66.4368 39.2071C66.0044 38.6771 65.5907 38.1611 65.1769 37.6358C65.1583 37.6218 65.1397 37.5986 65.1258 37.5753C64.9816 37.3987 64.8375 37.2127 64.6934 37.036C62.6804 34.5163 60.7789 32.1313 59.0309 29.9277C58.9472 29.8254 58.8636 29.7232 58.7892 29.6209C58.2174 28.9096 57.6734 28.2169 57.1434 27.5428C56.7436 27.0453 56.3624 26.5665 55.9905 26.0876C55.9579 26.1341 55.9068 26.1853 55.8743 26.2364C55.8603 26.2271 55.8603 26.2132 55.8464 26.2039C55.7906 26.1202 55.7301 26.0458 55.6604 25.9668C55.507 25.9947 55.3443 26.0272 55.1862 26.0597C55.1397 25.9947 55.0886 25.9296 55.0374 25.8691C52.9082 26.2504 51.0486 26.957 49.4447 27.8961C42.4433 31.9454 40.0165 40.3508 39.8538 45.474C39.7841 47.4823 40.0723 48.9747 40.5558 49.514C40.5233 49.6069 40.4814 49.7046 40.4489 49.7929C37.2736 58.189 38.9101 63.2192 40.8766 65.5763C41.388 66.1806 41.918 66.613 42.3968 66.8826C42.3689 67.0825 42.341 67.2824 42.3131 67.4823C41.1881 76.6269 44.7306 81.5828 47.4968 83.5446C47.9617 83.8794 48.408 84.1211 48.8031 84.2885C48.7985 84.5488 48.8031 84.8045 48.8031 85.0556C48.9333 91.792 52.2015 95.195 54.7306 96.5293C54.8608 96.599 54.9909 96.6641 55.1165 96.7199C55.5209 96.9059 55.8975 97.036 56.2369 97.1197C56.2369 97.2174 56.2462 97.315 56.2508 97.4126C56.2601 97.6497 56.2834 97.8775 56.3252 98.1053C56.5158 99.3512 57.0179 100.425 57.6688 101.322C57.7153 101.388 57.771 101.457 57.8268 101.527C57.8594 101.583 57.9012 101.629 57.9384 101.68C58.1848 101.983 58.4405 102.257 58.7008 102.522C59.5563 103.363 60.4907 103.982 61.2299 104.4C61.0718 104.516 60.9138 104.646 60.765 104.772C60.7278 104.795 60.6999 104.818 60.672 104.842C59.6446 105.692 58.7194 106.576 57.9105 107.487C54.1402 111.68 52.5316 116.418 51.9644 120.672C51.9551 120.727 51.9458 120.783 51.9505 120.839C51.8901 121.257 51.8436 121.676 51.811 122.094C51.7785 122.461 51.7599 122.824 51.7413 123.177C51.7366 123.363 51.7273 123.545 51.718 123.726C51.7087 124.121 51.7087 124.507 51.7041 124.879C51.7087 124.916 51.7041 124.953 51.7087 124.986V125.079C51.7041 125.139 51.7087 125.209 51.7134 125.274C51.7134 125.293 51.7041 125.302 51.7087 125.311C51.7134 125.609 51.7273 125.902 51.732 126.19C51.7413 126.269 51.7459 126.334 51.7459 126.408V126.422C51.7459 126.455 51.7506 126.478 51.7459 126.506L51.3554 126.906C51.2624 126.994 51.1323 127.041 51.0021 127.031L48.5009 126.85C48.1244 126.822 47.8966 127.236 48.0872 127.533C48.0965 127.561 48.1197 127.589 48.143 127.617L49.9328 129.388C50.0165 129.477 50.0677 129.598 50.063 129.723C50.0584 129.728 50.063 129.737 50.063 129.742L49.877 132.252C49.8491 132.643 50.2908 132.861 50.5837 132.643C50.6069 132.629 50.6209 132.619 50.6395 132.596L50.8905 132.345C50.8673 132.485 50.8347 132.629 50.8161 132.773C50.8115 132.843 50.7929 132.903 50.7882 132.973C50.6162 134.344 50.7882 135.711 51.2253 137.031L51.2206 137.041Z" fill="white"/>
<path d="M139.226 147.52C125.554 144.68 106.321 124.647 98.4173 114.996C102.667 111.983 108.111 102.146 98.4313 94.4378C90.6814 88.2686 69.8306 44.6005 55.0422 25.8418C40.0677 28.5382 38.5243 47.2923 40.5605 49.5099C36.4043 60.2676 40.0538 65.5722 42.4015 66.8832C40.8162 77.9757 46.0138 83.1175 48.8079 84.2937C48.673 93.0756 53.7079 96.5066 56.2416 97.1296C56.2974 101.021 59.375 103.355 61.2346 104.41C51.0673 112.346 51.2765 123.629 52.0203 129.477C47.985 136.228 54.0101 143.606 60.8395 147.078C66.2927 149.863 76.2277 154.763 82.8106 152.862C96.581 157.534 101.588 165.084 103.35 168.654C122.941 178.106 149.263 175.409 158.427 162.583C163.02 156.153 156.316 151.063 139.231 147.52H139.226Z" fill="#010101"/>
<path fill-rule="evenodd" clip-rule="evenodd" d="M55.5954 25.3996C55.4327 25.1997 55.1723 25.0974 54.9166 25.1439C47.1017 26.5526 42.8153 32.1593 40.7604 37.6079C39.733 40.3275 39.2495 43.0472 39.1519 45.2229C39.1054 46.3155 39.1519 47.2917 39.2867 48.0914C39.3797 48.6493 39.5331 49.1885 39.7656 49.607C35.9441 59.7929 38.9799 65.3996 41.6391 67.2453C40.2816 77.7985 44.9771 83.1448 48.0966 84.7441C48.1384 93.0007 52.6851 96.6874 55.5582 97.673C55.8232 101.062 58.1942 103.27 60.0073 104.493C50.4629 112.508 50.5698 123.494 51.2811 129.333C49.2449 132.917 49.8306 136.65 51.7414 139.872C53.68 143.136 57.004 145.93 60.5094 147.71C63.2337 149.1 67.1249 151.039 71.1696 152.396C75.098 153.712 79.3053 154.526 82.7781 153.6C96.1905 158.217 101.021 165.572 102.708 168.97C102.773 169.114 102.894 169.226 103.034 169.295C112.959 174.075 124.568 175.79 134.87 174.679C145.144 173.577 154.252 169.644 158.998 162.996C160.217 161.295 160.746 159.574 160.458 157.896C160.17 156.232 159.087 154.735 157.385 153.414C154.015 150.788 147.92 148.607 139.366 146.832C132.732 145.451 124.624 139.849 117.125 133.289C109.942 126.994 103.42 119.918 99.4308 115.111C101.523 113.373 103.689 110.249 104.349 106.608C105.079 102.545 103.908 97.8961 98.8683 93.8887C97.9803 93.182 96.8506 91.8803 95.521 90.0719C94.1914 88.2727 92.6944 86.0086 91.0626 83.3819C87.7944 78.1425 84.0054 71.5316 79.9887 64.5163L79.7284 64.056C71.7786 50.1602 62.9501 34.7348 55.5954 25.3996ZM54.7493 26.6176C61.9878 35.8924 70.6628 51.0481 78.5522 64.8371L78.766 65.209C82.7735 72.2197 86.5763 78.8585 89.8678 84.1258C91.4996 86.7618 93.0245 89.0677 94.3774 90.904C95.7256 92.7357 96.9436 94.1537 97.9896 94.9858C102.634 98.6818 103.592 102.805 102.959 106.353C102.318 109.956 99.998 113.01 98.0082 114.414C97.8548 114.526 97.7525 114.702 97.72 114.893C97.6921 115.093 97.7479 115.293 97.8734 115.441C101.848 120.295 108.654 127.747 116.195 134.34C123.703 140.918 132.044 146.752 139.082 148.212C147.618 149.984 153.415 152.122 156.525 154.53C158.059 155.73 158.854 156.938 159.068 158.143C159.273 159.337 158.924 160.662 157.85 162.173C153.434 168.356 144.8 172.187 134.731 173.27C124.749 174.349 113.499 172.703 103.875 168.129C101.946 164.335 96.7344 156.85 83.0431 152.187C82.899 152.136 82.7549 152.136 82.6107 152.173C79.5378 153.066 75.5861 152.382 71.6252 151.053C67.6968 149.737 63.8892 147.836 61.1603 146.441C57.8409 144.753 54.7493 142.122 52.9687 139.142C51.2114 136.176 50.7837 132.931 52.634 129.835C52.7084 129.7 52.7502 129.542 52.7223 129.384C51.9831 123.6 51.8065 112.652 61.667 104.958C61.8576 104.809 61.9599 104.577 61.9366 104.344C61.9227 104.112 61.7879 103.903 61.5787 103.786C59.7656 102.754 56.9994 100.602 56.9529 97.1151C56.9529 96.799 56.7251 96.5107 56.409 96.4363C54.2007 95.8971 49.3843 92.7543 49.5145 84.3024C49.5192 84.0142 49.3518 83.7539 49.0868 83.6376C46.6228 82.6009 41.5601 77.8078 43.1082 66.9849C43.1454 66.6967 43.0059 66.4084 42.7502 66.269C40.8209 65.1951 37.1389 60.3275 41.23 49.765C41.323 49.5186 41.2672 49.2257 41.0905 49.0351C40.9789 48.9143 40.8069 48.5516 40.6907 47.845C40.5791 47.1802 40.5326 46.3062 40.5698 45.2834C40.6628 43.2425 41.1184 40.6809 42.0901 38.1007C43.9961 33.0472 47.8502 28.0309 54.7493 26.6176Z" fill="#010101"/>
<path d="M142.253 144.926C128.58 142.085 109.347 122.053 101.444 112.402C105.693 109.389 111.142 99.5471 101.458 91.8437C93.7078 85.6791 70.4582 44.6935 55.6604 25.9395C40.6906 28.6405 41.5507 44.6982 43.587 46.9204C39.4214 57.6735 43.0802 62.9827 45.4326 64.2937C43.8473 75.3862 49.0449 80.528 51.8389 81.7042C51.6995 90.4815 56.739 93.9125 59.2727 94.5401C59.3285 98.4313 62.4061 100.765 64.2657 101.82C54.0983 109.756 54.3075 121.039 55.0514 126.888C51.0207 133.634 57.0458 141.012 63.8705 144.489C69.3238 147.269 79.2587 152.174 85.8324 150.268C99.6074 154.945 104.614 162.495 106.381 166.065C125.972 175.516 150.584 174.308 159.742 161.486C164.335 155.056 159.347 148.473 142.267 144.931L142.253 144.926Z" fill="#C62129"/>
<path fill-rule="evenodd" clip-rule="evenodd" d="M56.3485 25.3487C56.1904 25.1441 55.7953 24.9628 55.5303 25.0093C47.7479 26.4133 44.038 31.5644 42.5735 36.404C41.8436 38.8075 41.6716 41.1971 41.8111 43.1311C41.8762 44.0981 42.0249 44.9768 42.2295 45.6881C42.3736 46.1901 42.5549 46.655 42.7967 47.027C38.9705 57.2036 42.011 62.8057 44.6702 64.6513C43.3127 75.2046 48.0082 80.5509 51.1277 82.1502C51.1649 90.4021 55.7162 94.0935 58.5893 95.079C58.8543 98.4682 61.2253 100.676 63.0431 101.89C53.494 109.909 53.6009 120.9 54.3122 126.739C52.276 130.323 52.8618 134.056 54.7771 137.269C56.7158 140.532 60.0352 143.336 63.5405 145.112C66.2648 146.502 70.156 148.44 74.2007 149.798C78.1291 151.113 82.3364 151.927 85.8092 151.002C99.2262 155.609 104.052 162.973 105.739 166.371C105.805 166.516 105.925 166.627 106.065 166.697C115.972 171.471 127.148 173.559 137.023 172.824C146.874 172.094 155.563 168.538 160.314 161.89C161.532 160.188 162.155 158.417 162.053 156.636C161.951 154.851 161.132 153.164 159.64 151.629C156.679 148.58 150.984 146.013 142.402 144.228C135.763 142.857 127.655 137.255 120.161 130.686C112.973 124.396 106.446 117.325 102.462 112.517C104.554 110.779 106.725 107.65 107.381 104.014C108.11 99.9512 106.939 95.3022 101.899 91.2948C100.998 90.5742 99.8213 89.3096 98.4266 87.5662C97.0366 85.8368 95.4466 83.675 93.6986 81.1785C90.2025 76.1855 86.1161 69.9186 81.8018 63.2334C81.0765 62.1037 80.3374 60.96 79.6028 59.8164C71.5833 47.3942 63.1453 33.9586 56.3485 25.3487ZM55.3722 26.7108C62.0854 35.2836 70.4908 48.3194 78.4127 60.5974C79.1426 61.7364 79.8771 62.8708 80.6023 63.9958C84.912 70.6718 89.017 76.9758 92.527 81.9921C94.2797 84.4933 95.8929 86.6829 97.3155 88.4542C98.7288 90.2069 99.9794 91.5737 101.007 92.3919C105.651 96.0879 106.609 100.212 105.977 103.759C105.335 107.362 103.015 110.416 101.03 111.815C100.872 111.932 100.765 112.108 100.737 112.299C100.709 112.499 100.765 112.699 100.891 112.848C104.865 117.701 111.672 125.153 119.212 131.746C126.72 138.324 135.061 144.159 142.099 145.618C150.612 147.385 155.949 149.886 158.608 152.61C159.919 153.968 160.547 155.349 160.626 156.72C160.7 158.096 160.23 159.551 159.147 161.067C154.735 167.245 146.539 170.7 136.906 171.416C127.357 172.122 116.525 170.123 106.892 165.521C104.958 161.736 99.7469 154.247 86.0556 149.589C85.9115 149.537 85.7674 149.537 85.6233 149.575C82.5503 150.467 78.5986 149.784 74.6377 148.454C70.7093 147.139 66.9017 145.237 64.1728 143.842C60.8534 142.155 57.7572 139.523 55.9812 136.543C54.2239 133.577 53.7962 130.332 55.6465 127.236C55.7209 127.101 55.7627 126.943 55.7348 126.785C55.0003 120.993 54.819 110.053 64.6842 102.355C64.8701 102.215 64.9724 101.983 64.9492 101.746C64.9352 101.513 64.8004 101.304 64.5912 101.188C62.7781 100.156 60.0119 98.0033 59.9654 94.5165C59.9608 94.1864 59.7376 93.9121 59.4215 93.8378C57.2132 93.2985 52.3969 90.1557 52.527 81.7039C52.5317 81.4156 52.3643 81.1553 52.0993 81.0391C49.6354 80.0023 44.5726 75.2092 46.1207 64.3863C46.1579 64.0981 46.0184 63.8099 45.7627 63.6704C43.8334 62.5965 40.1514 57.729 44.2425 47.1664C44.3355 46.92 44.2797 46.6272 44.103 46.4365C43.9543 46.2785 43.759 45.9066 43.5824 45.2882C43.415 44.6839 43.2755 43.9121 43.2058 43.0242C43.0803 41.2436 43.243 39.0307 43.9217 36.8085C45.2327 32.4756 48.4731 28.0962 55.3676 26.7015L55.3722 26.7108Z" fill="#010101"/>
<path d="M150.849 143.122C137.176 140.282 117.952 120.254 110.04 110.598C114.294 107.595 119.742 97.7481 110.054 90.0401C102.304 83.8709 70.7835 44.8239 55.9951 26.0605C48.0592 35.9769 50.1513 42.8946 52.1875 45.1168C48.022 55.8699 51.6808 61.1791 54.0332 62.4901C52.4479 73.5826 57.6408 78.7198 60.4395 79.9006C60.3 88.6779 65.3396 92.1135 67.8733 92.7365C67.9291 96.6277 71.6576 99.71 73.5172 100.765C62.1782 107.943 60.8347 121.449 61.5832 127.302C57.5478 134.052 64.8189 138.436 71.6436 141.914C77.1015 144.689 85.7394 145.777 89.3749 145.972C103.145 150.654 110.119 158.952 111.885 162.523C131.476 171.96 148.877 168.845 155.804 165.052C162.731 161.258 167.948 146.67 150.858 143.122H150.849Z" fill="#EE3446"/>
<path fill-rule="evenodd" clip-rule="evenodd" d="M55.9998 25.3543C55.7859 25.3589 55.5814 25.4565 55.4512 25.6239C47.706 35.2892 49.1751 42.4207 51.3787 45.2566C47.5804 55.41 50.6116 61.0074 53.2708 62.8531C51.9133 73.4063 56.6088 78.7527 59.7283 80.3519C59.7562 88.6132 64.3169 92.2952 67.1946 93.2715C67.3666 95.2194 68.3475 96.9303 69.4772 98.2738C70.3606 99.3152 71.3554 100.171 72.2155 100.775C61.5321 108.195 60.1653 121.217 60.844 127.158C59.8631 128.883 59.547 130.515 59.7887 132.058C60.0351 133.653 60.8719 135.066 62.0156 136.317C64.2797 138.804 67.9152 140.812 71.3136 142.546C74.1309 143.978 77.7292 144.954 81.0486 145.605C84.3215 146.242 87.3666 146.572 89.2355 146.679C102.783 151.31 109.575 159.464 111.239 162.835C111.318 162.974 111.43 163.086 111.574 163.16C131.355 172.7 148.994 169.589 156.139 165.68C159.812 163.667 163.001 158.836 163.038 154.006C163.052 151.561 162.267 149.111 160.323 147.037C158.389 144.973 155.363 143.346 150.997 142.435C144.354 141.059 136.251 135.461 128.757 128.892C121.569 122.602 115.042 115.531 111.058 110.724C113.15 108.985 115.321 105.856 115.967 102.216C116.697 98.153 115.53 93.5086 110.491 89.5012C108.613 88.0042 105.228 84.4524 100.946 79.6174C96.6785 74.8057 91.5507 68.762 86.2043 62.3324C75.5163 49.45 63.9449 35.0056 56.553 25.6193C56.4228 25.4519 56.2136 25.3589 55.9998 25.3496V25.3543ZM99.891 80.5518C104.159 85.3636 107.618 89.0084 109.617 90.5937C114.261 94.2896 115.219 98.4133 114.587 101.96C113.936 105.559 111.625 108.618 109.64 110.017C109.482 110.133 109.37 110.305 109.347 110.501C109.319 110.701 109.37 110.896 109.5 111.049C113.475 115.903 120.282 123.355 127.822 129.947C135.33 136.526 143.671 142.36 150.709 143.82C154.889 144.685 157.608 146.21 159.291 147.995C160.965 149.78 161.639 151.877 161.62 153.992C161.597 158.288 158.71 162.649 155.456 164.429C148.771 168.093 131.713 171.207 112.401 161.984C110.375 158.134 103.262 149.947 89.5981 145.308C89.5377 145.289 89.4772 145.275 89.4122 145.271C87.6269 145.168 84.5865 144.857 81.3182 144.215C78.0454 143.578 74.6004 142.63 71.9505 141.282C68.5335 139.543 65.1258 137.628 63.0523 135.359C62.0342 134.243 61.3787 133.072 61.1788 131.84C60.9928 130.617 61.2392 129.241 62.1783 127.674C62.2573 127.53 62.2945 127.381 62.2759 127.218C61.5414 121.486 62.8803 108.33 73.8891 101.365C74.0983 101.231 74.2239 100.998 74.2239 100.752C74.2146 100.501 74.0844 100.273 73.8659 100.152C73.0012 99.6592 71.6669 98.6783 70.5512 97.3533C69.4354 96.033 68.5986 94.4477 68.5753 92.7322C68.5707 92.4021 68.3475 92.1278 68.0314 92.0535C65.8231 91.5142 61.0068 88.3715 61.1369 79.9196C61.1462 79.6313 60.9742 79.371 60.7092 79.2548C58.2453 78.218 53.1825 73.4249 54.726 62.5974C54.7725 62.3138 54.6283 62.0256 54.3726 61.8861C52.448 60.8029 48.752 55.94 52.8431 45.3775C52.9454 45.1358 52.8896 44.8429 52.7036 44.6476C51.0254 42.8113 48.8543 36.5676 55.9905 27.2139C63.4103 36.6048 74.6795 50.6681 85.1165 63.2343C90.4628 69.6778 95.6 75.7262 99.8817 80.5611L99.891 80.5518Z" fill="#010101"/>
<path fill-rule="evenodd" clip-rule="evenodd" d="M71.9274 93.285C71.7368 93.3919 71.6112 93.5825 71.5833 93.7964C71.4811 94.5542 71.7042 95.3213 72.0436 96.014C72.3923 96.716 72.899 97.3994 73.4522 98.0363C74.554 99.3148 75.9116 100.454 76.8367 101.114C76.8832 101.146 76.939 101.174 76.9948 101.202L91.7879 107.014C92.0668 107.12 92.3876 107.041 92.5829 106.814C92.7828 106.576 92.8153 106.256 92.6526 105.995L89.1566 100.105C89.0729 99.9703 88.952 99.8633 88.8125 99.8076L72.5503 93.2292C72.3458 93.1455 72.118 93.1595 71.9274 93.2757V93.285ZM88.0547 101.035L90.3839 104.945L77.6038 99.9191C76.7484 99.2962 75.5164 98.2594 74.5262 97.1158C74.0194 96.5347 73.5964 95.9349 73.3174 95.3817C73.2523 95.2515 73.1965 95.126 73.1501 95.0098L88.0501 101.035H88.0547Z" fill="white"/>
<path fill-rule="evenodd" clip-rule="evenodd" d="M83.201 104.685C83.0011 104.833 82.8942 105.084 82.9314 105.331C83.1127 106.795 83.7171 108.213 84.3819 109.366C85.0467 110.524 85.7859 111.472 86.2787 112.002C86.367 112.095 86.4879 112.165 86.6134 112.197L96.5251 114.94C96.8087 115.015 97.1015 114.912 97.2782 114.694C97.4549 114.461 97.4735 114.155 97.3293 113.904L94.5399 109.11C94.4563 108.976 94.3354 108.869 94.1913 108.808L83.903 104.596C83.6706 104.494 83.4009 104.531 83.2103 104.689L83.201 104.685ZM93.4288 110.026L95.2233 113.113L87.1806 110.886C86.7575 110.417 86.1578 109.631 85.6046 108.669C85.2047 107.962 84.8514 107.195 84.605 106.409L93.4288 110.026Z" fill="white"/>
<path fill-rule="evenodd" clip-rule="evenodd" d="M57.2365 63.9811C57.018 64.0554 56.8367 64.2321 56.7716 64.4553C56.0975 66.7751 56.3625 69.2437 56.9343 71.3497C57.5061 73.4604 58.4034 75.2735 59.0728 76.3195C59.1333 76.4125 59.2123 76.4915 59.3146 76.5566L83.6986 90.7732C83.9636 90.9313 84.2937 90.8941 84.5215 90.6896C84.7493 90.485 84.8236 90.1503 84.6981 89.8713L81.7321 83.1954C81.6856 83.0977 81.6158 83.0048 81.5228 82.9304L57.892 64.1019C57.706 63.9485 57.4643 63.9113 57.2365 63.9811ZM80.5047 83.9299L82.5131 88.4487L60.1746 75.4222C59.5889 74.4692 58.8032 72.8467 58.3011 70.9778C57.8594 69.36 57.6363 67.5887 57.8966 65.915L80.5001 83.9299H80.5047Z" fill="white"/>
<path fill-rule="evenodd" clip-rule="evenodd" d="M63.1824 79.9428C62.9779 80.0357 62.8384 80.2217 62.7826 80.4448C62.4339 82.1371 62.8291 83.9827 63.4056 85.5494C63.9914 87.1208 64.7956 88.5155 65.3628 89.3198C65.4418 89.4267 65.5441 89.5011 65.665 89.5569L86.7296 98.6317C86.9993 98.7526 87.3107 98.6875 87.5106 98.4783C87.7199 98.2738 87.7803 97.9576 87.6548 97.688L85.1164 92.0766C85.056 91.9418 84.9537 91.821 84.8189 91.7466L63.824 79.9706C63.6287 79.8637 63.3963 79.8544 63.1824 79.9428ZM83.9263 92.867L85.6185 96.6048L66.4135 88.3342C65.9114 87.5997 65.2326 86.4002 64.7352 85.0566C64.3307 83.9502 64.0564 82.7879 64.0704 81.728L83.9263 92.867Z" fill="white"/>
<path fill-rule="evenodd" clip-rule="evenodd" d="M54.512 46.589C54.2796 46.6216 54.0843 46.7657 53.9774 46.9702C52.8337 49.2482 52.5037 51.7819 52.5409 53.9949C52.5873 56.2078 53.0011 58.1557 53.387 59.2901C53.4242 59.411 53.4985 59.5272 53.6055 59.6155L79.333 80.8661C79.5794 81.0614 79.9281 81.08 80.1885 80.8986C80.4488 80.7266 80.5557 80.3966 80.4581 80.0944L77.0876 69.9409C77.0597 69.834 77.0039 69.7457 76.9342 69.6713L55.1211 46.7982C54.9583 46.6309 54.7305 46.5518 54.5074 46.5797L54.512 46.589ZM75.8091 70.5407L78.3475 78.2115L54.6654 58.6532C54.3493 57.6304 53.996 55.9196 53.9588 53.9716C53.9309 52.219 54.1494 50.3082 54.8282 48.5509L75.8091 70.5453V70.5407Z" fill="white"/>
<path fill-rule="evenodd" clip-rule="evenodd" d="M56.3299 31.1184C56.0881 31.1323 55.8789 31.2672 55.7534 31.4857C52.2202 37.9013 53.1035 42.4062 54.2378 44.0147C54.2518 44.038 54.275 44.0612 54.2936 44.0845L75.5721 67.7479C75.772 67.9664 76.0881 68.0408 76.3671 67.9292C76.6367 67.8176 76.818 67.548 76.8041 67.2458L76.5158 58.6451C76.5158 58.5057 76.4693 58.3708 76.3857 58.2593L56.9528 31.4066C56.8087 31.2114 56.5716 31.1045 56.3299 31.1184ZM75.1025 58.9055L75.321 65.3583L55.3722 43.1686C54.6981 42.1737 53.759 38.6684 56.474 33.164L75.1025 58.9055Z" fill="white"/>
<path fill-rule="evenodd" clip-rule="evenodd" d="M84.5911 86.2171C84.368 86.4263 84.3075 86.761 84.4377 87.0307C87.1853 92.8559 93.0848 105.264 94.6655 108.123C95.5535 109.732 97.0737 110.745 98.5428 111.364C100.007 111.987 101.5 112.247 102.453 112.298C102.643 112.307 102.829 112.242 102.964 112.107C103.108 111.977 103.187 111.796 103.196 111.601C103.257 108.653 102.16 105.176 100.705 101.866C99.2448 98.5323 97.3759 95.3013 95.8231 92.8047C95.0607 91.5774 93.9821 90.6058 92.7176 89.9363L85.4047 86.1009C85.1397 85.9568 84.8143 86.0033 84.5911 86.2125V86.2171ZM86.6227 88.3417L92.0621 91.2008C93.1127 91.7587 93.996 92.563 94.6237 93.5672C96.1625 96.0311 97.9895 99.2018 99.4168 102.447C100.709 105.394 101.648 108.332 101.765 110.81C101.002 110.703 100.044 110.471 99.0867 110.076C97.7803 109.523 96.5762 108.672 95.8928 107.449C94.4981 104.92 89.5888 94.6318 86.6181 88.3463L86.6227 88.3417Z" fill="white"/>
<path fill-rule="evenodd" clip-rule="evenodd" d="M88.0453 72.4809C87.7431 72.6948 87.6687 73.1132 87.864 73.4247C90.8114 78.0597 95.1536 85.5074 98.6357 92.7552C100.379 96.3814 101.899 99.9565 102.917 103.085C103.94 106.251 104.414 108.878 104.182 110.672C104.145 110.961 104.284 111.235 104.526 111.379C104.777 111.528 105.089 111.5 105.321 111.328C107.325 109.771 110.003 107.093 111.439 104.145C112.164 102.658 112.601 101.063 112.439 99.4684C112.267 97.8552 111.499 96.321 109.923 94.996C104.233 90.1657 93.6148 78.069 89.003 72.5925C88.7659 72.3089 88.3428 72.2578 88.0406 72.4809H88.0453ZM93.3684 79.8077C98.4591 85.5818 104.935 92.6157 109.008 96.0699C110.323 97.1811 110.9 98.3851 111.025 99.6078C111.155 100.854 110.821 102.188 110.17 103.522C109.115 105.675 107.311 107.716 105.646 109.213C105.563 107.33 105.051 105.08 104.256 102.648C103.22 99.4312 101.672 95.8049 99.9095 92.1462C97.8733 87.9016 95.5395 83.5874 93.3637 79.8124L93.3684 79.8077Z" fill="white"/>
<path fill-rule="evenodd" clip-rule="evenodd" d="M138.659 140.924C138.631 140.905 138.603 140.896 138.58 140.886C137.023 140.235 134.935 138.831 132.508 136.842C130.105 134.875 127.446 132.407 124.749 129.747C119.366 124.41 113.884 118.315 110.063 113.843C108.575 112.109 106.111 112.439 104.703 113.518C102.034 115.549 97.2131 116.302 89.2912 114.35C87.2875 113.852 85.9021 112.602 84.7863 110.975C83.9449 109.743 83.3173 108.418 82.6943 107.088C82.4618 106.586 82.2294 106.093 81.9876 105.596C81.5599 104.745 81.0811 103.88 80.5046 103.192C79.9142 102.49 79.1239 101.849 78.0639 101.658C77.0086 101.472 75.9486 101.774 74.9072 102.374C73.8612 102.969 72.7361 103.931 71.467 105.247C63.7822 113.285 63.387 122.997 64.3075 127.809C63.6613 128.362 63.2057 129.069 63.0755 129.943C62.8942 131.091 63.3405 132.188 63.9402 133.099C65.135 134.908 67.427 136.712 69.9607 138.25C72.5409 139.808 75.5441 141.202 78.3382 142.114C81.0532 143.002 83.8333 143.532 85.8184 143.09C88.6078 142.476 90.8579 142.997 93.5823 144.313C94.9723 144.982 96.46 145.851 98.1987 146.874C98.3428 146.967 98.4916 147.051 98.645 147.144C100.249 148.102 102.057 149.171 104.122 150.291C110.979 154.015 113.024 158.487 113.248 159.864C113.308 160.263 113.55 160.617 113.889 160.835C116.372 162.388 119.914 163.597 123.824 164.457C127.771 165.321 132.197 165.87 136.506 166.023C140.807 166.186 145.051 165.963 148.599 165.289C152.071 164.629 155.191 163.48 156.925 161.537C159.979 158.116 160.765 154.499 159.761 151.514C158.766 148.571 156.116 146.549 153.006 146.13C151.076 145.875 148.32 144.987 145.558 143.917C142.829 142.862 140.226 141.686 138.678 140.933L138.659 140.924ZM65.8882 128.422C64.8189 124.438 64.6515 114.42 72.4804 106.233C78.0128 100.454 79.4167 103.453 81.3647 107.604C82.8617 110.793 84.6794 114.675 88.9426 115.726C96.9946 117.72 102.36 117.069 105.549 114.647C106.581 113.862 108.129 113.783 108.98 114.768C116.66 123.759 131.002 139.268 138.036 142.193C141.202 143.741 148.599 146.963 152.797 147.53C158.045 148.218 161.462 154.294 155.846 160.579C150.23 166.874 123.722 165.331 114.628 159.622C114.321 157.716 111.918 152.909 104.782 149.045C102.741 147.934 100.956 146.879 99.3424 145.917C93.9077 142.695 90.4163 140.621 85.4976 141.705C79.1285 143.118 58.9007 132.276 65.8835 128.422H65.8882Z" fill="white"/>
<path fill-rule="evenodd" clip-rule="evenodd" d="M77.204 134.968C83.7173 137.339 90.9836 139.612 94.2472 140.612C97.4644 141.607 101.128 143.038 104.35 144.879C107.585 146.73 110.291 148.933 111.7 151.43C114.21 155.865 118.366 158.292 120.184 158.961H120.193C138.055 165.386 154.085 159.212 159.924 155.279L159.133 154.108C153.573 157.85 138.018 163.866 120.672 157.632C119.087 157.046 115.237 154.824 112.936 150.742C111.337 147.911 108.366 145.549 105.052 143.652C101.718 141.755 97.9525 140.282 94.661 139.263C91.4067 138.264 84.1775 136.005 77.6968 133.643C74.4564 132.462 71.4207 131.263 69.1798 130.184C68.0548 129.645 67.1482 129.152 66.516 128.71C66.2045 128.487 65.9813 128.296 65.8418 128.143C65.6977 127.99 65.6745 127.92 65.6745 127.92H65.6791L64.2798 128.166C64.3402 128.534 64.568 128.854 64.7958 129.101C65.0376 129.366 65.3491 129.621 65.707 129.868C66.4276 130.37 67.4086 130.905 68.5569 131.462C70.8721 132.569 73.9497 133.782 77.204 134.972V134.968Z" fill="white"/>
<path fill-rule="evenodd" clip-rule="evenodd" d="M77.9292 61.6069C77.6596 61.7091 77.4829 61.9695 77.4736 62.2577C77.4736 62.8946 77.6224 64.1359 77.8595 65.6282C78.1059 67.1485 78.4499 68.9895 78.8544 70.8723C79.654 74.6008 80.714 78.6269 81.7461 80.5655C82.6154 82.2252 84.3588 83.5223 86.065 84.4474C87.7898 85.3958 89.6029 86.0327 90.7512 86.3349C91.0255 86.4046 91.3091 86.3163 91.4811 86.0885C91.6531 85.8746 91.6903 85.5771 91.5648 85.3261C87.6085 77.539 86.0324 71.5743 85.7442 69.6264C85.7256 69.4869 85.6605 69.3567 85.5675 69.2591L78.7056 61.7789C78.5104 61.565 78.2035 61.4953 77.9292 61.6022V61.6069ZM84.3774 70.0634C84.7354 72.2205 86.2091 77.5622 89.561 84.4799C88.6963 84.1638 87.7061 83.7408 86.7484 83.2154C85.1119 82.3182 83.6754 81.1885 82.9966 79.9053C82.0901 78.1666 81.0534 74.3405 80.2351 70.5748C79.8353 68.7152 79.4913 66.8974 79.2589 65.4051C79.1984 65.0053 79.1426 64.6427 79.0915 64.2986L84.382 70.0587L84.3774 70.0634Z" fill="white"/>
<path d="M64.6423 102.397C67.6316 99.8729 67.4038 103.657 66.9296 105.982L69.984 103.295L73.1034 100.747L68.8961 96.1769L67.176 93.248C67.6827 99.4545 61.5879 98.427 59.9142 94.2941L59.0681 95.9352L60.9974 99.5707L64.6469 102.397H64.6423Z" fill="#010101"/>
<path d="M155.005 140.183C155.284 139.867 155.023 139.378 154.61 139.439L149.663 140.094C149.538 140.108 149.407 140.071 149.301 139.983L145.586 136.659C145.275 136.375 144.786 136.631 144.842 137.054L145.502 141.996C145.512 142.131 145.474 142.256 145.391 142.358L142.062 146.078C141.783 146.38 142.043 146.873 142.457 146.822L147.399 146.161C147.529 146.138 147.664 146.185 147.762 146.273L151.481 149.602C151.788 149.876 152.276 149.62 152.225 149.206L151.569 144.26C151.546 144.13 151.588 144 151.676 143.907L155.005 140.187V140.183Z" fill="#FEE200"/>
<path fill-rule="evenodd" clip-rule="evenodd" d="M149.7 139.332L154.512 138.695C155.614 138.546 156.302 139.848 155.563 140.675L152.327 144.292L152.964 149.104C153.113 150.206 151.806 150.889 150.979 150.15L147.362 146.914L142.55 147.551C141.448 147.7 140.765 146.394 141.504 145.566L144.745 141.954L144.103 137.152C143.954 136.05 145.261 135.352 146.083 136.101L149.7 139.337V139.332ZM154.61 139.439C155.024 139.378 155.279 139.867 155.005 140.183L151.676 143.902C151.588 143.995 151.546 144.125 151.569 144.255L152.225 149.202C152.276 149.616 151.792 149.867 151.481 149.597L147.762 146.268C147.669 146.18 147.529 146.133 147.399 146.157L142.457 146.817C142.044 146.868 141.783 146.38 142.062 146.073L145.391 142.354C145.47 142.256 145.512 142.126 145.502 141.991L144.842 137.049C144.786 136.631 145.275 136.371 145.586 136.654L149.301 139.978C149.408 140.066 149.538 140.104 149.663 140.09L154.61 139.434V139.439Z" fill="#010101"/>
<path d="M73.9913 35.3357C73.8286 34.2989 72.4665 34.0153 71.9132 34.9126L68.4823 40.4496C68.301 40.7285 68.0174 40.9238 67.6873 40.9749L61.2484 41.9698C60.2117 42.1325 59.9374 43.4993 60.8254 44.0479L66.367 47.4835C66.6413 47.6602 66.8365 47.9438 66.883 48.2738L67.8779 54.7127C68.0406 55.7494 69.4074 56.0237 69.956 55.1358L73.3963 49.5988C73.5636 49.3199 73.8565 49.1292 74.1773 49.0781L80.6162 48.0832C81.6529 47.9205 81.9365 46.5584 81.0392 46.0051L75.5069 42.5695C75.2233 42.3975 75.0327 42.1046 74.9769 41.7838L73.982 35.345L73.9913 35.3357Z" fill="#FEE200"/>
<path fill-rule="evenodd" clip-rule="evenodd" d="M71.2763 34.5212L67.8407 40.0535C67.7849 40.1465 67.6827 40.2162 67.5757 40.2302L61.1369 41.2251C59.4121 41.4947 58.9518 43.7588 60.4349 44.6793L65.9672 48.1149C66.0648 48.1707 66.1299 48.273 66.1438 48.3799L67.1387 54.8187C67.4084 56.5435 69.6771 57.0084 70.5976 55.5254L74.0285 49.9884C74.0843 49.8908 74.1866 49.8257 74.2982 49.8164L80.7324 48.8169C82.4618 48.5519 82.9221 46.2785 81.439 45.358L75.9021 41.9271C75.8091 41.8713 75.7394 41.769 75.7301 41.6574L74.7305 35.2232C74.4655 33.4938 72.1968 33.0382 71.2763 34.5212ZM71.9132 34.9117C72.4665 34.0191 73.8333 34.2981 73.9913 35.3348L74.9862 41.7737C75.042 42.0944 75.228 42.3873 75.5162 42.5593L81.0485 45.9949C81.9411 46.5482 81.6622 47.915 80.6255 48.073L74.1866 49.0679C73.8658 49.1237 73.5729 49.3097 73.4056 49.5886L69.9653 55.1256C69.4167 56.0135 68.0453 55.7393 67.8872 54.7025L66.8923 48.2637C66.8458 47.9336 66.6506 47.65 66.3763 47.4733L60.8347 44.0377C59.9467 43.4891 60.221 42.1177 61.2577 41.9596L67.6966 40.9647C68.0267 40.9182 68.3103 40.723 68.4916 40.4394L71.9225 34.9024L71.9132 34.9117Z" fill="#010101"/>
<path fill-rule="evenodd" clip-rule="evenodd" d="M108.943 112.165C108.403 112.272 108.059 112.802 108.171 113.337C108.329 114.099 108.529 115.438 108.58 116.926C108.631 118.409 108.534 119.957 108.162 121.17C108.004 121.7 108.292 122.249 108.822 122.407C109.347 122.569 109.9 122.277 110.054 121.756C110.523 120.231 110.621 118.436 110.565 116.851C110.509 115.257 110.295 113.806 110.114 112.941C109.998 112.397 109.477 112.058 108.943 112.17V112.165Z" fill="white"/>
<path fill-rule="evenodd" clip-rule="evenodd" d="M113.638 117.993C113.099 118.1 112.755 118.63 112.866 119.165C113.038 119.969 113.308 121.368 113.438 122.889C113.568 124.427 113.541 125.994 113.173 127.18C113.011 127.705 113.303 128.258 113.824 128.412C114.349 128.574 114.903 128.281 115.065 127.765C115.549 126.208 115.54 124.339 115.405 122.721C115.265 121.08 114.977 119.592 114.805 118.769C114.689 118.226 114.168 117.886 113.634 117.998L113.638 117.993Z" fill="white"/>
<path fill-rule="evenodd" clip-rule="evenodd" d="M119.012 123.471C118.473 123.55 118.092 124.052 118.171 124.592C118.282 125.405 118.464 126.814 118.492 128.348C118.524 129.891 118.385 131.454 117.948 132.606C117.752 133.118 118.013 133.69 118.524 133.89C119.036 134.085 119.603 133.834 119.803 133.322C120.375 131.802 120.505 129.929 120.472 128.311C120.444 126.665 120.244 125.159 120.133 124.322C120.058 123.778 119.561 123.401 119.017 123.471H119.012Z" fill="white"/>
<path fill-rule="evenodd" clip-rule="evenodd" d="M123.889 128.599C123.35 128.678 122.973 129.176 123.048 129.72C123.164 130.529 123.34 131.942 123.373 133.467C123.401 135.02 123.271 136.577 122.824 137.735C122.629 138.246 122.89 138.818 123.401 139.018C123.917 139.208 124.484 138.953 124.684 138.441C125.265 136.926 125.381 135.057 125.354 133.43C125.326 131.784 125.135 130.282 125.014 129.441C124.94 128.897 124.438 128.525 123.894 128.599H123.889Z" fill="white"/>
<path fill-rule="evenodd" clip-rule="evenodd" d="M128.915 133.521C128.375 133.6 127.999 134.098 128.073 134.642C128.19 135.451 128.366 136.864 128.399 138.389C128.427 139.941 128.296 141.499 127.85 142.656C127.66 143.173 127.915 143.74 128.427 143.94C128.943 144.13 129.51 143.875 129.71 143.363C130.291 141.848 130.407 139.979 130.379 138.352C130.351 136.706 130.161 135.204 130.04 134.363C129.965 133.819 129.463 133.447 128.919 133.521H128.915Z" fill="white"/>
<path d="M136.265 169.435C139.482 170.002 137.288 171.541 135.326 171.485L135.079 173.963L144.084 171.694L151.123 168.905L152.811 166.543L141.662 168.403L136.265 169.439V169.435Z" fill="#010101"/>
<path d="M54.4424 130.593C55.1583 127.031 60.1049 128.877 59.7562 130.453L61.2718 128.333L61.3555 125.716L60.7464 125.111C60.3606 129.602 55.3304 126.418 55.4512 123.326L54.4749 126.218L54.4377 130.588L54.4424 130.593Z" fill="#010101"/>
<path d="M53.8939 125.484C53.9264 125.07 53.4243 124.833 53.1314 125.14L51.3602 126.915C51.2672 127.004 51.137 127.05 51.0068 127.041L48.5057 126.86C48.0919 126.827 47.8548 127.329 48.1477 127.622L49.9376 129.393C50.0259 129.486 50.0724 129.617 50.0631 129.747L49.8771 132.257C49.8492 132.666 50.3467 132.894 50.6396 132.601L52.4108 130.825C52.5131 130.728 52.6386 130.681 52.7688 130.69L55.2653 130.881C55.6884 130.909 55.9162 130.411 55.6233 130.119L53.8381 128.343C53.7451 128.254 53.6986 128.129 53.7126 127.989L53.8939 125.484Z" fill="#FEE200"/>
<path fill-rule="evenodd" clip-rule="evenodd" d="M50.9232 126.292L52.6014 124.604C53.3825 123.819 54.726 124.432 54.6424 125.539L54.461 127.91L56.1486 129.588C56.9297 130.378 56.3206 131.713 55.2142 131.629L52.8385 131.457L51.1649 133.14C50.3839 133.926 49.0403 133.312 49.124 132.205L49.296 129.83L47.6131 128.156C46.8274 127.375 47.4411 126.032 48.5475 126.115L50.9139 126.297L50.9232 126.292ZM53.1314 125.139C53.4243 124.832 53.9264 125.069 53.8939 125.483L53.7126 127.989C53.6986 128.124 53.7451 128.254 53.8381 128.342L55.6233 130.118C55.9162 130.411 55.6884 130.908 55.2653 130.88L52.7688 130.69C52.6386 130.681 52.5131 130.727 52.4108 130.825L50.6396 132.601C50.3467 132.893 49.8492 132.666 49.8771 132.257L50.0631 129.746C50.0724 129.616 50.0259 129.49 49.9376 129.393L48.1477 127.621C47.8548 127.329 48.0873 126.822 48.5057 126.859L51.0068 127.04C51.137 127.05 51.2625 127.003 51.3602 126.915L53.1314 125.139Z" fill="#010101"/>
</g>
<defs>
<clipPath id="clip0_2458_1033">
<rect width="125.077" height="150" fill="white" transform="translate(37.9617 25)"/>
</clipPath>
</defs>
</svg>
