<svg width="201" height="200" viewBox="0 0 201 200" fill="none" xmlns="http://www.w3.org/2000/svg">
<g clip-path="url(#clip0_2458_1010)">
<path d="M92.1512 28.3161C92.5686 28.151 93.0594 27.8574 93.5778 27.6877C94.1054 27.4858 94.6467 27.3299 95.1971 27.1877C103.408 24.8573 118.946 23.2105 124.804 34.0411C128.047 33.298 132.955 33.2704 137.497 35.4723L137.088 31.6511C136.96 30.4309 138.368 29.6969 139.231 30.5364L143.455 34.6466C143.726 34.9081 144.098 35.0365 144.469 34.9907L150.217 34.3301C151.396 34.1971 152.103 35.6558 151.291 36.5641L147.341 40.9542C147.084 41.2386 146.965 41.6193 147.006 42.0046L147.437 46.0782C151.937 55.0417 155.795 71.4688 150.607 95.0476C142.377 132.429 135.873 160.247 119.212 162.573C117.923 162.747 116.79 163.664 116.514 164.99L115.913 167.889C115.413 170.302 113.666 172.224 111.381 172.885L109.248 173.509C105.991 174.454 102.532 174.376 99.367 173.133C85.7427 167.798 63.2787 157.118 59.1777 147.907L59.2373 147.834C57.7648 145.274 57.2372 142.292 57.1684 139.783C57.1042 137.512 56.0124 135.319 54.3702 133.815C47.8837 127.86 47.4388 116.801 48.1682 111.415L52.338 87.7079C53.6041 80.015 56.3014 75.1846 59.563 72.2946L59.5768 72.1294C59.5859 72.0193 59.5447 71.9046 59.4713 71.8221L56.7785 68.9688C56.5308 68.7073 56.7326 68.2715 57.0813 68.3036L60.9117 68.6477C61.0218 68.6568 61.1319 68.6156 61.2098 68.5376L63.953 65.7347C64.2054 65.4778 64.6274 65.6889 64.5953 66.0513L64.3154 69.4137C70.0587 67.2852 80.4169 63.9824 84.972 66.7715C84.9583 64.5329 84.8161 59.6336 84.3757 49.9361C83.7702 36.6696 87.3483 30.8162 92.1558 28.3253L92.1512 28.3161Z" fill="white"/>
<path fill-rule="evenodd" clip-rule="evenodd" d="M92.1511 28.3161C92.5686 28.151 93.0594 27.8574 93.5778 27.6877C94.1053 27.4858 94.6466 27.3299 95.1971 27.1877C103.408 24.8573 118.946 23.2105 124.803 34.0411C127.203 33.486 130.515 33.3392 133.914 34.1833C135.111 34.4815 136.318 34.9035 137.501 35.4723L137.093 31.6511C137.088 31.5823 137.084 31.5181 137.084 31.4493C137.12 30.3483 138.419 29.7428 139.235 30.5364L143.46 34.6466C143.731 34.9081 144.102 35.0365 144.474 34.9907L150.222 34.3301C151.401 34.1971 152.107 35.6558 151.295 36.5641L147.345 40.9542C147.089 41.2386 146.969 41.6193 147.011 42.0046L147.442 46.0782C151.942 55.0417 155.8 71.4688 150.612 95.0476C142.382 132.429 135.877 160.247 119.216 162.573C117.927 162.747 116.794 163.664 116.519 164.99L115.918 167.889C115.418 170.302 113.67 172.224 111.386 172.885L109.253 173.509C105.996 174.454 102.537 174.376 99.3715 173.133C85.7472 167.798 63.2833 157.118 59.1822 147.907L59.2418 147.834C57.7693 145.274 57.2418 142.292 57.173 139.783C57.1088 137.512 56.017 135.319 54.3747 133.815C47.8837 127.86 47.4387 116.801 48.1681 111.415L52.338 87.7079C53.6041 80.015 56.3014 75.1846 59.563 72.2946L59.5767 72.1294C59.5767 72.1294 59.5767 72.1065 59.5767 72.0973C59.5767 71.9918 59.54 71.8955 59.4666 71.8221L56.7739 68.9688C56.5262 68.7073 56.728 68.2715 57.0766 68.3036L60.907 68.6477H60.9346C61.0263 68.6477 61.1135 68.6156 61.1823 68.5559L61.2052 68.533L63.9484 65.7301C64.0585 65.6246 64.1961 65.5971 64.3154 65.6338C64.476 65.6843 64.609 65.8448 64.5906 66.0467L64.3108 69.4092C64.7604 69.244 65.242 69.0743 65.742 68.8908C66.4072 68.6522 67.1136 68.4091 67.8522 68.1706C72.1918 66.7485 77.5452 65.3907 81.5269 65.7531C82.8573 65.8815 84.0316 66.1935 84.9674 66.7623C84.9674 65.8953 84.9399 64.6292 84.8848 62.8356C84.8023 60.0052 84.6417 55.872 84.3711 49.9223C83.7655 36.6559 87.3436 30.8025 92.1511 28.3116V28.3161Z" fill="white"/>
<path d="M92.1741 28.1969C92.5915 28.0317 93.064 27.862 93.5778 27.6877C94.1054 27.4858 94.6467 27.3299 95.1971 27.1877C103.408 24.8573 118.946 23.2105 124.804 34.0411C128.047 33.298 132.955 33.2704 137.497 35.4723L137.088 31.6511C136.96 30.4309 138.368 29.6969 139.231 30.5364L143.455 34.6466C143.726 34.9081 144.098 35.0365 144.469 34.9907L150.217 34.3301C151.396 34.1971 152.103 35.6558 151.291 36.5641L147.341 40.9542C147.084 41.2386 146.965 41.6193 147.006 42.0046L147.437 46.0782C151.937 55.0417 155.795 71.4688 150.607 95.0476C142.377 132.429 135.873 160.247 119.212 162.573C117.923 162.747 116.79 163.664 116.514 164.99L115.913 167.889C115.413 170.302 113.666 172.224 111.381 172.885L109.248 173.509C105.991 174.454 102.532 174.376 99.367 173.133C85.7427 167.798 63.2787 157.118 59.1777 147.907L59.2373 147.834C57.7648 145.274 57.2372 142.292 57.1684 139.783C57.1042 137.512 56.0124 135.319 54.3702 133.815C47.8837 127.86 47.4388 116.801 48.1682 111.415L52.338 87.7079C53.6041 80.015 56.306 75.1846 59.563 72.2946L59.5768 72.1294C59.5859 72.0193 59.5447 71.9046 59.4713 71.8221L56.7785 68.9688C56.5308 68.7073 56.7326 68.2715 57.0813 68.3036L60.9117 68.6477C61.0218 68.6568 61.1319 68.6156 61.2098 68.5376L63.953 65.7347C64.2054 65.4778 64.6274 65.6889 64.5953 66.0513L64.3154 69.4137C70.0587 67.2852 80.4169 63.9824 84.972 66.7715C84.9583 64.5329 84.8161 59.6336 84.3757 49.9361C83.7702 36.6696 87.3483 30.8162 92.1558 28.3253L92.1787 28.2061L92.1741 28.1969Z" fill="#010101"/>
<path d="M150.607 95.0481C157.479 63.8453 148.497 45.1658 143.148 39.7207L59.1731 147.903C63.5081 157.646 88.3758 169.023 101.61 173.991C103.321 174.633 105.179 174.679 106.931 174.17L113.097 172.385C114.326 172.028 115.267 170.991 115.533 169.697L116.725 163.936C116.872 163.224 117.482 162.72 118.179 162.669C135.602 161.367 142.203 133.182 150.602 95.0435L150.607 95.0481Z" fill="#010101"/>
<path fill-rule="evenodd" clip-rule="evenodd" d="M143.121 39.2487C143.249 39.2396 143.378 39.2854 143.469 39.3818C148.96 44.9599 157.947 63.8275 151.052 95.1541C146.855 114.214 143.098 130.839 138.203 142.867C133.313 154.867 127.212 162.482 118.221 163.156C117.707 163.193 117.28 163.56 117.179 164.042L115.987 169.803C115.684 171.28 114.62 172.445 113.225 172.854L107.06 174.643C105.22 175.175 103.266 175.129 101.459 174.45C94.8256 171.964 85.2794 167.867 76.8388 163.17C72.6185 160.817 68.6688 158.317 65.4944 155.775C62.3292 153.252 59.8887 150.651 58.7602 148.114C58.6868 147.949 58.7098 147.757 58.8199 147.614L142.79 39.4185C142.873 39.313 142.992 39.2533 143.121 39.2441V39.2487ZM143.185 40.4368L59.7098 147.972C60.797 150.22 63.0356 152.61 66.0495 155.014C69.1688 157.509 73.0772 159.986 77.27 162.326C85.6601 166.991 95.165 171.074 101.766 173.556C103.381 174.161 105.142 174.207 106.808 173.721L112.973 171.936C114.037 171.62 114.854 170.73 115.083 169.606L116.276 163.84C116.468 162.904 117.267 162.266 118.147 162.207C126.579 161.569 132.487 154.445 137.354 142.495C142.212 130.563 145.956 114.031 150.158 94.9477C156.85 64.5523 148.424 46.1939 143.18 40.4414L143.185 40.4368Z" fill="#010101"/>
<path d="M124.799 34.0423C118.102 21.6703 98.7799 25.6613 92.1833 28.2669L85.2886 66.9745C80.16 63.2725 66.2926 68.5984 61.7512 70.392L100.817 170.427L111.234 167.927C112.037 167.734 112.693 167.124 112.964 166.308L114.647 161.298C114.9 160.542 115.533 160.009 116.285 159.853C121.281 158.835 123.909 156.789 124.629 155.83C139.699 139.601 151.607 77.5528 148.529 53.4282C146.07 34.134 131.685 32.4642 124.799 34.0423Z" fill="#C62129"/>
<path fill-rule="evenodd" clip-rule="evenodd" d="M92.587 28.6194L85.7382 67.0655C85.7106 67.2215 85.6051 67.3591 85.4629 67.4187C85.3161 67.4784 85.1556 67.4646 85.0271 67.3683C83.8574 66.5288 82.1417 66.171 80.0866 66.1756C78.0407 66.1847 75.7195 66.5517 73.3983 67.0884C69.0404 68.116 64.7375 69.7307 62.3521 70.6665L101.092 169.871L111.129 167.458C111.78 167.302 112.308 166.807 112.528 166.146L114.212 161.137C114.519 160.215 115.294 159.564 116.193 159.385C121.12 158.38 123.638 156.376 124.267 155.536C124.276 155.522 124.285 155.504 124.299 155.499C128.001 151.508 131.542 144.66 134.726 136.196C137.905 127.746 140.703 117.741 142.937 107.48C147.41 86.9423 149.603 65.4599 148.075 53.4917C146.859 43.973 142.726 38.8766 138.107 36.326C133.46 33.7571 128.258 33.7342 124.895 34.5049C124.698 34.5507 124.496 34.4544 124.395 34.2709C121.161 28.3028 114.858 26.211 108.427 25.9725C102.156 25.7385 95.899 27.3487 92.5824 28.6148L92.587 28.6194ZM125.033 33.5003C121.519 27.3395 114.918 25.2615 108.464 25.0229C101.895 24.7844 94.6696 26.4542 92.0457 27.8487C91.7475 28.0368 91.7521 27.945 91.72 28.1102L84.9583 66.2123C83.628 65.4875 81.9261 65.2168 80.0866 65.2214C77.9489 65.2306 75.5544 65.6113 73.2011 66.1572C68.4899 67.2582 63.8659 69.0472 61.5906 69.9463C61.4759 69.9922 61.3842 70.0793 61.3337 70.2032C61.2833 70.3225 61.2833 70.4601 61.3337 70.5702L100.399 170.605C100.482 170.821 100.707 170.94 100.927 170.89L111.344 168.39C112.303 168.156 113.078 167.431 113.404 166.463L115.088 161.454C115.28 160.871 115.776 160.444 116.381 160.321C121.409 159.293 124.157 157.229 124.987 156.132C128.813 152.004 132.405 145.027 135.593 136.545C138.79 128.035 141.602 117.984 143.845 107.686C148.327 87.1166 150.547 65.5104 149.002 53.3587C147.754 43.5785 143.465 38.1931 138.556 35.482C133.822 32.8672 128.574 32.7617 125.047 33.4957L125.033 33.5003Z" fill="#010101"/>
<path d="M48.1637 111.415L52.3336 87.7076C55.8658 66.2804 70.5268 67.0419 77.4123 70.1062C78.9353 67.7988 83.0134 67.941 84.8621 68.3079C85.0089 68.9685 85.1098 66.2253 84.3667 49.9266C83.44 29.5591 92.3807 26.6461 100.477 26.6094C106.955 26.5865 113.014 35.2656 115.23 39.6144C120.111 34.5042 130.983 34.4537 136.988 44.399C142.992 54.3396 142.162 60.3169 135.506 102.194C128.845 144.072 115.68 155.421 109.716 157.439C103.757 159.453 107.422 170.508 99.3258 170.545C91.2293 170.577 68.7974 156.279 62.1687 151.214C57.7603 147.843 56.9667 141.874 57.1869 138.003C57.2557 136.783 56.6823 135.599 55.7144 134.902C47.9435 129.324 47.3885 117.149 48.1637 111.415Z" fill="#EE3446"/>
<path fill-rule="evenodd" clip-rule="evenodd" d="M115.349 38.8449C114.175 36.6659 112.207 33.6704 109.776 31.1382C107.152 28.4042 103.904 26.1289 100.473 26.1426C96.3853 26.1564 91.9723 26.8995 88.7108 30.3125C85.4492 33.73 83.4445 39.7119 83.9125 49.9507C84.284 58.0977 84.4446 62.8548 84.495 65.4833C84.518 66.5934 84.518 67.3182 84.5042 67.7586C83.5501 67.6164 82.2427 67.5476 80.9582 67.7265C79.5958 67.9191 78.1692 68.4237 77.2655 69.5247C73.7378 68.043 68.3982 67.1806 63.4439 69.277C58.2924 71.4559 53.6684 76.791 51.884 87.6216L47.7141 111.333C47.7141 111.333 47.7141 111.342 47.7141 111.347C47.3196 114.269 47.2645 118.806 48.2921 123.329C49.3197 127.848 51.4436 132.417 55.4529 135.293C56.2923 135.898 56.7924 136.926 56.7327 137.976C56.5125 141.903 57.3015 148.082 61.898 151.601C65.233 154.147 72.513 159 79.9766 163.211C83.7106 165.321 87.4951 167.271 90.8622 168.693C94.2109 170.115 97.2064 171.037 99.3258 171.023C101.468 171.014 102.89 170.275 103.872 169.083C104.831 167.922 105.34 166.381 105.762 164.872C105.849 164.555 105.931 164.243 106.014 163.936C106.34 162.72 106.652 161.56 107.129 160.541C107.716 159.298 108.523 158.349 109.858 157.89C116.074 155.784 129.29 144.192 135.955 102.278C139.281 81.3508 141.162 69.3504 141.451 61.3364C141.598 57.3225 141.345 54.2903 140.666 51.6159C139.988 48.9323 138.891 46.657 137.373 44.1478C131.4 34.253 120.638 33.941 115.345 38.8449H115.349ZM109.129 31.808C106.551 29.1198 103.532 27.0739 100.482 27.0876C96.4679 27.1014 92.3668 27.8354 89.3667 30.9731C86.3667 34.1199 84.3666 39.7761 84.8299 49.9002C85.2015 58.0473 85.362 62.8135 85.4125 65.4649C85.4354 66.7815 85.4354 67.5843 85.4125 68.0201C85.4125 68.1302 85.4033 68.2219 85.3942 68.2953C85.3896 68.3549 85.3758 68.4513 85.3483 68.5338C85.3391 68.5568 85.3253 68.5935 85.2978 68.6394C85.2749 68.676 85.2152 68.7586 85.1052 68.8183C84.9675 68.8871 84.8162 68.8779 84.6969 68.8091C84.651 68.7861 84.6097 68.7586 84.5822 68.7265C83.6877 68.5751 82.3665 68.488 81.0821 68.6669C79.683 68.8687 78.4444 69.3779 77.793 70.3688C77.6691 70.5568 77.4352 70.6302 77.2334 70.5431C73.8617 69.043 68.6092 68.1164 63.788 70.1623C59.0034 72.1853 54.5308 77.1901 52.7876 87.7776V87.7867L48.6178 111.485C48.2371 114.31 48.1866 118.719 49.182 123.1C50.1775 127.494 52.2188 131.811 55.9758 134.508C57.0722 135.293 57.7282 136.637 57.6456 138.027C57.43 141.839 58.2236 147.6 62.4439 150.825C65.7376 153.344 72.9809 158.174 80.4169 162.367C84.1326 164.463 87.8851 166.395 91.2108 167.803C94.5504 169.211 97.3991 170.064 99.3258 170.055C101.234 170.046 102.39 169.404 103.184 168.445C104 167.454 104.468 166.101 104.886 164.587C104.968 164.303 105.046 164.005 105.124 163.711C105.45 162.482 105.789 161.211 106.308 160.11C106.964 158.715 107.932 157.532 109.578 156.972C115.271 155.046 128.405 143.949 135.056 102.108C138.387 81.1489 140.254 69.2265 140.543 61.2859C140.685 57.3317 140.437 54.3958 139.79 51.8407C139.144 49.2947 138.093 47.0974 136.607 44.634C130.744 34.9365 120.221 35.0603 115.565 39.9366C115.464 40.0421 115.317 40.0926 115.17 40.0697C115.024 40.0467 114.9 39.9596 114.831 39.822C113.739 37.6797 111.693 34.4686 109.129 31.7942V31.808Z" fill="#010101"/>
<path fill-rule="evenodd" clip-rule="evenodd" d="M58.7969 81.0238C58.8244 80.932 58.852 80.8494 58.8932 80.776C61.9025 74.6428 65.5356 72.184 69.1688 72.1978C72.0129 72.207 74.4579 73.7483 76.1139 75.3722C77.9122 74.0465 79.6553 73.2758 81.3251 72.9822C83.3435 72.6244 85.1601 72.9822 86.7289 73.7391C87.8299 74.2713 88.7978 74.996 89.6327 75.8218C89.44 72.6473 89.2015 68.1013 88.9217 61.9268C88.5776 54.3716 88.2611 47.2016 89.4446 41.9675C90.0456 39.3069 91.0639 36.9719 92.8071 35.3068C94.5824 33.614 96.9449 32.7837 99.8991 32.8342C105.018 32.9168 107.904 36.6325 109.399 40.6785C110.881 44.6878 111.17 49.3806 111.005 52.5045L111.459 74.0556C112.014 70.7299 112.51 67.638 112.821 65.5187C112.945 64.6655 113.065 63.5783 113.202 62.2984V62.2892C113.344 61.014 113.5 59.5781 113.698 58.0781C114.092 55.0918 114.661 51.7706 115.62 48.9264C116.556 46.1419 117.978 43.4492 120.299 42.1648C122.781 40.7932 125.744 41.2978 129.07 43.6006C132.671 46.0961 134.487 50.5045 135.249 55.7707C136.015 61.0507 135.763 67.4775 134.969 74.4226C133.877 84.0009 131.726 94.8178 129.643 105.258C128.712 109.933 127.799 114.525 127.001 118.906C123.083 140.365 111.776 150.251 105.009 153.205C104.289 153.521 103.762 154.008 103.5 154.581L99.6972 162.902C99.0688 164.274 97.5458 164.999 96.1146 164.485C92.3346 163.136 84.3023 159.907 74.1185 154.746C63.3108 149.269 60.8749 140.686 61.1272 135.677C61.1456 135.301 60.9942 134.975 60.7649 134.787C54.3977 129.663 52.9756 120.534 53.7325 108.405C54.3839 97.9555 57.384 85.7991 58.8061 81.0238H58.7969ZM111.624 81.8999C111.505 82.588 111.39 83.2715 111.276 83.9229C111.23 84.1982 111.179 84.478 111.133 84.7486C111.129 84.7853 111.124 84.8174 111.115 84.845C111.019 85.4138 110.225 85.345 110.211 84.7716L109.528 52.4816C109.863 46.5043 108.395 34.504 99.867 34.3618C89.2107 34.1875 89.6832 46.5869 90.3804 61.858C90.7291 69.4959 91.0089 74.597 91.2199 77.675C91.3484 79.5191 91.4493 80.643 91.5318 81.1338C91.1236 80.2347 90.5364 79.2072 89.7887 78.2438C87.1097 74.7896 82.3206 71.9959 75.9488 77.4181C73.0955 73.8813 65.9485 69.7482 60.196 81.4687C58.7923 86.1936 55.8289 98.2261 55.1867 108.502C54.4298 120.612 55.9298 128.97 61.6548 133.58C62.2924 134.09 62.6273 134.92 62.586 135.755C62.3612 140.172 64.4897 148.173 74.7561 153.379C84.8894 158.508 92.8668 161.723 96.5871 163.049C97.2889 163.297 98.0504 162.953 98.3669 162.256L102.17 153.934C102.624 152.943 103.468 152.228 104.44 151.801C110.721 149.067 121.725 139.622 125.556 118.626C126.368 114.185 127.285 109.557 128.221 104.873C133.304 79.3631 138.726 52.1284 128.258 44.8759C117.4 37.3481 115.629 53.5963 114.661 62.5002C114.523 63.7572 114.404 64.8673 114.276 65.7435C113.73 69.4821 112.606 76.175 111.629 81.8999H111.624Z" fill="white"/>
<path fill-rule="evenodd" clip-rule="evenodd" d="M107.523 121.6C107.629 122.004 107.399 122.426 107.009 122.536C105.395 122.999 102.996 124.086 100.913 125.953C98.8395 127.811 97.1055 130.403 96.7201 133.894C96.6743 134.311 96.3119 134.614 95.9082 134.559C95.5045 134.513 95.2155 134.132 95.2614 133.72C95.7018 129.756 97.6743 126.834 99.9542 124.797C102.225 122.761 104.826 121.577 106.62 121.068C107.009 120.958 107.413 121.196 107.523 121.6Z" fill="white"/>
<path fill-rule="evenodd" clip-rule="evenodd" d="M75.9993 75.777C76.403 75.7999 76.7103 76.1669 76.6828 76.5843L75.4809 96.0758C75.3525 98.3373 75.5543 101.709 76.5544 104.471C77.5544 107.237 79.2471 109.195 82.0454 109.182C83.9262 109.173 85.3757 108.64 86.5088 107.783C87.651 106.906 88.5135 105.663 89.1648 104.163C90.4768 101.136 90.8621 97.218 90.9539 93.6904C91.0273 90.9105 90.7566 87.5847 90.4493 84.5662C90.3392 83.4974 90.2245 82.4561 90.1144 81.4882C89.9218 79.7863 89.7612 78.3367 89.7107 77.3963C89.6878 76.9789 89.9997 76.6165 90.4034 76.5935C90.8071 76.5706 91.1557 76.8917 91.1787 77.3137C91.2245 78.2037 91.3805 79.5753 91.564 81.2313C91.6741 82.2038 91.7934 83.268 91.908 84.4057C92.22 87.4241 92.4952 90.8417 92.4218 93.7225C92.3301 97.2868 91.9402 101.466 90.5043 104.778C89.7795 106.448 88.7749 107.929 87.3758 109.003C85.9721 110.072 84.2106 110.695 82.0454 110.705C78.3618 110.718 76.2745 108.044 75.1736 105.003C74.0772 101.97 73.8708 98.3648 74.0084 95.9794V95.9703L75.2103 76.4788C75.2378 76.0614 75.5864 75.7357 75.9901 75.7678L75.9993 75.777Z" fill="white"/>
<path d="M98.9955 106.507C99.0139 110.709 96.6973 114.126 93.8302 114.14C90.9632 114.149 88.6236 110.755 88.6053 106.543C88.5915 102.341 90.9035 98.9239 93.7706 98.9102C96.6376 98.901 98.9772 102.296 98.9955 106.507Z" fill="#EE3446"/>
<path fill-rule="evenodd" clip-rule="evenodd" d="M95.2156 95.8318C98.6927 95.0611 103.542 95.9602 109.968 98.4832C115.313 100.589 119.092 105.121 121.648 109.814C124.207 114.525 125.593 119.493 126.116 122.622C126.184 123.039 125.918 123.429 125.515 123.507C125.116 123.58 124.735 123.296 124.666 122.883C124.171 119.897 122.836 115.103 120.368 110.571C117.9 106.034 114.345 101.837 109.445 99.9145C103.069 97.4052 98.5597 96.6483 95.5183 97.3227C94.0229 97.6529 92.8898 98.3273 92.0503 99.2998C91.2017 100.291 90.6007 101.63 90.2521 103.369C89.5594 106.837 90.165 109.539 91.9448 111.805C93.7614 114.121 96.8578 116.053 101.298 117.791C108.61 120.654 112.959 125.282 114.262 127.333C114.487 127.686 114.39 128.158 114.056 128.388C113.716 128.622 113.262 128.521 113.037 128.172C111.913 126.397 107.817 121.97 100.785 119.222C96.2615 117.456 92.8715 115.401 90.8072 112.773C88.7062 110.098 88.041 106.915 88.8117 103.066C89.197 101.148 89.8851 99.5291 90.954 98.286C92.0274 97.0428 93.4495 96.2263 95.211 95.8364L95.2156 95.8318Z" fill="white"/>
<path fill-rule="evenodd" clip-rule="evenodd" d="M57.8199 87.364C58.2236 87.4329 58.4989 87.8228 58.4346 88.231C58.0998 90.5247 58.0539 93.7496 58.82 96.5432C59.586 99.3277 61.109 101.548 63.8385 102.19C66.6918 102.865 68.6918 102.484 70.2194 101.589C71.7699 100.681 72.9167 99.1855 73.9535 97.4469C74.1691 97.0891 74.6186 96.9744 74.9627 97.1992C75.3067 97.424 75.4122 97.8873 75.2012 98.2497C74.1232 100.062 72.8112 101.823 70.9396 102.915C69.0405 104.03 66.6505 104.42 63.5128 103.681C60.054 102.865 58.2511 100.034 57.4071 96.9607C56.563 93.8918 56.6272 90.4375 56.985 88.0017C57.0447 87.5842 57.4208 87.2998 57.8199 87.3595V87.364Z" fill="white"/>
<path d="M64.2879 65.3864C64.4209 65.2534 64.6503 65.3635 64.632 65.5607L64.2558 70.1159C64.2512 70.1756 64.2696 70.2352 64.3154 70.2811L67.3981 73.5472C67.5311 73.6803 67.4256 73.9234 67.233 73.905L62.8521 73.5059C62.7924 73.4968 62.7328 73.5197 62.6915 73.5656L59.5492 76.7629C59.4162 76.9051 59.1868 76.795 59.2052 76.5978L59.5813 72.0426C59.5859 71.983 59.5676 71.9233 59.5263 71.8775L56.4436 68.6113C56.3106 68.4691 56.4161 68.2351 56.6042 68.2535L60.9851 68.6526C61.0447 68.6526 61.1043 68.6296 61.1456 68.5929L64.2833 65.3864H64.2879Z" fill="#FEE200"/>
<path fill-rule="evenodd" clip-rule="evenodd" d="M61.1457 68.5937C61.1044 68.6304 61.0448 68.6533 60.9851 68.6533L56.6043 68.2542C56.4162 68.2404 56.3107 68.4698 56.4437 68.612L59.5264 71.8782C59.5677 71.924 59.5906 71.9837 59.5814 72.0433L59.2053 76.5985C59.1869 76.7912 59.4163 76.9058 59.5493 76.7636L62.6916 73.5663C62.7329 73.5204 62.7925 73.4975 62.8522 73.5067L67.233 73.9057C67.4211 73.9195 67.5266 73.681 67.3982 73.5479L64.3155 70.2818C64.2742 70.2359 64.2513 70.1763 64.2559 70.1166L64.632 65.5615C64.6504 65.3688 64.421 65.2541 64.288 65.3871L61.1503 68.5937H61.1457ZM65.1963 69.8506L65.5449 65.6394C65.6321 64.5614 64.3843 63.9467 63.6458 64.7128L60.7374 67.6716L56.6823 67.3046C55.6455 67.2129 55.0584 68.5111 55.7877 69.2818L58.6364 72.3002L58.2878 76.5159C58.1961 77.5939 59.4438 78.1995 60.187 77.4426L63.0953 74.4837L67.1505 74.8416C68.1872 74.9379 68.7744 73.6443 68.045 72.8736L65.1963 69.846V69.8506Z" fill="#010101"/>
<path d="M137.653 31.2016C137.593 30.642 138.24 30.3025 138.639 30.6833L143.414 35.3256C143.538 35.4449 143.708 35.5045 143.882 35.4907L150.382 34.743C150.924 34.6834 151.249 35.3577 150.878 35.7706L146.41 40.7386C146.295 40.8671 146.235 41.046 146.254 41.2203L146.969 47.9774C147.029 48.537 146.382 48.8765 145.983 48.4957L141.208 43.8534C141.084 43.7249 140.914 43.6745 140.74 43.6882L134.24 44.436C133.698 44.4956 133.373 43.8213 133.744 43.4084L138.212 38.4404C138.327 38.3119 138.386 38.133 138.368 37.9587L137.648 31.2016H137.653Z" fill="#FEE200"/>
<path fill-rule="evenodd" clip-rule="evenodd" d="M143.882 34.6701L139.171 30.092C138.24 29.1837 136.731 29.9727 136.873 31.2892L137.579 37.95L133.171 42.8492C132.299 43.8171 133.056 45.3814 134.322 45.2392L140.735 44.5052L145.446 49.0834C146.378 49.9916 147.887 49.2026 147.745 47.8861L147.038 41.2253L151.447 36.3261C152.318 35.3582 151.561 33.7939 150.295 33.9361L143.882 34.6701ZM138.634 30.6837C138.235 30.303 137.588 30.6378 137.648 31.2021L138.368 37.9592C138.387 38.1335 138.332 38.3124 138.212 38.4408L133.744 43.4089C133.373 43.8217 133.694 44.4961 134.24 44.4364L140.74 43.6887C140.91 43.6749 141.079 43.7254 141.208 43.8538L145.983 48.4962C146.382 48.8769 147.029 48.5421 146.969 47.9778L146.254 41.2207C146.235 41.0464 146.291 40.8675 146.41 40.7391L150.878 35.771C151.249 35.3582 150.928 34.6838 150.382 34.7435L143.882 35.4912C143.712 35.505 143.543 35.4453 143.414 35.3261L138.639 30.6837H138.634Z" fill="#010101"/>
<path fill-rule="evenodd" clip-rule="evenodd" d="M143.882 34.6708L150.295 33.9368C151.561 33.7946 152.318 35.3589 151.447 36.3268L147.038 41.226L147.745 47.8868C147.887 49.2033 146.378 49.9924 145.446 49.0841L140.735 44.506L134.322 45.2399C133.056 45.3821 132.299 43.8179 133.171 42.8499L137.579 37.9507L136.873 31.29C136.731 29.9734 138.24 29.1844 139.171 30.0927L143.882 34.6708ZM137.033 37.781L136.35 31.345C136.166 29.6018 138.212 28.4321 139.533 29.7211L144.066 34.1249L150.231 33.423C152.029 33.212 152.988 35.391 151.832 36.68L147.58 41.4004L148.263 47.8363C148.447 49.5795 146.396 50.7493 145.075 49.4602L140.543 45.0564L134.377 45.7583C132.579 45.9693 131.62 43.7903 132.776 42.5013L137.029 37.781H137.033Z" fill="#010101"/>
<path d="M106.578 161.549C106.606 161.458 106.652 161.375 106.716 161.293L108.12 158.655L113.046 155.769L115.753 153.719C112.473 160.077 123.193 157.627 130.561 147.824L129.73 154.026L118.459 160.939L113.647 163.059C113.725 158.903 107.776 159.866 106.707 161.293L106.569 161.549H106.578Z" fill="#010101"/>
</g>
<defs>
<clipPath id="clip0_2458_1010">
<rect width="106.104" height="150" fill="white" transform="translate(47.448 25)"/>
</clipPath>
</defs>
</svg>
