<svg width="201" height="200" viewBox="0 0 201 200" fill="none" xmlns="http://www.w3.org/2000/svg">
<g clip-path="url(#clip0_2458_898)">
<path d="M154.739 80.5106C168.935 117.955 161.837 156.418 131.003 168.109C100.168 179.799 58.0202 173.471 39.2688 124.023C21.6165 77.4579 48.0605 42.3602 78.8951 30.6699C109.73 18.9795 140.543 43.0716 154.739 80.5159V80.5106Z" fill="black"/>
<path d="M157.229 78.965C171.277 116.011 164.051 154.14 133.217 165.831C102.382 177.521 60.3085 171.4 41.7643 122.483C24.2924 76.4114 50.8267 41.5473 81.6613 29.8569C112.496 18.1665 143.182 41.9242 157.229 78.965Z" fill="#D13727"/>
<path d="M63.5415 145.658C57.9246 139.303 54.4313 147.362 59.1085 151.567L49.2073 143.141L43.8877 127.92C47.7314 136.346 53.3855 132.136 50.9805 125.701L63.5415 145.652V145.658Z" fill="black"/>
<path d="M161.821 76.8254C175.933 114.047 162.374 153.7 131.528 165.39C100.689 177.086 64.2477 156.391 50.1311 119.17C36.0251 81.9539 49.5896 42.3011 80.4295 30.6054C111.269 18.9097 147.71 39.6042 161.827 76.8254H161.821Z" fill="#EE4323"/>
<path d="M116.371 49.5655L82.6222 60.0029C81.3905 60.3852 80.6419 61.6328 80.8861 62.8963L96.6644 145.233C96.9564 146.746 98.5916 147.58 99.9879 146.927L109.544 142.43C110.452 142 110.956 141.013 110.765 140.025L104.182 106.345L123.984 98.4241C124.988 98.0259 125.545 96.9535 125.306 95.9023L122.838 85.0083C122.519 83.6067 121.038 82.8103 119.695 83.32L101.177 90.3438L97.5776 72.0437L120.608 64.3191C121.579 63.9953 122.153 62.9972 121.946 61.9938L119.812 51.5988C119.493 50.038 117.895 49.093 116.371 49.5655Z" fill="black"/>
<path d="M117.555 48.9756L83.806 59.4131C82.5743 59.7953 81.8258 61.043 82.07 62.3065L97.8483 144.644C98.1403 146.157 99.7754 146.99 101.172 146.337L110.728 141.84C111.636 141.41 112.14 140.423 111.949 139.435L105.366 105.755L125.168 97.8342C126.172 97.436 126.729 96.3636 126.49 95.3124L124.022 84.4184C123.703 83.0168 122.222 82.2205 120.879 82.7302L102.361 89.7539L98.7614 71.4539L121.792 63.7293C122.763 63.4055 123.337 62.4074 123.13 61.404L120.995 51.009C120.677 49.4481 119.079 48.5031 117.555 48.9756Z" fill="#C1C1C1"/>
<path d="M123.937 46.7139L90.1874 57.1514C88.9557 57.5336 88.2071 58.7812 88.4513 60.0448L104.23 142.382C104.522 143.895 106.157 144.728 107.553 144.075L117.109 139.579C118.017 139.149 118.521 138.161 118.33 137.174L111.747 103.493L131.55 95.5725C132.553 95.1743 133.11 94.1019 132.872 93.0507L130.403 82.1567C130.084 80.7551 128.603 79.9588 127.26 80.4684L108.742 87.4922L105.143 69.1922L128.173 61.4676C129.145 61.1437 129.718 60.1456 129.511 59.1423L127.377 48.7473C127.058 47.1864 125.46 46.2414 123.937 46.7139Z" fill="white"/>
<path fill-rule="evenodd" clip-rule="evenodd" d="M57.3194 153.562C55.817 152.006 54.357 150.35 52.9448 148.582C51.6123 146.92 50.3222 145.158 49.0746 143.305C49.0534 143.273 49.0321 143.246 49.0162 143.215C47.3492 140.725 45.7671 138.054 44.2753 135.203C43.256 133.25 42.2738 131.211 41.3447 129.087C41.3129 129.008 41.2757 128.928 41.2438 128.854C41.2332 128.832 41.2279 128.817 41.2173 128.795C40.5484 127.25 39.9007 125.663 39.2795 124.023C39.2105 123.847 39.1468 123.672 39.0831 123.497C27.3715 92.0943 35.7278 65.9476 51.9043 48.7358C59.5811 40.5706 69.0151 34.4122 78.9005 30.6641C79.357 30.4889 79.8136 30.3243 80.2702 30.1703C80.7214 30.0164 81.1674 29.8677 81.6187 29.7297C82.3248 29.512 83.0308 29.3103 83.7316 29.1245C92.7781 26.1567 101.782 26.1939 110.324 28.6891C116.546 30.0907 122.646 32.5488 128.407 35.9518C135.93 40.3954 142.879 46.4371 148.777 53.8165C154.097 60.4687 158.562 68.2039 161.832 76.8257C164.794 84.6405 166.541 92.5668 167.157 100.318C167.789 108.218 167.253 115.937 165.644 123.178C164.226 129.576 161.975 135.601 158.96 141.048C156.343 147.026 152.722 152.319 148.066 156.667C144.132 160.947 139.338 164.461 133.668 167.015C133.238 167.206 132.803 167.397 132.367 167.577C131.921 167.763 131.47 167.938 131.013 168.114C124.802 170.466 118.139 172.09 111.296 172.78C92.7304 174.644 72.8801 169.627 57.3938 153.636C57.3938 153.636 57.3832 153.625 57.3778 153.62C57.3619 153.604 57.346 153.583 57.3248 153.567L57.3194 153.562Z" fill="white"/>
<path d="M154.739 80.5106C168.935 117.955 161.837 156.418 131.003 168.109C100.168 179.799 58.0202 173.471 39.2688 124.023C21.6165 77.4579 48.0605 42.3602 78.8951 30.6699C109.73 18.9795 140.543 43.0716 154.739 80.5159V80.5106Z" fill="black"/>
<path fill-rule="evenodd" clip-rule="evenodd" d="M161.561 134.408C157.59 150.653 147.747 163.745 131.661 169.845C115.904 175.818 97.1845 177.22 79.9516 170.732C62.6655 164.223 47.0784 149.852 37.5381 124.682C28.5341 100.93 30.7426 79.9644 39.2529 63.4216C47.7367 46.9213 62.4319 34.9283 78.2368 28.9344C94.323 22.8344 110.367 26.1154 124.112 35.6397C137.819 45.1428 149.271 60.8627 156.475 79.8529C163.674 98.8431 165.522 118.21 161.561 134.408ZM131.008 168.109C161.843 156.419 168.941 117.955 154.745 80.5112C140.543 43.067 109.73 18.9801 78.8951 30.6705C48.0605 42.3609 21.6165 77.4585 39.2742 124.024C58.0202 173.471 100.174 179.8 131.008 168.109Z" fill="black"/>
<path d="M157.229 78.965C171.277 116.011 164.051 154.14 133.217 165.831C102.382 177.521 60.3085 171.4 41.7643 122.483C24.2924 76.4114 50.8267 41.5473 81.6613 29.8569C112.496 18.1665 143.182 41.9242 157.229 78.965Z" fill="#D13727"/>
<path fill-rule="evenodd" clip-rule="evenodd" d="M163.849 132.352C159.82 148.465 149.945 161.467 133.87 167.561C118.118 173.534 99.4196 174.989 82.2345 168.618C64.9909 162.231 49.4674 148.04 40.0227 123.13C31.1143 99.6275 33.3971 78.8429 41.9499 62.4169C50.4867 46.0387 65.2032 34.1094 81.0028 28.1209C97.0784 22.0261 113.09 25.2115 126.787 34.6031C140.447 43.9682 151.835 59.5129 158.96 78.3067C166.085 97.1005 167.863 116.287 163.849 132.352ZM133.211 165.831C164.046 154.14 171.271 116.011 157.224 78.965C143.182 41.9189 112.496 18.1665 81.6611 29.8569C50.8265 41.5473 24.2922 76.4114 41.7588 122.483C60.3084 171.4 102.377 177.521 133.211 165.831Z" fill="black"/>
<path d="M63.5415 145.658C57.9246 139.303 54.4313 147.362 59.1085 151.567L49.2073 143.141L43.8877 127.92C47.7314 136.346 53.3855 132.136 50.9805 125.701L63.5415 145.652V145.658Z" fill="black"/>
<path d="M161.821 76.8254C175.933 114.047 162.374 153.7 131.528 165.39C100.689 177.086 64.2477 156.391 50.1311 119.17C36.0251 81.9539 49.5896 42.3011 80.4295 30.6054C111.269 18.9097 147.71 39.6042 161.827 76.8254H161.821Z" fill="#EE4323"/>
<path fill-rule="evenodd" clip-rule="evenodd" d="M163.558 76.1686C177.913 114.027 164.28 154.959 132.187 167.127C100.094 179.296 62.7506 157.688 48.4004 119.83C34.0502 81.9713 47.6784 41.039 79.7712 28.8708C111.864 16.7027 149.207 38.3102 163.558 76.1686ZM131.534 165.391C162.374 153.696 175.938 114.048 161.827 76.8269C147.71 39.6056 111.269 18.9165 80.4295 30.6069C49.5896 42.3026 36.0252 81.9554 50.1365 119.171C64.2477 156.393 100.689 177.087 131.534 165.391Z" fill="black"/>
<path d="M116.371 49.5655L82.6222 60.0029C81.3905 60.3852 80.6419 61.6328 80.8861 62.8963L96.6644 145.233C96.9564 146.746 98.5916 147.58 99.9879 146.927L109.544 142.43C110.452 142 110.956 141.013 110.765 140.025L104.182 106.345L123.984 98.4241C124.988 98.0259 125.545 96.9535 125.306 95.9023L122.838 85.0083C122.519 83.6067 121.038 82.8103 119.695 83.32L101.177 90.3438L97.5776 72.0437L120.608 64.3191C121.579 63.9953 122.153 62.9972 121.946 61.9938L119.812 51.5988C119.493 50.038 117.895 49.093 116.371 49.5655Z" fill="black"/>
<path fill-rule="evenodd" clip-rule="evenodd" d="M82.3248 59.036L116.074 48.5986C118.171 47.9509 120.364 49.2516 120.804 51.3964L122.939 61.7914C123.246 63.2939 122.386 64.791 120.932 65.2794L98.7455 72.7226L101.942 88.9734L119.339 82.3743C121.256 81.647 123.374 82.7831 123.825 84.7846L126.294 95.6786C126.644 97.2129 125.821 98.7791 124.356 99.3631L105.329 106.976L111.753 139.833C112.034 141.277 111.301 142.722 109.969 143.348L100.413 147.845C98.4217 148.784 96.0751 147.59 95.661 145.424L79.8827 63.0868C79.5429 61.3136 80.5888 59.5669 82.3142 59.036H82.3248ZM104.182 106.35L110.765 140.03C110.956 141.017 110.457 142.01 109.544 142.435L99.9878 146.932C98.5916 147.59 96.9511 146.751 96.6644 145.238L80.8861 62.901C80.6419 61.6321 81.3905 60.3898 82.6221 60.0076L116.371 49.5701C117.895 49.0976 119.493 50.0426 119.812 51.6035L121.946 61.9985C122.153 63.0019 121.579 63.9999 120.608 64.3238L97.5775 72.0484L101.177 90.3484L119.695 83.3246C121.038 82.815 122.519 83.6113 122.838 85.0129L125.306 95.9069C125.545 96.9581 124.983 98.0252 123.984 98.4287L104.182 106.35Z" fill="black"/>
<path d="M117.555 48.9756L83.806 59.4131C82.5743 59.7953 81.8258 61.043 82.07 62.3065L97.8483 144.644C98.1403 146.157 99.7754 146.99 101.172 146.337L110.728 141.84C111.636 141.41 112.14 140.423 111.949 139.435L105.366 105.755L125.168 97.8342C126.172 97.436 126.729 96.3636 126.49 95.3124L124.022 84.4184C123.703 83.0168 122.222 82.2205 120.879 82.7302L102.361 89.7539L98.7614 71.4539L121.792 63.7293C122.763 63.4055 123.337 62.4074 123.13 61.404L120.995 51.009C120.677 49.4481 119.079 48.5031 117.555 48.9756Z" fill="#C1C1C1"/>
<path fill-rule="evenodd" clip-rule="evenodd" d="M83.6307 58.8508L117.38 48.4134C119.238 47.84 121.186 48.992 121.574 50.8927L123.708 61.2876C123.974 62.583 123.23 63.8731 121.978 64.2925L99.4409 71.8525L102.807 88.9581L120.671 82.1838C122.349 81.5467 124.202 82.5448 124.6 84.2915L127.069 95.1855C127.371 96.518 126.66 97.8771 125.386 98.3868L106.035 106.127L112.522 139.33C112.766 140.583 112.129 141.841 110.977 142.382L101.421 146.879C99.6745 147.702 97.6252 146.656 97.2642 144.761L81.4859 62.4238C81.1886 60.8629 82.1124 59.3233 83.6307 58.8561V58.8508ZM105.36 105.756L111.944 139.436C112.135 140.423 111.636 141.411 110.722 141.841L101.166 146.338C99.77 146.996 98.1296 146.157 97.8429 144.644L82.0646 62.307C81.8204 61.0381 82.5689 59.7958 83.8006 59.4136L117.55 48.9761C119.073 48.5036 120.672 49.4486 120.99 51.0095L123.124 61.4044C123.331 62.4078 122.758 63.4059 121.786 63.7298L98.756 71.4543L102.356 89.7544L120.873 82.7306C122.216 82.221 123.698 83.0173 124.016 84.4189L126.485 95.3129C126.724 96.3641 126.161 97.4312 125.163 97.8347L105.36 105.756Z" fill="black"/>
<path d="M123.937 46.7139L90.1874 57.1514C88.9557 57.5336 88.2071 58.7812 88.4513 60.0448L104.23 142.382C104.522 143.895 106.157 144.728 107.553 144.075L117.109 139.579C118.017 139.149 118.521 138.161 118.33 137.174L111.747 103.493L131.55 95.5725C132.553 95.1743 133.11 94.1019 132.872 93.0507L130.403 82.1567C130.084 80.7551 128.603 79.9588 127.26 80.4684L108.742 87.4922L105.143 69.1922L128.173 61.4676C129.145 61.1437 129.718 60.1456 129.511 59.1423L127.377 48.7473C127.058 47.1864 125.46 46.2414 123.937 46.7139Z" fill="white"/>
<path fill-rule="evenodd" clip-rule="evenodd" d="M90.0121 56.5891L123.761 46.1516C125.619 45.5783 127.568 46.7303 127.955 48.6309L130.09 59.0259C130.355 60.3213 129.612 61.6114 128.359 62.0308L105.822 69.5908L109.188 86.6963L127.053 79.9221C128.73 79.285 130.583 80.2831 130.981 82.0297L133.45 92.9238C133.753 94.2563 133.041 95.6154 131.767 96.1251L112.421 103.866L118.909 137.068C119.153 138.321 118.516 139.579 117.359 140.121L107.802 144.617C106.056 145.44 104.007 144.394 103.646 142.499L87.8672 60.162C87.5699 58.6012 88.4937 57.0616 90.0121 56.5944V56.5891ZM111.747 103.499L118.33 137.179C118.521 138.167 118.022 139.154 117.109 139.584L107.553 144.081C106.157 144.739 104.516 143.901 104.23 142.388L88.4512 60.0506C88.207 58.7817 88.9556 57.5394 90.1873 57.1572L123.936 46.7197C125.46 46.2472 127.058 47.1922 127.377 48.753L129.511 59.148C129.718 60.1514 129.145 61.1495 128.173 61.4734L105.143 69.1979L108.742 87.498L127.26 80.4742C128.603 79.9646 130.084 80.7609 130.403 82.1625L132.871 93.0565C133.11 94.1077 132.548 95.1748 131.55 95.5783L111.747 103.499Z" fill="black"/>
</g>
<defs>
<clipPath id="clip0_2458_898">
<rect width="137.508" height="150" fill="white" transform="translate(31.7461 25)"/>
</clipPath>
</defs>
</svg>
