<svg width="201" height="200" viewBox="0 0 201 200" fill="none" xmlns="http://www.w3.org/2000/svg">
<g clip-path="url(#clip0_2458_1132)">
<path fill-rule="evenodd" clip-rule="evenodd" d="M32.6659 1.54805V1.57618L83.8675 34.8223C84.171 35.0192 84.4296 35.2443 84.6432 35.5032C91.5289 40.8998 85.9191 45.8687 81.6359 48.4122L75.2168 52.0587C76.7513 52.115 78.3589 52.4977 80.1183 53.0998C80.5286 53.2461 80.9164 53.3924 81.2931 53.55C84.4127 54.8893 86.1833 56.7969 87.0995 58.125C87.6616 58.0574 88.1675 58.125 88.6228 58.3444C100.27 57.5003 110.37 63.9605 111.382 69.7003C119.032 71.6755 124.929 75.2826 126.941 79.8295C129.493 80.9718 131.522 82.2436 133.085 83.6391C133.63 83.8417 134.097 84.1006 134.468 84.4326C139.189 88.5855 138.593 96.6326 135.878 105.265L172.522 132.777C173.472 133.48 174.017 134.465 174.18 135.489C177.114 140.987 171.791 145.174 167.412 147.267L147.986 156.845C147.632 157.019 147.536 157.475 147.784 157.785L154.731 166.242L173.511 188.774C175.298 190.935 174.573 193.501 172.887 194.868C169.447 200.569 160.813 199.961 156.097 196.084C142.545 185.566 113.608 163.057 106.284 157.205C103.468 154.937 102.85 152.613 103.44 150.446C104.064 148.139 106.07 146.035 108.201 144.437C105.396 145.506 102.653 146.226 100.314 146.811C99.9154 146.913 99.5275 147.003 99.1622 147.098L98.8924 147.155C85.4638 154.031 75.4585 150.323 61.9287 145.303L61.8332 145.269C61.2767 145.061 60.7259 144.853 60.1469 144.65C42.1541 138.005 43.0647 129.125 44.4419 123.79C44.6217 123.666 44.7904 123.548 44.9702 123.435L45.122 121.562C45.167 121.134 45.1613 120.706 45.0995 120.284C44.8353 118.528 44.3238 116.998 43.8067 115.411C42.452 111.325 40.9906 106.891 43.2839 97.578C43.9922 94.708 43.4863 91.9056 42.986 89.182C42.3565 85.7438 41.7438 82.4124 43.6099 79.1486C43.9753 78.5183 44.4981 77.9668 45.1445 77.4604C46.2968 76.5487 47.8088 75.8116 49.3546 75.1194C47.91 74.1403 46.5329 73.2061 45.2457 72.3283C41.429 69.7284 38.3543 67.6351 36.6343 66.4309C30.8391 62.4017 28.8605 53.0716 31.3731 49.5602C31.6766 48.9131 32.1769 48.3503 32.857 47.9452L47.4828 39.2847C46.6059 38.1705 45.7066 37.0226 44.8128 35.8746C39.4448 28.9474 34.0374 21.7501 32.531 19.2797C28.2028 12.1611 26.5334 7.91815 27.1123 5.05948C27.0055 3.86649 27.5283 2.70164 28.3827 1.91945C29.2034 1.17102 30.3444 0.771478 31.508 1.04159C31.5585 1.04159 31.6091 1.05847 31.6485 1.07535C31.997 1.16539 32.3342 1.31733 32.6715 1.53116L32.6659 1.54805ZM29.3101 23.8997L18.6809 15.2505H18.6696C18.2143 14.8735 17.6016 15.4306 17.9164 15.9314L22.4076 22.7574C22.475 22.8586 22.4975 22.9824 22.4919 23.1006C22.4694 23.2751 22.3626 23.4326 22.1827 23.5114L18.5235 25.0871C18.175 25.2334 18.1075 25.7061 18.3998 25.9424L29.1303 34.9799L29.2202 35.0474C29.6924 35.4469 30.3332 34.8335 29.9566 34.3496L24.6672 27.473C24.5773 27.3661 24.5492 27.2311 24.5604 27.1016C24.5829 26.9272 24.6897 26.7696 24.8583 26.6852L29.1977 24.755C29.5462 24.5975 29.6024 24.136 29.3101 23.8997ZM34.8131 77.9668C35.3808 77.708 35.4932 76.937 34.9986 76.5431L17.4499 62.261H17.4386C16.691 61.6476 15.6624 62.5705 16.202 63.3809L23.6048 74.658C23.8971 75.0969 23.7229 75.6934 23.2395 75.896L18.7427 77.8318H18.7314L17.1913 78.5014C16.618 78.749 16.4999 79.52 16.9833 79.9195L34.7007 94.8319L34.8524 94.9557C35.6225 95.6028 36.6849 94.5955 36.061 93.7852L35.9485 93.6389L27.3259 82.4462C26.9887 82.0185 27.1517 81.3882 27.6576 81.1631L34.8019 77.9725L34.8131 77.9668ZM175.068 180.204L183.533 187.322L183.601 187.384C183.972 187.694 184.478 187.215 184.18 186.827L184.123 186.759L180.014 181.408C179.941 181.312 179.919 181.2 179.936 181.087C179.947 181.003 179.986 180.93 180.043 180.868C180.082 180.834 180.121 180.811 180.166 180.795L183.578 179.264C183.612 179.253 183.651 179.219 183.691 179.196C183.691 179.185 183.707 179.18 183.707 179.168C183.854 179.005 183.848 178.735 183.668 178.583L180.627 176.113H180.616L175.282 171.774V171.763C174.911 171.476 174.433 171.92 174.686 172.303L174.753 172.415L177.755 176.979H177.766L178.221 177.688C178.362 177.896 178.278 178.183 178.047 178.285L175.9 179.202H175.889L175.152 179.523C175.012 179.579 174.922 179.72 174.905 179.855C174.905 179.855 174.905 179.866 174.911 179.866C174.905 179.979 174.944 180.108 175.046 180.198L175.068 180.204ZM172.651 175.156H172.64C172.64 175.156 172.606 175.122 172.584 175.117C172.606 175.117 172.628 175.139 172.651 175.156ZM143.377 98.6809L161.246 113.717C162.016 114.364 163.078 113.357 162.455 112.547L153.725 101.208C153.388 100.78 153.551 100.15 154.057 99.9246L161.201 96.7339C161.769 96.475 161.881 95.7041 161.387 95.3102L143.832 81.0393V81.0281C143.073 80.426 142.05 81.3376 142.584 82.1479L149.987 93.425C150.279 93.864 150.105 94.4604 149.622 94.663L145.125 96.5988H145.114L143.579 97.2685C143.006 97.5161 142.888 98.287 143.371 98.6865L143.377 98.6809ZM145.266 101.219H145.277C145.277 101.219 145.266 101.208 145.266 101.219ZM120.207 138.325L116.143 140.233C117.397 139.304 118.56 138.263 119.606 137.059C120.252 136.322 120.854 135.523 121.399 134.662C121.41 134.656 121.416 134.634 121.433 134.617C121.871 133.919 122.354 133.148 122.877 132.287C123.203 131.764 123.54 131.207 123.878 130.633C124.086 130.931 124.299 131.224 124.507 131.511C124.805 131.927 125.092 132.332 125.373 132.737C125.794 133.328 126.205 133.902 126.593 134.454C126.609 134.476 126.626 134.493 126.638 134.521C126.806 134.769 126.784 135.084 126.581 135.287L120.207 138.325Z" fill="white"/>
<path d="M32.5253 19.2956C28.0623 11.9632 26.4378 7.67522 27.1629 4.81092C27.2528 4.47329 27.6294 4.35511 27.9049 4.54081L51.3107 20.8375C51.3107 20.8375 51.3781 20.8769 51.4006 20.8938C58.4718 23.7468 70.7537 26.7799 82.9119 34.298C92.3664 40.156 86.2283 45.682 81.6303 48.4113L67.5891 56.3795C67.2855 56.5596 67.2124 56.9648 67.4373 57.2236L92.3326 86.5757C93.7885 88.1569 95.3736 90.6161 94.0639 93.3734C91.5513 98.6575 84.1991 98.8319 80.0339 95.8326C68.2186 87.8924 43.0085 70.8811 36.6286 66.4355C30.2994 62.035 28.5232 51.3037 32.1881 48.7489C32.2555 48.7039 32.3342 48.6701 32.4129 48.6701L51.8896 46.2166C52.3168 46.166 52.5136 45.6539 52.2606 45.3219C45.7009 37.1679 34.7737 22.9759 32.5253 19.29V19.2956Z" fill="#D2B42B"/>
<path fill-rule="evenodd" clip-rule="evenodd" d="M27.8486 5.49179L50.8497 21.5015C50.9227 21.5521 51.007 21.6028 51.1026 21.6422C53.025 22.4187 55.2902 23.1953 57.8028 24.0675C64.7504 26.4479 73.6259 29.4979 82.4902 34.9957C84.7836 36.4082 86.0314 37.7588 86.6216 38.9574C87.195 40.1222 87.1781 41.2139 86.7846 42.2437C86.3799 43.3129 85.5817 44.3483 84.5475 45.2937C83.5413 46.2278 82.3441 47.0494 81.2255 47.7247L67.1955 55.6817C66.4704 56.1038 66.268 57.0942 66.8189 57.7526L91.7199 87.1102L91.7367 87.1271C93.1588 88.6915 94.4011 90.7736 93.3275 93.0358C92.2201 95.3767 90.0392 96.6147 87.5716 96.9186C85.0815 97.2281 82.4059 96.5641 80.4948 95.1966V95.1854H80.4779C68.6626 87.234 43.4524 70.2339 37.0839 65.794C34.1272 63.74 32.188 60.161 31.4404 56.7453C31.0694 55.0458 31.0019 53.442 31.2324 52.1309C31.4572 50.8535 31.9407 49.9531 32.5814 49.4692L51.9851 47.0438C53.0418 46.9087 53.5365 45.6595 52.8732 44.8379C46.3079 36.6727 35.42 22.52 33.2054 18.8848C30.9907 15.2383 29.4955 12.374 28.6468 10.1062C27.9104 8.11411 27.6856 6.63413 27.8486 5.50305V5.49179ZM26.3815 4.6083C26.6232 3.6798 27.6631 3.39281 28.3713 3.88238L51.7434 20.1565C53.5534 20.8825 55.7231 21.6309 58.1738 22.4694C65.1382 24.8666 74.306 28.0235 83.3333 33.6171C85.7729 35.1252 87.2905 36.6671 88.0718 38.2371C88.8532 39.8352 88.8251 41.3884 88.2911 42.8121C87.7739 44.202 86.7734 45.44 85.6492 46.4754C84.5194 47.5165 83.2209 48.4112 82.0461 49.109H82.0349L68.2579 56.9366L92.9396 86.041C94.4179 87.6617 96.3291 90.481 94.7889 93.7223C93.3893 96.671 90.6463 98.1622 87.7739 98.5167C84.9128 98.8656 81.8325 98.1116 79.5785 96.5078C67.7632 88.5564 42.5587 71.5451 36.1733 67.1108C32.795 64.7529 30.6816 60.7688 29.8778 57.0829C29.473 55.2259 29.3887 53.4027 29.6642 51.8383C29.934 50.2964 30.5804 48.9064 31.7383 48.0905C31.9238 47.9554 32.1205 47.8879 32.3173 47.8654L51.3499 45.4794C44.779 37.2917 34.0822 23.3922 31.8451 19.7064C29.6079 16.0205 28.0453 13.0661 27.1459 10.6464C26.2522 8.23792 25.9599 6.26273 26.3927 4.60268L26.3815 4.6083Z" fill="#010101"/>
<path d="M60.1468 144.656C42.154 138.01 43.0646 129.13 44.4417 123.795C71.6923 105.366 125.766 76.7904 134.462 84.4379C145.327 94.0043 128.071 124.167 121.399 134.656C116.064 143.058 105.255 145.601 98.8923 147.16C84.8735 154.329 74.5983 149.99 60.1468 144.656Z" fill="#010101"/>
<path fill-rule="evenodd" clip-rule="evenodd" d="M129.184 82.372C131.606 82.2819 133.669 82.6646 134.99 83.8295C137.969 86.4574 138.942 90.4247 138.745 94.8759C138.543 99.3383 137.166 104.431 135.254 109.484C131.443 119.602 125.423 129.821 122.073 135.094C119.291 139.467 115.109 142.297 110.865 144.21C106.75 146.073 102.518 147.103 99.37 147.879C99.3026 147.896 99.2464 147.913 99.1789 147.924C85.4693 154.897 75.1604 151.07 61.7207 146.09C61.108 145.859 60.4953 145.634 59.8713 145.398C50.7766 142.044 46.291 138.054 44.3181 134.087C42.3395 130.103 42.9634 126.304 43.666 123.586L43.7447 123.288L44.0033 123.119C57.6567 113.879 78.0271 102.113 96.0705 93.6041C105.103 89.3498 113.574 85.9003 120.348 83.9926C123.737 83.0416 126.733 82.462 129.189 82.372H129.184ZM45.15 124.29C44.5204 126.861 44.1045 130.052 45.7627 133.372C47.4827 136.839 51.5354 140.609 60.4334 143.901C61.0068 144.115 61.5801 144.329 62.1366 144.531C75.7225 149.568 85.4187 153.163 98.5381 146.45L98.6112 146.405L98.7068 146.377C98.7967 146.36 98.8754 146.343 98.9541 146.326C102.119 145.555 106.228 144.542 110.202 142.742C114.283 140.902 118.172 138.257 120.724 134.228C124.046 129 129.988 118.888 133.754 108.922C135.637 103.93 136.952 99.0288 137.132 94.8196C137.323 90.5991 136.384 87.2171 133.933 85.0562C133.085 84.3021 131.556 83.9082 129.251 83.9926C126.98 84.0658 124.114 84.606 120.786 85.5514C114.131 87.4197 105.755 90.8298 96.7619 95.0672C78.904 103.486 58.7471 115.129 45.1556 124.284L45.15 124.29Z" fill="#010101"/>
<path d="M97.431 145.015C90.0056 149.748 81.6247 147.221 77.2909 146.079C73.0134 116.884 52.0302 98.4944 57.8648 92.4957C58.8429 91.4771 81.383 54.7927 88.6116 58.3548C100.258 57.5107 110.359 63.9709 111.371 69.7107C119.021 71.6859 124.918 75.293 126.93 79.8399C145.592 88.1626 135.884 103.441 124.698 123.705C115.75 139.917 102.872 144.509 97.431 145.015Z" fill="#C62129"/>
<path fill-rule="evenodd" clip-rule="evenodd" d="M75.8575 147.373L75.7001 146.321C73.6034 132.027 67.4204 120.351 62.3783 111.375C62.0242 110.762 61.6813 110.148 61.3441 109.552C59.2643 105.877 57.4206 102.602 56.3358 99.9011C55.1273 96.8961 54.4921 93.6998 56.6562 91.4208C56.673 91.4039 56.6843 91.387 56.7068 91.3589C56.7686 91.2801 56.8417 91.1619 56.9597 90.9987C57.1677 90.6892 57.46 90.2503 57.8253 89.7045C57.9827 89.4569 58.1626 89.1924 58.3537 88.8997C59.0001 87.915 59.8039 86.6995 60.7201 85.3377C63.0922 81.7981 66.2399 77.2006 69.6013 72.7381C72.9458 68.2982 76.5432 63.9201 79.7865 60.8589C81.4054 59.3451 83.0074 58.0846 84.5306 57.3137C85.8572 56.644 87.4086 56.2107 88.8757 56.7172C94.8733 56.3683 100.472 57.8258 104.744 60.1442C108.605 62.2432 111.674 65.2032 112.703 68.4051C116.284 69.4068 119.504 70.7686 122.129 72.4511C124.771 74.1506 126.902 76.2045 128.133 78.613C132.703 80.7458 135.755 83.3794 137.452 86.6038C139.223 89.952 139.38 93.6773 138.593 97.6164C137.801 101.522 136.053 105.737 133.838 110.193C132.067 113.75 129.971 117.531 127.773 121.482C127.228 122.472 126.671 123.48 126.115 124.492C117.104 140.834 104.097 145.859 97.9704 146.591C90.3315 151.245 81.8832 148.977 77.5213 147.818C77.3021 147.761 77.0941 147.694 76.8917 147.643L75.8631 147.379L75.8575 147.373ZM97.4308 145.015C102.872 144.509 115.755 139.917 124.698 123.705C125.26 122.686 125.817 121.679 126.373 120.677C136.789 101.91 144.653 87.7349 126.93 79.8342C124.912 75.2873 119.015 71.6858 111.371 69.705C110.353 63.9652 100.258 57.505 88.6115 58.3491C82.4902 55.3273 65.4024 81.1678 59.7027 89.7832C58.6741 91.342 58.0108 92.338 57.8647 92.49C55.1497 95.2811 58.2357 100.74 62.7437 108.73C67.9319 117.931 75.0031 130.452 77.2908 146.073C77.4819 146.124 77.673 146.169 77.8698 146.231C82.3441 147.418 90.3259 149.545 97.4308 145.01V145.015Z" fill="#010101"/>
<path d="M104.592 101.652C103.861 99.1146 105.823 93.2284 107.397 89.8239C107.565 89.4637 108.026 89.3681 108.33 89.6269L126.902 105.4C126.935 105.428 126.98 105.462 127.031 105.485C135.294 109.593 155.175 120.251 169.171 130.307C180.324 138.337 173.067 144.561 167.401 147.273L147.98 156.839C147.621 157.025 147.525 157.481 147.778 157.79L171.403 186.529C173.027 188.538 174.759 191.582 173.005 194.661C169.655 200.586 160.864 200.012 156.097 196.09C142.534 185.572 113.608 163.063 106.284 157.211C98.9653 151.347 106.537 144.977 111.242 142.529L126.39 135.428C126.744 135.264 126.851 134.831 126.637 134.522C119.347 124.297 105.373 104.331 104.592 101.652Z" fill="#D2B42B"/>
<path fill-rule="evenodd" clip-rule="evenodd" d="M108.06 90.5994L126.306 106.108C126.401 106.187 126.503 106.255 126.615 106.316C134.861 110.413 154.703 121.049 168.626 131.06C171.341 133.012 172.848 134.785 173.556 136.349C174.253 137.863 174.214 139.219 173.736 140.44C173.241 141.69 172.28 142.86 171.043 143.896C169.818 144.925 168.373 145.781 167.007 146.439H166.996L147.57 156.011C146.682 156.444 146.435 157.609 147.059 158.369L170.684 187.108V187.119C172.291 189.105 173.635 191.671 172.201 194.204C170.717 196.809 168.036 198.036 165.046 198.143C162.055 198.244 158.885 197.181 156.676 195.374V195.363H156.659C143.113 184.84 114.176 162.342 106.868 156.489C105.165 155.122 104.423 153.811 104.227 152.635C104.03 151.453 104.35 150.254 105.053 149.067C106.486 146.653 109.37 144.56 111.652 143.361L126.789 136.265C127.638 135.865 127.964 134.774 127.391 133.975C123.748 128.871 118.442 121.33 113.945 114.735C111.691 111.443 109.651 108.382 108.128 105.984C107.363 104.78 106.728 103.756 106.273 102.957C105.784 102.118 105.542 101.618 105.48 101.398C105.351 100.937 105.323 100.239 105.418 99.3217C105.525 98.4213 105.739 97.3859 106.025 96.3055C106.559 94.319 107.346 92.2257 108.06 90.605V90.5994ZM106.559 89.4345C106.992 88.5004 108.178 88.2809 108.931 88.9168L127.475 104.673C135.772 108.804 155.676 119.462 169.706 129.557C172.567 131.611 174.343 133.614 175.237 135.578C176.142 137.565 176.108 139.433 175.461 141.116C174.815 142.764 173.606 144.171 172.235 145.319C170.863 146.467 169.278 147.407 167.806 148.105V148.116L148.734 157.508L172.111 185.948H172.123C173.764 187.985 175.872 191.48 173.809 195.121C171.931 198.435 168.548 199.887 165.108 200.005C161.69 200.112 158.081 198.925 155.513 196.82C141.966 186.297 113.029 163.799 105.705 157.936C103.749 156.371 102.692 154.689 102.394 152.95C102.108 151.211 102.608 149.568 103.457 148.133C105.148 145.28 108.397 142.984 110.814 141.718H110.826L125.659 134.762C122.017 129.658 116.818 122.27 112.411 115.793C110.151 112.484 108.099 109.406 106.565 106.992C105.789 105.776 105.143 104.724 104.665 103.885C104.199 103.081 103.839 102.377 103.698 101.927C103.468 101.122 103.468 100.126 103.58 99.1191C103.693 98.1006 103.934 96.9695 104.238 95.8271C104.845 93.5593 105.756 91.1902 106.554 89.4458L106.559 89.4345Z" fill="#010101"/>
<path d="M173.314 133.519L114.743 88.4384L114.76 88.4103C110.854 85.4391 105.722 90.0816 108.51 94.077L131.618 127.261C133.141 129.45 132.27 132.416 129.824 133.468L110.55 141.836C107.622 143.096 107.11 146.957 109.606 148.938L166.934 194.614C170.936 197.794 176.243 192.707 173.033 188.739L147.615 157.542C145.872 155.437 146.648 152.275 149.183 151.138L172.46 140.637C175.366 139.337 175.855 135.46 173.314 133.524V133.519Z" fill="#FEDD03"/>
<path fill-rule="evenodd" clip-rule="evenodd" d="M109.87 89.3729C108.729 90.4027 108.33 92.029 109.381 93.5371L132.483 126.733C134.383 129.456 133.293 133.103 130.285 134.397L111.011 142.765C108.74 143.75 108.409 146.704 110.252 148.184L167.581 193.861C169.065 195.048 170.802 194.733 171.937 193.641C173.084 192.549 173.438 190.844 172.212 189.348L146.811 158.167V158.155C144.619 155.505 145.62 151.622 148.705 150.232M148.705 150.221L171.982 139.72H171.993C174.258 138.707 174.556 135.731 172.679 134.296H172.668L114.108 89.2153C114.046 89.1647 113.996 89.1197 113.945 89.0634C112.529 88.1011 110.938 88.3937 109.87 89.3673M108.392 87.8929C110.112 86.3398 112.945 85.7827 115.401 87.6453C115.469 87.7072 115.53 87.7635 115.587 87.831L173.938 132.748C177.153 135.202 176.473 139.968 172.926 141.549L149.65 152.05C147.671 152.939 147.132 155.37 148.43 156.946H148.441L173.854 188.143C175.849 190.614 175.163 193.439 173.449 195.087C171.723 196.736 168.795 197.383 166.277 195.391L108.954 149.703C105.817 147.216 106.509 142.472 110.095 140.925L129.369 132.557C131.264 131.746 131.91 129.456 130.758 127.802L107.65 94.6175C105.913 92.1303 106.677 89.446 108.392 87.8929Z" fill="#010101"/>
<path fill-rule="evenodd" clip-rule="evenodd" d="M134.17 98.8444C134.675 99.1651 134.81 99.8348 134.49 100.336L114.159 131.882C113.838 132.377 113.17 132.524 112.669 132.203C112.175 131.882 112.028 131.213 112.349 130.712L132.691 99.1708C133.012 98.6756 133.681 98.5293 134.17 98.85V98.8444Z" fill="#010101"/>
<path d="M83.8675 34.9452L32.7558 1.48527V1.46276C29.3551 -0.754402 25.4373 3.72493 27.9892 6.90436L49.1691 33.3752C50.5631 35.1253 50.046 37.7532 48.1011 38.8843L32.7895 47.8543C30.4568 49.2048 30.2938 52.5812 32.4692 54.0612L82.6084 88.157C86.1046 90.5205 90.1517 85.6528 87.2344 82.5297L64.3008 57.9834C62.7326 56.329 63.1541 53.5322 65.1608 52.3223L83.6314 41.1465C85.9416 39.7566 86.0878 36.3802 83.8675 34.9396V34.9452Z" fill="#FEDD03"/>
<path fill-rule="evenodd" clip-rule="evenodd" d="M28.7986 2.7339C27.9386 3.71868 27.7025 5.1649 28.675 6.36351L49.8436 32.8343C51.5861 35.0065 50.9228 38.2478 48.5395 39.6378L33.228 48.6021V48.6133C31.418 49.66 31.3393 52.2485 32.9525 53.3459L83.0918 87.4361C84.3902 88.3139 85.7898 87.8863 86.6555 86.8396C87.5211 85.7929 87.7066 84.2904 86.6049 83.1087L63.6769 58.5793H63.6656C61.6983 56.4972 62.2604 53.0589 64.7224 51.5789M64.7224 51.5845L83.1817 40.4143C84.986 39.3226 85.0366 36.7397 83.3953 35.6649L32.2836 2.20493C32.2274 2.17117 32.1825 2.13741 32.1431 2.09239C30.9177 1.38898 29.6305 1.78289 28.7986 2.7339M27.4946 1.58593C28.8099 0.0890684 31.0976 -0.653736 33.2392 0.730581C33.3067 0.769972 33.3573 0.814991 33.4078 0.871264L84.3509 34.213C87.1445 36.0363 86.9028 40.2005 84.0867 41.8943L65.6273 53.0645C64.0479 54.0155 63.7612 56.1595 64.936 57.3919V57.4032L87.8808 81.9382C89.6852 83.8796 89.2973 86.3725 87.9933 87.9482C86.6892 89.5351 84.3228 90.3623 82.125 88.8767L31.9801 54.7808C29.2371 52.9182 29.5013 48.7709 32.3511 47.1052L47.6627 38.1409C49.1691 37.2687 49.5513 35.2372 48.4946 33.9148L27.3147 7.44395C25.7352 5.46877 26.1793 3.08279 27.4946 1.58593Z" fill="#010101"/>
<path d="M134.496 96.7889L127.335 94.9375L105.559 114.301L112.585 133.541L134.496 96.7889Z" fill="#C62129"/>
<path d="M118.071 119.676C123.844 109.935 126.266 105.631 128.824 97.8593C131.893 88.5236 122.905 81.4388 118.341 81.2813C114.817 72.9416 110.488 73.51 106.413 73.2905C106.413 73.2905 110.23 63.9942 99.4319 60.404C90.4889 57.4215 87.9538 59.678 87.9538 59.678C87.9538 59.678 86.335 55.2437 80.1125 53.1053C71.4843 50.1398 66.7009 52.6383 55.9535 70.9045L50.2201 74.7367C47.5445 75.9241 44.7509 77.179 43.6099 79.1541C40.2654 85.0065 44.8858 91.0896 43.2838 97.5836C40.0855 110.526 44.1607 114.038 45.0994 120.29C45.1612 120.712 45.1669 121.139 45.1219 121.567L44.5486 128.297C44.3855 130.261 45.0769 132.214 46.5103 133.553C52.8957 139.473 58.646 142.231 70.8716 145.399C82.2541 148.353 87.8358 144.628 90.562 141.156C91.4501 140.03 92.8216 139.349 94.2381 139.254C102.36 138.736 111.708 130.402 118.065 119.671L118.071 119.676Z" fill="#EE3446"/>
<path fill-rule="evenodd" clip-rule="evenodd" d="M108.111 73.3624C107.88 73.3456 107.65 73.3399 107.414 73.3343C107.077 73.3231 106.751 73.3118 106.413 73.2893C106.413 73.2893 106.666 72.6703 106.863 71.6742C107.408 68.855 107.431 63.0645 99.4376 60.4028C94.1258 58.6245 91.0736 58.7146 89.4716 59.0635C88.3868 59.3054 87.9596 59.6768 87.9596 59.6768C87.9596 59.6768 87.7516 59.086 87.167 58.2362C86.1665 56.7506 84.0642 54.466 80.1183 53.1041C71.4901 50.1386 66.7066 52.6371 55.9593 70.9033L50.2259 74.7355L50.1753 74.758C47.5109 75.951 44.7398 77.189 43.6156 79.1586C41.7494 82.4224 42.3621 85.7538 42.9917 89.192C43.4863 91.9157 43.9978 94.7181 43.2896 97.588C40.9962 106.901 42.452 111.335 43.8123 115.421C44.3295 117.008 44.841 118.538 45.1052 120.294C45.167 120.716 45.1726 121.144 45.1276 121.572L44.5543 128.302C44.3913 130.266 45.0827 132.218 46.516 133.558C52.9015 139.478 58.6517 142.235 70.8774 145.403C82.2599 148.358 87.8415 144.632 90.5677 141.16C91.4558 140.035 92.8273 139.354 94.2438 139.258C102.366 138.74 111.714 130.406 118.071 119.675C123.844 109.934 126.267 105.629 128.824 97.8581C131.893 88.5224 122.905 81.4376 118.341 81.2801C115.3 74.0884 111.669 73.5256 108.111 73.3624ZM108.504 71.7474C109.988 71.8206 111.652 72.0288 113.265 72.7547C115.609 73.8295 117.683 75.9341 119.454 79.7776C120.668 79.997 121.938 80.5147 123.158 81.2125C124.755 82.1354 126.368 83.4522 127.706 85.0897C130.409 88.3705 132.129 93.0411 130.37 98.3646C127.756 106.316 125.255 110.761 119.476 120.508C116.216 126.006 112.175 130.918 107.869 134.548C103.58 138.15 98.898 140.597 94.345 140.884C93.3557 140.952 92.4226 141.425 91.8493 142.162C90.3091 144.115 87.9764 146.135 84.4521 147.243C80.9333 148.352 76.386 148.509 70.4671 146.979C58.1009 143.771 52.0583 140.918 45.4031 134.751C43.565 133.034 42.7275 130.581 42.9355 128.155L43.5088 121.431C43.5313 121.093 43.5313 120.806 43.4919 120.542C43.2727 119.084 42.8174 117.711 42.3228 116.214C40.9456 112.045 39.2818 107.002 41.6988 97.1997C42.3171 94.6787 41.8787 92.2477 41.3728 89.4847C41.311 89.1358 41.2435 88.7813 41.1873 88.4211C40.6421 85.3317 40.2093 81.8259 42.1935 78.3595C42.9692 77.0033 44.2227 76.0242 45.4986 75.2532C46.7352 74.516 48.1461 73.8745 49.4221 73.3118L54.7283 69.761C59.9952 60.8417 63.9861 55.4451 67.8814 52.7046C69.9218 51.2865 71.951 50.5662 74.1151 50.4424C76.2342 50.3299 78.3758 50.797 80.6298 51.5679C84.0474 52.7384 86.2452 54.5672 87.5886 56.1316C88.0383 56.655 88.4036 57.1558 88.6734 57.5891C89.0894 57.4709 89.5728 57.3753 90.1518 57.3077C92.2034 57.0826 95.3118 57.319 99.9379 58.8552C102.861 59.8344 104.924 61.2412 106.312 62.8844C107.7 64.5332 108.336 66.3339 108.572 67.9715C108.774 69.4121 108.673 70.7289 108.493 71.753L108.504 71.7474Z" fill="#010101"/>
<path d="M88.8645 144.998L89.8988 142.235L94.5192 140.485L98.8867 139.669C92.1978 144.103 102.945 146.545 113.007 138.172L113.018 140.822L100.989 146.039L94.3618 146.461C94.3618 142.437 89.3142 143.962 88.8645 144.998Z" fill="#010101"/>
<path fill-rule="evenodd" clip-rule="evenodd" d="M125.069 99.2777C125.047 99.3677 125.013 99.4578 124.979 99.5422C123.147 103.785 118.049 114.179 112.27 121.922C105.918 130.425 99.7241 135.889 92.4281 136.131C91.4669 136.17 90.4832 136.632 89.7806 137.391C86.5092 140.892 79.7809 144.459 69.5169 141.798C62.2659 139.924 56.6617 136.862 52.7608 134.482C48.9835 132.169 47.0105 127.369 48.1234 123.064L48.871 120.172C49.2083 118.861 48.9554 117.437 48.1797 116.193C47.106 114.455 46.0381 112.288 45.5715 109.317C45.105 106.368 45.2455 102.733 46.4034 98.0228C46.9318 95.8957 46.5664 93.8248 46.1449 91.4107C46.0887 91.0956 46.0381 90.7861 45.9819 90.4597C45.5266 87.7699 45.1443 84.6467 46.9093 81.5686C47.6063 80.3587 48.7249 79.4865 49.8379 78.8224C50.9171 78.1809 52.1368 77.6463 53.2329 77.1568L57.7241 74.1743C62.249 66.5043 65.6047 61.4341 68.8537 58.6429C70.54 57.1798 72.2825 56.2738 74.1936 55.9531C76.0991 55.6436 78.0215 55.9587 80.0394 56.6509C83.5188 57.8495 85.0646 61.1414 85.7728 63.6625C85.9134 64.1577 86.0201 64.6473 86.1045 65.1031C86.408 64.8724 86.7453 64.6473 87.0994 64.4334C89.4658 62.9872 92.9565 61.9405 97.3577 63.4093C100.039 64.2927 101.804 65.8177 102.827 67.6804C103.827 69.498 104.052 71.4957 103.94 73.2514C103.867 74.4388 103.653 75.5586 103.406 76.5209C105.087 76.2057 106.992 76.1663 108.841 76.6953C110.477 77.1736 112.062 78.0909 113.361 79.6328C114.401 80.882 115.216 82.4914 115.744 84.4891C117.919 84.4104 120.589 84.8887 122.663 86.6388C125.401 88.9685 126.564 93.0483 125.08 99.2608L125.069 99.2777ZM114.445 86.2617C112.95 77.877 106.953 77.2693 102.821 78.3272C102.057 78.5129 101.365 78.7718 100.758 79.0419C100.758 79.0419 101.157 78.2259 101.551 76.9936C102.613 73.6622 103.631 67.2302 96.8349 64.9624C91.8041 63.2911 88.2517 65.3394 86.363 66.9882C85.3569 67.8717 84.8397 68.6314 84.8397 68.6314C84.8397 68.6314 84.8397 67.6916 84.6486 66.3636C84.2608 63.6794 83.086 59.4364 79.4998 58.204C72.0351 55.6323 68.2241 59.5377 58.927 75.3391L54.003 78.603L53.9637 78.6255C51.6815 79.6271 49.287 80.6738 48.3146 82.3845C46.7013 85.2151 47.2185 88.1244 47.7468 91.1181C48.1572 93.4984 48.5844 95.9238 47.9773 98.4055C45.7289 107.499 47.5445 112.074 49.5624 115.332C50.5349 116.908 50.9002 118.788 50.4393 120.577L49.6917 123.469C48.7642 127.071 50.4337 131.145 53.5983 133.087C57.4318 135.433 62.8842 138.399 69.9104 140.216C79.5841 142.726 85.711 139.355 88.5721 136.283C89.5558 135.236 90.9385 134.555 92.3662 134.51C98.8304 134.291 104.614 129.434 110.949 120.948C116.626 113.352 121.668 103.082 123.467 98.9007C126.289 87.1171 118.622 85.5639 114.429 86.2617H114.445Z" fill="white"/>
<path fill-rule="evenodd" clip-rule="evenodd" d="M69.6745 72.9629C68.0613 72.4789 66.4368 72.4564 65.4419 72.5859C65.0035 72.6309 64.6044 72.327 64.5482 71.8824C64.4919 71.4435 64.8123 71.0327 65.2508 70.9765C66.4199 70.8301 68.2861 70.8639 70.141 71.4154C71.9903 71.9781 73.924 73.0867 75.0706 75.1688C75.2786 75.5515 75.1437 76.0523 74.7559 76.2605C74.3568 76.48 73.8734 76.3393 73.6542 75.9454C72.7773 74.3528 71.2709 73.4525 69.6801 72.9629H69.6745Z" fill="white"/>
<path fill-rule="evenodd" clip-rule="evenodd" d="M87.1108 79.6604C85.5594 79.0133 83.9462 78.8332 82.9457 78.8501C82.5072 78.867 82.1363 78.5125 82.125 78.0735C82.1138 77.6233 82.4623 77.2519 82.9176 77.2407C84.098 77.2125 85.9529 77.4264 87.7348 78.1636C89.5222 78.912 91.3322 80.2119 92.2653 82.3897C92.4339 82.8061 92.2484 83.2844 91.8437 83.4532C91.439 83.6277 90.9612 83.4363 90.7813 83.0312C90.0675 81.3655 88.6678 80.3076 87.1165 79.6604H87.1108Z" fill="white"/>
<path fill-rule="evenodd" clip-rule="evenodd" d="M102.456 88.5001C101.045 87.5941 99.4883 87.1045 98.5158 86.9469C98.0774 86.8738 97.7795 86.4573 97.8469 86.0184C97.92 85.5795 98.3247 85.2756 98.7688 85.3488C99.9436 85.5457 101.709 86.0972 103.333 87.1608C104.963 88.2131 106.498 89.8225 107.009 92.1466C107.11 92.5799 106.841 93.0132 106.396 93.1088C105.969 93.1989 105.536 92.9287 105.435 92.4954C105.042 90.7172 103.861 89.4173 102.456 88.5001Z" fill="white"/>
<path fill-rule="evenodd" clip-rule="evenodd" d="M114.586 97.2108C113.546 96.5355 112.4 96.1866 111.68 96.0628C111.242 95.9896 110.944 95.5732 111.011 95.1343C111.079 94.701 111.489 94.4027 111.927 94.4759C112.838 94.6278 114.21 95.0442 115.463 95.8715C116.722 96.6874 117.925 97.9367 118.33 99.7599C118.431 100.193 118.161 100.621 117.717 100.722C117.284 100.823 116.857 100.542 116.756 100.109C116.469 98.8258 115.609 97.8917 114.581 97.2108H114.586Z" fill="white"/>
<path d="M143.815 81.4546L160.926 95.2583C161.403 95.6354 161.308 96.3894 160.751 96.6427L153.815 99.7714C153.332 99.9909 153.174 100.61 153.5 101.026L162.033 112.016C162.634 112.793 161.611 113.778 160.853 113.153L143.433 98.6066C142.955 98.2183 143.068 97.4642 143.63 97.2279L149.492 94.6731C149.959 94.4761 150.128 93.8965 149.847 93.4632L142.596 82.535C142.084 81.7528 143.062 80.8524 143.798 81.4377L143.815 81.4546Z" fill="#FEDD00"/>
<path fill-rule="evenodd" clip-rule="evenodd" d="M144.647 80.2627C144.647 80.2627 144.703 80.2965 144.732 80.3134L161.842 94.1171C163.185 95.192 162.893 97.2797 161.347 97.9718V97.9831L155.153 100.774L163.18 111.123C164.86 113.295 162.005 116.007 159.925 114.285L142.5 99.7388C141.213 98.6584 141.494 96.5763 143.057 95.8897L148.222 93.6501L141.398 83.3577C139.954 81.18 142.657 78.7602 144.659 80.2683L144.647 80.2627ZM143.799 81.4388C143.062 80.8536 142.084 81.754 142.596 82.5361L149.847 93.4644C150.128 93.8977 149.959 94.4773 149.493 94.6742L143.63 97.229C143.068 97.4654 142.961 98.2194 143.433 98.6077L160.853 113.154C161.611 113.779 162.629 112.794 162.033 112.018L153.5 101.027C153.169 100.611 153.332 99.992 153.815 99.7726L160.751 96.6438C161.308 96.3906 161.403 95.6365 160.926 95.2595L143.815 81.4557L143.799 81.4388Z" fill="#010101"/>
<path d="M174.422 170.131L184.472 178.375C184.759 178.6 184.691 179.05 184.36 179.191L180.245 181.008C179.958 181.138 179.863 181.498 180.054 181.751L185.051 188.296C185.399 188.757 184.792 189.331 184.348 188.96L174.118 180.283C173.837 180.041 173.91 179.602 174.236 179.461L177.721 177.981C177.997 177.863 178.098 177.525 177.935 177.266L173.702 170.772C173.393 170.311 173.978 169.776 174.41 170.131H174.422Z" fill="#FEDD00"/>
<path fill-rule="evenodd" clip-rule="evenodd" d="M174.927 169.426C174.927 169.426 174.956 169.443 174.972 169.46L185.023 177.704C185.81 178.345 185.63 179.578 184.714 179.983L181.043 181.609L185.748 187.766C186.726 189.054 185.023 190.652 183.803 189.611L173.562 180.934C172.803 180.287 172.977 179.055 173.904 178.661L176.973 177.349L172.983 171.238C172.145 169.944 173.758 168.526 174.933 169.426H174.927ZM174.416 170.124C173.983 169.769 173.399 170.298 173.708 170.765L177.94 177.259C178.098 177.513 178.002 177.85 177.727 177.974L174.242 179.454C173.916 179.595 173.848 180.034 174.124 180.276L184.354 188.953C184.804 189.324 185.405 188.756 185.056 188.289L180.059 181.744C179.868 181.491 179.964 181.131 180.251 181.002L184.365 179.184C184.697 179.049 184.764 178.593 184.477 178.368L174.427 170.124H174.416Z" fill="#010101"/>
<path d="M17.7813 62.9519L34.6387 76.7669C35.1052 77.1552 34.9984 77.898 34.4419 78.1456L27.545 81.19C27.0616 81.4094 26.9042 82.0172 27.2246 82.4336L35.5942 93.3956C36.1844 94.1665 35.167 95.14 34.4195 94.5098L17.2586 79.9576C16.792 79.5693 16.9101 78.8209 17.4609 78.5901L23.2955 76.1029C23.7621 75.9115 23.9307 75.3376 23.6553 74.9043L16.556 64.0154C16.0444 63.2332 17.0281 62.3554 17.7588 62.9406V62.9519H17.7813Z" fill="#FEDD00"/>
<path fill-rule="evenodd" clip-rule="evenodd" d="M18.6191 61.7709L18.7034 61.8215L35.5495 75.6422C36.8704 76.7226 36.5613 78.7878 35.0324 79.4688L28.8718 82.1924L36.758 92.5128C38.405 94.6793 35.5551 97.3467 33.4978 95.6079L16.337 81.0556C15.0554 79.9752 15.3589 77.91 16.9103 77.2516L22.0479 75.0682L15.3645 64.8152C13.9424 62.6319 16.6461 60.2571 18.6247 61.7709H18.6191ZM17.7759 62.9414C17.0396 62.3561 16.0559 63.234 16.5731 64.0162L23.6724 74.905C23.9422 75.3383 23.7735 75.9123 23.3126 76.1036L17.478 78.5909C16.9272 78.8216 16.8091 79.57 17.2757 79.9583L34.4366 94.5105C35.1785 95.1408 36.2015 94.1673 35.6113 93.3963L27.2417 82.4343C26.9213 82.0179 27.0787 81.4102 27.5621 81.1907L34.459 78.1463C35.0155 77.8931 35.1223 77.1559 34.6558 76.7676L17.7984 62.9526V62.9414H17.7759Z" fill="#010101"/>
<path d="M18.9282 14.8722L30.2039 24.1179C30.5243 24.3711 30.4456 24.872 30.0746 25.0352L25.4654 27.0779C25.1393 27.2185 25.0382 27.6293 25.2518 27.8994L30.8446 35.2375C31.2437 35.7552 30.5636 36.4023 30.0633 35.9859L18.5853 26.2506C18.2705 25.9862 18.3436 25.4853 18.7258 25.339L22.6211 23.679C22.9303 23.5439 23.054 23.1613 22.8685 22.8799L18.1131 15.5869C17.7815 15.0636 18.4335 14.4727 18.9169 14.8666V14.8779L18.9282 14.8722Z" fill="#FEDD00"/>
<path fill-rule="evenodd" clip-rule="evenodd" d="M19.4845 14.0792C19.4845 14.0792 19.5183 14.1074 19.5407 14.113L30.8164 23.3586V23.3699C31.6933 24.0902 31.4853 25.4745 30.4623 25.9247L26.3478 27.7423L31.6146 34.647C32.722 36.0989 30.8108 37.8883 29.4393 36.7235L17.9556 26.9883C17.0956 26.2623 17.3036 24.8893 18.3435 24.4391L21.7723 22.976L17.3036 16.1107C16.3536 14.6588 18.1636 13.0663 19.4789 14.0792H19.4845ZM18.9168 14.8614C18.4334 14.4675 17.7758 15.0584 18.113 15.5817L22.8684 22.8747C23.0539 23.1561 22.9302 23.5443 22.621 23.6738L18.7257 25.3338C18.3491 25.4801 18.2704 25.9866 18.5852 26.2455L30.0689 35.9807C30.5691 36.3971 31.2493 35.75 30.8502 35.2323L25.2573 27.8943C25.0381 27.6241 25.1449 27.2133 25.4709 27.0727L30.0801 25.03C30.4511 24.8724 30.5298 24.3659 30.2094 24.1127L18.9281 14.8727V14.8614H18.9168Z" fill="#010101"/>
</g>
<defs>
<clipPath id="clip0_2458_1132">
<rect width="171.069" height="200" fill="white" transform="translate(14.9653)"/>
</clipPath>
</defs>
</svg>
