<svg width="201" height="200" viewBox="0 0 201 200" fill="none" xmlns="http://www.w3.org/2000/svg">
<g clip-path="url(#clip0_2458_921)">
<path d="M87.4989 28.1603L54.8769 39.5621C53.7715 39.9471 48.4929 42.692 47.6794 43.4559L40.6743 49.4487C34.6008 55.5905 31.887 64.4338 33.4271 73.0472L41.2705 116.916C43.0652 126.964 48.5488 135.919 56.5785 141.936L95.2057 170.876C102.826 176.583 113.221 176.334 120.574 170.261L156.388 139.614L160.002 136.801C160.046 136.77 160.083 136.739 160.127 136.708L160.17 136.676C164.238 133.453 166.287 128.2 165.474 122.958L157.084 68.7001C155.904 61.0617 151.203 54.4789 144.465 51.0323L101.658 29.1415C97.255 26.8872 92.1565 26.5394 87.4989 28.1665V28.1603Z" fill="#FEDD03"/>
<path fill-rule="evenodd" clip-rule="evenodd" d="M160.12 136.714L160.164 136.683C164.232 133.46 166.281 128.206 165.467 122.964L157.077 68.7063C155.897 61.0679 151.196 54.4851 144.458 51.0385L101.658 29.1415C97.255 26.8872 92.1565 26.5394 87.4989 28.1665L54.8769 39.5683C53.7715 39.9533 48.4929 42.6982 47.6794 43.4621L40.6743 49.4549C34.6008 55.5905 31.887 64.4338 33.4271 73.0472L41.2705 116.916C43.0652 126.964 48.5488 135.919 56.5785 141.936L95.2057 170.876C102.826 176.583 113.221 176.334 120.574 170.261L156.388 139.614L160.002 136.801C160.046 136.77 160.083 136.739 160.127 136.708L160.12 136.714Z" fill="white"/>
<path d="M33.4271 73.0479L41.2705 116.916C43.0652 126.964 48.5488 135.919 56.5785 141.937L95.2057 170.876C102.826 176.584 113.221 176.335 120.574 170.262L157.009 140.161L47.1018 42.9473L40.6743 49.4493C34.6008 55.5973 31.887 64.4344 33.4271 73.0479Z" fill="#010101"/>
<path d="M62.2484 136.361L98.9007 165.027C106.216 170.746 116.339 170.759 123.667 165.064L160.158 136.684L74.0167 62.4911C60.4661 50.8223 37.9233 51.6917 38.3952 69.8564C38.4573 72.2473 38.7616 74.6506 39.3268 77.0353L48.1079 114.153C50.2007 123.003 55.1937 130.846 62.2484 136.361Z" fill="url(#paint0_linear_2458_921)"/>
<path fill-rule="evenodd" clip-rule="evenodd" d="M124.921 166.759C116.854 173.038 105.701 173.019 97.6527 166.722L60.9941 138.056C53.5668 132.243 48.3006 123.984 46.096 114.656L37.3148 77.538C34.0918 63.9129 38.7804 49.5923 49.3563 40.7366L50.6853 39.625L163.486 136.77L124.915 166.765L124.921 166.759ZM160.164 136.683L123.673 165.064C116.345 170.765 106.223 170.746 98.9071 165.027L62.2548 136.361C55.2001 130.846 50.2071 123.002 48.1143 114.153L39.3331 77.035C36.2964 64.2048 40.7118 50.7288 50.6729 42.3885L160.164 136.683Z" fill="#010101"/>
<path d="M157.115 68.7072L165.734 123.195C166.598 128.672 164.337 134.168 159.909 137.342L132.796 156.786C128.051 160.189 121.729 160.096 117.078 156.556L73.1722 123.139C68.4711 119.562 65.13 114.408 63.7203 108.576L49.5115 49.58C48.493 45.3384 50.797 40.9975 54.8274 39.5878L87.617 28.1239C92.2001 26.5217 97.2117 26.8694 101.546 29.0865L144.446 51.0393C151.19 54.4922 155.91 61.0687 157.115 68.7134V68.7072Z" fill="url(#paint1_linear_2458_921)"/>
<path fill-rule="evenodd" clip-rule="evenodd" d="M159.164 68.3655L167.784 122.853C168.777 129.138 166.175 135.448 161.096 139.093L133.982 158.537C128.511 162.462 121.208 162.356 115.842 158.276L71.9364 124.859C66.8502 120.984 63.2297 115.414 61.7082 109.092L47.5056 50.089C46.2263 44.7731 49.114 39.333 54.1629 37.5693L86.9463 26.1054C92.051 24.3231 97.6402 24.7081 102.465 27.1735L145.365 49.1264C152.706 52.8836 157.841 60.0439 159.158 68.3655H159.164ZM87.617 28.1237L54.8274 39.5876C50.797 40.9973 48.493 45.3382 49.5115 49.5798L63.7265 108.582C65.1362 114.42 68.4773 119.568 73.1784 123.145L117.084 156.562C121.736 160.102 128.057 160.189 132.802 156.792L159.916 137.348C164.343 134.174 166.604 128.672 165.741 123.201L157.121 68.7132C155.91 61.0685 151.197 54.492 144.452 51.0391L101.546 29.0863C97.2117 26.8692 92.2001 26.5215 87.617 28.1237Z" fill="#010101"/>
<path d="M112.489 171.956L122.437 168.218L132.628 158.244L125.108 160.734L123.046 160.486L120.375 160.238C122.313 165.553 118.432 170.211 106.788 169.211L112.489 171.956Z" fill="#010101"/>
<path fill-rule="evenodd" clip-rule="evenodd" d="M122.568 168.437L112.476 172.231L106.682 169.443L106.806 168.971C112.607 169.468 116.413 168.548 118.525 166.903C119.574 166.083 120.208 165.083 120.469 163.972C120.729 162.86 120.618 161.624 120.146 160.332L120.009 159.96L123.065 160.245L125.083 160.488L132.554 158.01L132.796 158.426L122.568 168.43V168.437ZM125.132 160.997L123.021 160.742L120.729 160.531C121.121 161.767 121.208 162.978 120.947 164.09C120.661 165.319 119.959 166.418 118.823 167.3C116.736 168.927 113.203 169.828 108.061 169.561L112.495 171.697L122.301 168.008L131.684 158.823L125.126 160.997H125.132Z" fill="#010101"/>
<path d="M36.5447 58.0327L42.4816 48.0033L49.3065 42.8613L48.1949 48.6864L49.3065 54.5488C45.2078 50.8103 38.8424 55.4866 37.4762 68.1056L36.5509 58.0327H36.5447Z" fill="#010101"/>
<path fill-rule="evenodd" clip-rule="evenodd" d="M48.4433 48.6788L49.6854 55.218L49.1513 54.7274C48.1701 53.8332 47.0709 53.4544 45.9531 53.5537C44.829 53.6593 43.6553 54.2493 42.5437 55.3609C40.3205 57.5841 38.4015 61.8443 37.7246 68.1227H37.2402L36.3025 57.9629L42.3015 47.8155L49.6667 42.2637L48.4433 48.6663V48.6788ZM42.6617 48.1695L36.7931 58.0871L37.5197 65.9492C38.3767 60.7389 40.1342 57.0687 42.1959 55.0007C43.3634 53.8332 44.6365 53.1687 45.8972 53.0507C46.9591 52.9513 48.0024 53.2432 48.9401 53.9201L47.9403 48.6725L48.9401 43.425L42.6555 48.1633L42.6617 48.1695Z" fill="#010101"/>
<path d="M53.8958 130.076L47.7104 116.985L48.319 115.364C50.505 122.965 66.9992 129.076 62.9998 112.619L67.3656 118.6L72.8243 124.835C67.5705 123.63 51.9582 125.834 59.9631 134.435L53.8958 130.07V130.076Z" fill="#010101"/>
<path d="M95.2554 60.8009L93.9823 69.284L79.5996 68.7996L78.2396 70.141C75.2711 73.0784 75.2525 77.9534 78.1961 80.9156L90.5853 93.3732C92.4546 95.2548 93.6283 97.7389 93.9078 100.415L95.2492 113.277C95.9758 120.257 104.198 123.331 109.123 118.462L114.588 113.059L128.542 124.815C130.883 126.79 134.199 126.989 136.752 125.312L139.248 123.672L112.476 81.2075L107.365 45.4805L100.702 51.0386C97.7705 53.4854 95.8267 56.963 95.2492 60.7947L95.2554 60.8009Z" fill="#010101"/>
<path d="M100.335 56.1821L98.5965 66.8263L84.1517 66.2549L80.6367 69.0122C78.0409 71.043 77.8173 74.974 80.1648 77.3028L94.5909 91.6544C96.0255 93.0828 96.9073 95.0079 97.0688 97.0573L98.3232 113.365C98.7083 118.42 104.546 120.855 108.253 117.514L116.258 110.31L132.237 123.519C134.174 125.121 136.95 125.059 138.813 123.37L143.03 119.557L114.699 78.6939L108.7 45.5938L104.366 49.146C102.223 50.8972 100.789 53.4061 100.335 56.1821Z" fill="#D2B42B"/>
<path fill-rule="evenodd" clip-rule="evenodd" d="M109.576 45.4259L115.538 78.3272L143.751 119.029C144.018 119.407 143.956 119.935 143.614 120.246L139.397 124.059C137.205 126.04 133.945 126.114 131.672 124.233L116.277 111.502L108.831 118.203C104.565 122.04 97.8762 119.24 97.4229 113.439L96.1684 97.1316C96.0256 95.3058 95.2431 93.5918 93.9576 92.3125L79.5314 77.9608C76.7989 75.2408 77.0598 70.6577 80.0841 68.2854L83.5991 65.5281C83.7605 65.3977 83.9655 65.3356 84.1704 65.3418L97.8327 65.8821L99.4412 56.0328C99.9318 53.0333 101.484 50.3319 103.794 48.4316L108.129 44.8794C108.371 44.6806 108.7 44.6248 108.992 44.7365C109.284 44.8483 109.502 45.1091 109.557 45.4259H109.576ZM108.7 45.5935L104.366 49.1457C102.223 50.897 100.789 53.4059 100.335 56.1818L98.5966 66.826L84.1518 66.2547L80.6368 69.012C78.041 71.0427 77.8174 74.9738 80.1648 77.3026L94.591 91.6542C96.0256 93.0826 96.9074 95.0077 97.0689 97.0571L98.3233 113.365C98.7084 118.42 104.546 120.854 108.253 117.513L116.258 110.31L132.237 123.519C134.175 125.121 136.95 125.059 138.814 123.369L143.03 119.556L114.699 78.6936L108.7 45.5935Z" fill="#010101"/>
<path d="M127.648 70.0178L143.937 74.0793C147.539 74.9797 148.893 79.5007 146.409 82.3263L137.975 91.9148C136.907 93.1258 136.553 94.8336 137.05 96.3923L143.546 116.861C144.359 119.432 141.447 121.531 139.372 119.873L124.002 107.558C122.853 106.633 121.233 106.658 120.102 107.62L111.793 114.7C108.732 117.308 104.08 115.271 103.794 111.191L102.465 92.0887C102.329 90.1573 101.478 88.3564 100.087 87.0523L84.0958 72.1044C81.4814 69.6576 83.2761 65.1987 86.8035 65.354L101.522 66.0247C102.882 66.0868 104.074 65.087 104.273 63.7021L106.564 48.245C107.042 45.022 111.216 44.2457 112.762 47.0837L123.53 66.8134C124.406 68.4156 125.89 69.5769 127.629 70.0054L127.648 70.0178Z" fill="url(#paint2_linear_2458_921)"/>
<path fill-rule="evenodd" clip-rule="evenodd" d="M127.853 69.1422L144.142 73.2037C148.39 74.2656 149.992 79.6001 147.061 82.935L138.627 92.5234C137.77 93.4984 137.485 94.8709 137.882 96.1191L144.378 116.588C145.465 120.003 141.583 122.798 138.826 120.587L123.462 108.272C122.636 107.608 121.469 107.627 120.661 108.316L112.352 115.395C108.738 118.469 103.254 116.066 102.919 111.259L101.584 92.157C101.466 90.4555 100.714 88.8719 99.4908 87.723L83.4997 72.7752C80.2766 69.7632 82.4874 64.261 86.8408 64.4598L101.559 65.1305C102.472 65.1739 103.267 64.497 103.403 63.5717L105.695 48.1146C106.297 44.047 111.57 43.0596 113.532 46.649L124.3 66.3787C125.058 67.7636 126.337 68.7634 127.84 69.136L127.853 69.1422ZM106.577 48.2513L104.285 63.7083C104.08 65.0932 102.894 66.093 101.534 66.0309L86.8159 65.3602C83.2823 65.1988 81.4938 69.6639 84.1083 72.1107L100.099 87.0585C101.491 88.3626 102.341 90.1636 102.478 92.0949L103.807 111.197C104.093 115.271 108.744 117.314 111.806 114.706L120.115 107.627C121.239 106.67 122.86 106.645 124.015 107.564L139.385 119.879C141.459 121.543 144.372 119.438 143.558 116.867L137.062 96.3986C136.572 94.846 136.919 93.1382 137.988 91.9211L146.421 82.3326C148.905 79.507 147.551 74.9798 143.949 74.0855L127.66 70.0241C125.921 69.5893 124.437 68.4343 123.561 66.832L112.793 47.1024C111.24 44.2581 107.067 45.0406 106.595 48.2637L106.577 48.2513Z" fill="#010101"/>
</g>
<defs>
<linearGradient id="paint0_linear_2458_921" x1="99.2796" y1="23.2306" x2="99.2796" y2="181.353" gradientUnits="userSpaceOnUse">
<stop stop-color="#E3B750"/>
<stop offset="0.28" stop-color="#F6EAD0"/>
<stop offset="0.42" stop-color="#FED307"/>
<stop offset="0.75" stop-color="#B6942F"/>
<stop offset="1" stop-color="#DDAF3D"/>
</linearGradient>
<linearGradient id="paint1_linear_2458_921" x1="107.595" y1="23.2862" x2="107.595" y2="178.639" gradientUnits="userSpaceOnUse">
<stop stop-color="#E3B750"/>
<stop offset="0.28" stop-color="#F6EAD0"/>
<stop offset="0.42" stop-color="#FED307"/>
<stop offset="0.75" stop-color="#B6942F"/>
<stop offset="1" stop-color="#DDAF3D"/>
</linearGradient>
<linearGradient id="paint2_linear_2458_921" x1="133.442" y1="63.5593" x2="88.7721" y2="129.406" gradientUnits="userSpaceOnUse">
<stop stop-color="#E3B750"/>
<stop offset="0.41" stop-color="#FFEBC1"/>
<stop offset="0.56" stop-color="#FED307"/>
<stop offset="0.75" stop-color="#EBCE64"/>
<stop offset="1" stop-color="#DDAF3D"/>
</linearGradient>
<clipPath id="clip0_2458_921">
<rect width="134.99" height="150" fill="white" transform="translate(33.0049 25)"/>
</clipPath>
</defs>
</svg>
