<svg width="201" height="200" viewBox="0 0 201 200" fill="none" xmlns="http://www.w3.org/2000/svg">
<g clip-path="url(#clip0_2458_940)">
<path d="M41.9427 45.793C41.7911 54.747 43.211 67.9102 49.3657 79.4716C54.4794 89.0876 59.3252 96.364 62.9432 101.791C66.6218 107.309 69.022 110.917 69.1484 113.135C67.7891 114.161 66.0812 117.243 70.0984 121.361C69.6284 123.469 67.4708 127.774 62.4884 129.532C61.4829 129.886 60.4874 130.3 59.6284 130.932C58.259 131.938 56.9958 133.08 55.8538 134.338L55.6719 134.54C54.4895 135.844 53.6304 137.4 52.9887 139.037C51.2403 143.479 47.7184 150.27 42.3621 156C40.8412 157.627 41.6244 160.502 43.8022 160.897C46.0357 162.923 50.3763 165.849 57.7184 167.764L61.1494 168.527C62.827 168.875 64.6208 169.189 66.541 169.446C67.0968 169.522 67.6527 169.598 68.2136 169.679L92.7765 174.166C93.3121 174.267 93.9589 174.378 94.5905 174.494H94.5956H94.6006C95.4243 174.641 96.2227 174.782 96.728 174.883C101.569 175.626 108.234 172.706 106.101 166.637C105.864 165.788 105.616 164.939 105.374 164.09C104.014 159.371 102.686 154.727 102.494 150.851C102.483 150.634 102.473 150.417 102.463 150.199C102.397 148.8 102.342 147.471 102.054 146.076C101.518 143.469 100.77 140.679 99.6891 138.244C99.4516 137.713 99.2191 137.274 99.0018 137.041C97.9811 134.974 96.3692 131.23 97.1423 129.962C99.5476 128.987 103.469 126.106 101.968 122.109C107.193 118.466 120.159 110.472 127.961 105.818C136.389 100.79 158.39 81.316 165.096 68.7036C165.869 67.2483 166.319 65.4848 166.218 63.9335C166.117 60.654 165.247 53.5292 149.143 48.0517C147.385 46.9704 145.303 46.1012 142.898 45.6818C142.246 45.5656 141.65 45.7121 141.124 46.0254C134.459 41.3615 125.202 35.6919 111.897 32.9784C100.326 29.7344 85.6971 29.1886 71.0382 36.844C68.8199 35.5403 65.3586 34.1609 60.2651 33.9234C59.8558 33.5595 59.3202 33.3372 58.6633 33.3322C56.0155 33.3018 52.7007 33.6808 49.1939 34.9138C44.6714 36.5055 42.0286 40.9976 41.9427 45.793Z" fill="#010101"/>
<path d="M36.7786 41.7002C36.627 50.6542 38.0469 63.8175 44.2015 75.3788C49.3152 84.9948 54.1662 92.2712 57.7791 97.6982C61.4527 103.216 63.8579 106.824 63.9842 109.042C62.625 110.068 60.917 113.15 64.9342 117.269C64.4693 119.376 62.3117 123.681 57.3243 125.439C56.3188 125.793 55.3233 126.208 54.4643 126.839C53.0949 127.845 51.8316 128.987 50.6896 130.245L50.5077 130.447C49.3253 131.751 48.4663 133.307 47.8195 134.944C46.0712 139.386 42.5542 146.177 37.1929 151.907C35.672 153.534 36.4552 156.41 38.6331 156.804C40.8665 158.83 45.2071 161.756 52.5492 163.666L55.9802 164.429C57.6578 164.778 59.4567 165.091 61.3718 165.349C61.9276 165.424 62.4885 165.5 63.0444 165.581L87.6073 170.068C88.148 170.169 88.7897 170.28 89.4213 170.397H89.4264H89.4314C90.2551 170.543 91.0535 170.685 91.5588 170.786C96.3996 171.528 103.065 168.608 100.932 162.539C100.695 161.69 100.452 160.841 100.205 159.992C98.8503 155.273 97.5163 150.629 97.3243 146.753C97.3142 146.536 97.3041 146.319 97.294 146.101C97.2334 144.702 97.1727 143.373 96.8847 141.978C96.3491 139.371 95.6012 136.581 94.5199 134.146C94.2824 133.615 94.0499 133.176 93.8326 132.943C92.8119 130.877 91.2 127.132 91.9731 125.864C94.3784 124.889 98.2995 122.008 96.7988 118.011C102.024 114.368 114.995 106.374 122.792 101.72C131.22 96.6926 153.226 77.2182 159.927 64.6057C160.7 63.1504 161.149 61.3869 161.048 59.8356C160.947 56.5562 160.078 49.4314 143.974 43.9539C142.216 42.8725 140.139 42.0034 137.724 41.584C137.072 41.4678 136.475 41.6143 135.95 41.9276C129.285 37.2636 120.028 31.5941 106.723 28.8806C95.1565 25.6416 80.5229 25.0959 65.869 32.7513C63.6507 31.4476 60.1894 30.0681 55.0959 29.8306C54.6866 29.4668 54.151 29.2444 53.4941 29.2394C50.8463 29.2091 47.5315 29.588 44.0247 30.821C39.5022 32.4127 36.8594 36.9049 36.7735 41.7002H36.7786Z" fill="#010101"/>
<path d="M60.5531 168.017C62.2307 168.365 64.0296 168.679 65.9447 168.936C66.5005 169.012 66.7683 169.043 67.6173 169.169L92.1802 173.656C93.4283 173.883 95.2423 174.202 96.1367 174.368C100.978 175.111 107.643 172.191 105.51 166.122C104.014 160.796 102.579 155.404 102.114 150.948C101.902 148.896 101.695 146.718 101.291 144.697C100.841 142.474 100.235 140.377 99.2747 138.32C98.9917 137.703 98.7087 137.127 98.4106 136.526C97.5061 135.566 98.9866 137.698 98.4106 136.526C97.3899 134.459 96.0912 130.599 96.8593 129.331C99.2646 128.355 102.877 125.586 101.372 121.594C106.597 117.951 119.568 109.957 127.365 105.303C135.793 100.276 157.799 80.801 164.5 68.1886C165.273 66.7333 165.722 64.9698 165.621 63.4185C165.51 59.8258 164.308 51.2912 143.337 45.6924L141.559 46.2482C140.295 45.4802 143.07 47.0011 141.559 46.2482C132.362 39.7096 114.803 30.4271 90.8613 30.6545L72.2509 37.562C70.1539 35.9349 64.9644 32.9839 56.9503 33.08L47.0665 58.5827L64.1155 97.9056L79.3606 113.727L52.9988 153.899L37.4556 155.692C43.3626 162.302 47.8598 164.843 57.117 167.259L60.548 168.022L60.5531 168.017Z" fill="#010101"/>
<path fill-rule="evenodd" clip-rule="evenodd" d="M60.4471 168.522H60.4421L57.0111 167.759H57.001H56.9909C52.342 166.546 48.8504 165.293 45.7731 163.494C42.6958 161.695 40.048 159.366 37.0717 156.036C36.9403 155.889 36.905 155.687 36.9757 155.505C37.0414 155.323 37.2081 155.197 37.4002 155.177L52.7059 153.408L78.7089 113.787L63.7468 98.2592C63.7064 98.2137 63.671 98.1632 63.6457 98.1076L46.5967 58.7797C46.5411 58.6533 46.5361 58.5119 46.5866 58.3855L56.4704 32.8878C56.5462 32.6907 56.7382 32.5594 56.9504 32.5594C64.8231 32.4684 70.0378 35.2678 72.3471 36.9757L90.6897 30.1693C90.7453 30.149 90.8059 30.1389 90.8666 30.1389C114.666 29.9116 132.201 39.0273 141.544 45.5962C141.574 45.6114 141.609 45.6316 141.65 45.6518C141.66 45.6569 141.675 45.667 141.69 45.672L143.196 45.2021C143.287 45.1718 143.388 45.1718 143.484 45.197C154.02 48.0116 159.674 51.5841 162.701 54.9697C165.738 58.3704 166.091 61.5336 166.152 63.3982C166.263 65.0606 165.778 66.9151 164.97 68.4361C161.579 74.8231 154.348 82.8929 146.95 89.9671C139.553 97.0515 131.913 103.206 127.643 105.753C119.997 110.316 107.4 118.077 101.998 121.801C102.625 123.833 102.039 125.576 100.998 126.915C99.9671 128.254 98.4765 129.204 97.2435 129.735C97.1728 129.932 97.1323 130.24 97.1526 130.675C97.1778 131.2 97.294 131.827 97.4658 132.504C97.8145 133.848 98.3804 135.298 98.8756 136.304C99.1738 136.905 99.4567 137.486 99.7448 138.108C100.73 140.215 101.342 142.352 101.796 144.601C102.175 146.465 102.377 148.461 102.574 150.341C102.595 150.528 102.615 150.715 102.635 150.897C103.09 155.298 104.51 160.639 106.006 165.97C106.566 167.577 106.561 169.017 106.117 170.255C105.672 171.493 104.808 172.484 103.742 173.231C101.614 174.712 98.5977 175.278 96.0662 174.889C96.0611 174.889 96.051 174.889 96.0459 174.889C95.5406 174.793 94.7473 174.651 93.9236 174.505C93.292 174.394 92.6402 174.277 92.0894 174.176M67.5366 169.679C66.9454 169.593 66.6422 169.553 66.3188 169.512C66.1824 169.492 66.0459 169.477 65.8792 169.452C63.9489 169.189 62.1399 168.876 60.4522 168.527" fill="#010101"/>
<path d="M55.9801 164.439C57.6577 164.788 59.4566 165.101 61.3717 165.359C61.9275 165.435 62.4884 165.51 63.0443 165.591L87.6072 170.078C88.8553 170.306 90.6693 170.624 91.5637 170.791C96.4045 171.534 103.07 168.613 100.937 162.544C99.3707 156.971 97.5566 151.331 97.3343 146.758C97.2534 145.116 97.2282 143.595 96.8947 141.983C96.3591 139.376 95.6112 136.587 94.5299 134.151C94.2974 133.62 94.065 133.181 93.8426 132.948C94.3277 131.948 94.6663 133.489 93.8426 132.948C92.8219 130.882 91.21 127.137 91.9831 125.869C94.3884 124.894 98.3095 122.014 96.8088 118.017C102.034 114.373 115.005 106.379 122.802 101.726C131.23 96.6978 153.236 77.2233 159.937 64.6109C160.71 63.1556 161.159 61.3921 161.058 59.8408C160.947 56.2481 159.911 48.0419 138.946 42.4431L137.001 42.6705C135.738 41.9025 138.512 43.4234 137.001 42.6705C127.804 36.1319 113.398 27.0717 89.4566 27.2991L67.6931 33.9843C65.596 32.3572 61.1544 29.7094 53.1403 29.8054L42.4985 54.9949L59.5475 94.3178L74.7926 110.139L48.4308 150.311L37.5061 155.248C39.0069 157.046 43.2919 161.261 52.5491 163.676L55.9801 164.439Z" fill="#C62129"/>
<path fill-rule="evenodd" clip-rule="evenodd" d="M55.6365 166.035L52.1651 165.262H52.1348C42.5188 162.746 37.9508 158.329 36.248 156.293L34.8735 154.646L47.3243 149.017L72.7108 110.33L58.1631 95.2318L40.725 55.0044L52.0438 28.1777L53.1151 28.1676C60.7856 28.0817 65.4445 30.391 67.9913 32.1798L89.1939 25.6664H89.4314C113.423 25.439 128.072 34.3677 137.425 40.9721L139.057 40.7851L139.356 40.866C149.997 43.7058 155.834 47.2732 159.027 50.8003C162.261 54.3829 162.615 57.7533 162.681 59.7644C162.802 61.6694 162.256 63.7159 161.372 65.3783C157.89 71.9322 150.548 80.103 143.14 87.1924C135.722 94.2919 128.006 100.517 123.636 103.13C116.273 107.521 104.348 114.868 98.6835 118.708C99.0575 120.856 98.2641 122.71 97.1272 124.105C96.0661 125.409 94.6613 126.384 93.4233 127.005C93.4233 127.021 93.4233 127.036 93.4233 127.051C93.4688 127.455 93.5901 127.986 93.7922 128.612C94.1661 129.785 94.7422 131.073 95.2222 132.058C95.5607 132.498 95.8286 133.059 96.0206 133.489C97.1727 136.076 97.9508 138.991 98.4966 141.654C98.8099 143.19 98.8756 144.656 98.9412 146.045C98.9514 146.258 98.9615 146.47 98.9716 146.677C99.1535 150.346 100.422 154.767 101.781 159.502C102.019 160.34 102.266 161.194 102.509 162.048C103.13 163.852 103.14 165.545 102.605 167.046C102.069 168.547 101.033 169.709 99.8154 170.558C97.4253 172.225 94.1105 172.827 91.3364 172.402H91.3061L91.2758 172.392C90.7705 172.296 89.9923 172.16 89.1838 172.013C88.5522 171.902 87.8953 171.781 87.3293 171.68L62.8018 167.197C62.2561 167.122 61.7103 167.046 61.1696 166.975C59.2141 166.707 57.3799 166.394 55.6618 166.035H55.6517H55.6365ZM63.0494 165.591L87.6123 170.078C88.153 170.179 88.8048 170.295 89.4364 170.406C90.2601 170.553 91.0635 170.694 91.5688 170.795C96.4097 171.538 103.075 168.617 100.942 162.549C100.705 161.7 100.462 160.851 100.215 160.002C98.8604 155.282 97.5264 150.639 97.3344 146.763C97.3243 146.546 97.3142 146.328 97.3041 146.111C97.2434 144.711 97.1828 143.382 96.8948 141.988C96.3996 139.582 95.7275 137.026 94.7775 134.737C94.6967 134.54 94.6108 134.348 94.5299 134.156C94.5148 134.115 94.4946 134.08 94.4794 134.039C94.2621 133.564 94.0448 133.17 93.8427 132.953C93.676 132.614 93.494 132.23 93.3071 131.821C93.206 131.604 93.11 131.381 93.009 131.154C92.16 129.168 91.4021 126.824 91.9781 125.874C94.3834 124.898 98.3046 122.018 96.8038 118.021C102.029 114.378 115 106.384 122.797 101.73C131.225 96.7022 153.231 77.2278 159.932 64.6153C160.705 63.16 161.154 61.3965 161.053 59.8452C160.942 56.2576 159.911 48.0716 139.037 42.4728C139.007 42.4627 138.972 42.4577 138.941 42.4476L136.996 42.675C136.698 42.4627 136.389 42.2454 136.081 42.0282C135.834 41.8564 136.112 41.4673 135.859 41.2904C129.628 37.8948 111.998 27.0913 89.4516 27.3036L67.6881 33.9888C65.5911 32.3617 61.1494 29.7139 53.1353 29.8099L42.4986 54.9943L59.5476 94.3172L74.7927 110.138L48.4309 150.31L37.5062 155.247C37.7942 155.591 38.1782 156.02 38.6835 156.505C40.821 158.582 45.0554 161.715 52.5491 163.67L55.9802 164.433C57.6578 164.782 59.4567 165.095 61.3718 165.353C61.9276 165.429 62.4885 165.505 63.0443 165.586L63.0494 165.591Z" fill="#010101"/>
<path d="M125.621 51.1846C134.742 45.8082 133.166 40.5631 130.614 38.4004L131.412 38.8299L131.892 39.0927L132.499 39.4211L133.064 39.7344L134.03 40.27L134.868 40.7349L136.44 41.599L134.11 44.5399L132.625 48.0315L129.441 50.3509L125.631 51.1796L125.621 51.1846Z" fill="#010101"/>
<path fill-rule="evenodd" clip-rule="evenodd" d="M44.2015 75.3792C38.0519 63.8178 36.627 50.6546 36.7786 41.7006C36.8594 36.9053 39.5022 32.4131 44.0297 30.8214C47.5365 29.5884 50.8513 29.2094 53.4991 29.2398C55.6719 29.265 56.536 31.6602 55.8438 33.7168C54.1055 38.8709 57.2637 42.0543 59.4971 43.1306C58.6735 37.8047 62.5744 34.4394 64.626 33.4186C90.2854 19.1993 116.142 30.594 125.864 38.0675C128.421 42.1503 126.243 48.881 124.838 51.7309C130.503 50.5485 132.883 47.7744 133.681 45.2125C134.277 43.2923 135.753 41.2408 137.734 41.5844C142.16 42.3575 145.47 44.6314 147.718 46.9912C150.255 49.6541 150.755 53.5854 149.032 56.8345C142.332 69.4469 119.517 89.9724 111.084 95.0053C103.282 99.6592 90.8867 108.108 85.6618 111.751C87.1676 115.748 82.7311 118.689 80.3258 119.664C79.5577 120.933 80.3005 123.252 81.3162 125.319C81.8973 126.491 82.7968 127.451 83.7013 128.411C84.4491 129.209 85.202 130.008 85.773 130.927C86.0459 131.367 86.2632 131.812 86.435 132.231C86.6017 132.64 86.7533 133.06 86.8998 133.479C87.107 134.06 87.3142 134.641 87.5719 135.197L87.6831 135.43C88.2642 136.673 88.0418 138.138 87.6426 139.452C86.2884 143.959 87.8498 152.115 89.7144 158.755C90.5684 161.802 88.0115 164.854 84.8887 164.348L38.6735 156.819C36.4602 156.461 35.6517 153.555 37.1879 151.913C42.5492 146.183 46.0661 139.391 47.8144 134.95C48.4612 133.313 49.3152 131.756 50.5027 130.452L50.6846 130.25C51.8266 128.992 53.0898 127.85 54.4592 126.845C55.3182 126.213 56.3137 125.799 57.3192 125.445C62.3016 123.686 64.4592 119.381 64.9291 117.274C60.9069 113.151 62.6199 110.074 63.9792 109.048C63.8528 106.829 61.4526 103.222 57.774 97.7036C54.156 92.2766 49.3101 85.0002 44.1965 75.3843L44.2015 75.3792ZM48.7947 47.4914C45.864 56.3747 53.5042 73.9543 57.6881 81.6349C56.5714 71.9684 58.9665 58.1281 60.3056 52.4131L48.7947 47.4914ZM120.134 60.6142C116.728 68.7345 109.143 85.9047 106.026 89.5985C113.999 82.6859 130.498 66.9204 132.726 59.1589L120.129 60.6142H120.134Z" fill="#EE3446"/>
<path fill-rule="evenodd" clip-rule="evenodd" d="M57.784 97.698C54.166 92.271 49.3201 84.9946 44.2064 75.3786C38.0518 63.8173 36.6268 50.654 36.7784 41.7C36.8593 36.9047 39.502 32.4125 44.0296 30.8208C47.5364 29.5878 50.8512 29.2089 53.499 29.2392C55.6718 29.2645 56.5359 31.6596 55.8436 33.7162C54.5349 37.5919 56.0002 40.3559 57.7587 41.9426C58.3348 42.4681 58.9462 42.8622 59.502 43.13C59.3959 42.4479 59.3706 41.796 59.406 41.1745C59.6536 36.9805 62.8421 34.3023 64.6359 33.4181C90.2953 19.1988 116.152 30.5934 125.874 38.0669C127.971 41.4171 126.885 46.551 125.647 49.8658C125.379 50.5884 125.101 51.225 124.848 51.7354C125.581 51.5838 126.253 51.4069 126.879 51.2048C131.099 49.8456 132.994 47.4504 133.691 45.217C134.287 43.2968 135.763 41.2453 137.744 41.5889C142.17 42.362 145.48 44.6359 147.728 46.9956C150.265 49.6586 150.765 53.5899 149.042 56.839C142.342 69.4514 119.527 89.9769 111.094 95.0098C103.292 99.6636 90.8967 108.112 85.6718 111.756C87.1776 115.753 82.741 118.693 80.3358 119.669C79.5677 120.937 80.3105 123.256 81.3262 125.323C81.9073 126.495 82.8067 127.455 83.7112 128.416C84.4591 129.214 85.212 130.012 85.783 130.932C86.0558 131.372 86.2731 131.816 86.4449 132.236C86.6117 132.645 86.7633 133.064 86.9098 133.484C87.117 134.065 87.3241 134.646 87.5819 135.202L87.693 135.434C88.2741 136.677 88.0518 138.143 87.6526 139.456C86.2984 143.964 87.8598 152.119 89.7243 158.759C90.5783 161.806 88.0215 164.858 84.8987 164.353L38.6834 156.824C36.4702 156.465 35.6617 153.56 37.1978 151.917C42.5591 146.187 46.076 139.396 47.8244 134.954C48.4712 133.317 49.3252 131.761 50.5126 130.457L50.6945 130.255C51.8365 128.997 53.0998 127.855 54.4692 126.849C55.3282 126.217 56.3236 125.803 57.3292 125.449C62.3115 123.691 64.4692 119.386 64.9391 117.279C60.9169 113.155 62.6299 110.078 63.9891 109.052C63.8628 106.834 61.4626 103.226 57.784 97.7081V97.698ZM62.2256 108.466C62.0285 107.769 61.5839 106.788 60.7956 105.424C59.7496 103.61 58.2691 101.382 56.4196 98.6025V98.5924C52.7966 93.1604 47.9154 85.8284 42.7562 76.1417C36.4298 64.2518 34.9896 50.7854 35.1463 41.6697C35.2372 36.3387 38.1882 31.1391 43.4838 29.2796C47.1928 27.9759 50.6996 27.5717 53.5141 27.607C55.308 27.6273 56.5915 28.6783 57.2231 30.0275C57.8244 31.3109 57.8497 32.8622 57.3898 34.2417C56.6622 36.3943 56.9805 38.0062 57.6122 39.1785C57.7132 39.3605 57.8193 39.5373 57.9356 39.7041C58.7491 35.5454 61.9932 32.9178 63.8628 31.9779C90.3055 17.3443 116.864 29.0926 126.859 36.7733L127.092 36.9502L127.248 37.1978C128.835 39.7344 128.87 42.9178 128.451 45.6111C128.254 46.8693 127.946 48.0871 127.597 49.1887C130.482 47.9557 131.67 46.1821 132.119 44.7268C132.473 43.5899 133.1 42.3519 134.019 41.4069C134.949 40.4519 136.329 39.6788 138.016 39.9769C142.857 40.8258 146.465 43.3069 148.901 45.8637C151.927 49.0472 152.524 53.7415 150.472 57.5969C146.991 64.1508 139.446 72.5843 131.842 79.9365C124.222 87.2938 116.303 93.792 111.922 96.4044C104.606 100.77 93.1806 108.522 87.5313 112.438C87.885 114.661 86.9098 116.556 85.6768 117.93C84.4742 119.264 82.9179 120.255 81.6445 120.861C81.6294 121.073 81.6445 121.392 81.7506 121.836C81.9275 122.65 82.3065 123.615 82.7865 124.585C83.2362 125.5 83.9639 126.288 84.8987 127.284L84.9442 127.334C85.6617 128.097 86.5106 129.002 87.1675 130.063C87.4909 130.588 87.7486 131.114 87.9507 131.604C88.1377 132.049 88.2943 132.498 88.4409 132.908V132.923C88.6582 133.514 88.8401 134.024 89.0624 134.499L89.1736 134.732C90.0225 136.551 89.6384 138.522 89.219 139.916C88.648 141.821 88.6531 144.702 89.0978 148.082C89.5374 151.412 90.3762 155.03 91.2958 158.304C92.4479 162.413 89.027 166.667 84.6359 165.95L38.4257 158.421C36.5965 158.122 35.404 156.768 34.9745 155.298C34.545 153.837 34.8027 152.084 36.0104 150.79C41.1948 145.252 44.6107 138.653 46.3085 134.343C47.0058 132.579 47.9507 130.836 49.3049 129.345L49.4869 129.143C50.6996 127.804 52.0488 126.591 53.504 125.52C54.5652 124.742 55.7476 124.262 56.7936 123.893C60.5379 122.569 62.4328 119.573 63.12 117.683C61.3716 115.646 60.7046 113.666 60.8209 111.877C60.9169 110.432 61.5232 109.264 62.2357 108.456L62.2256 108.466ZM57.693 81.6343C57.5414 80.3357 57.4555 78.9613 57.4252 77.5414C57.2029 68.3953 59.1534 57.3594 60.3105 52.4125L48.7996 47.4908C48.6329 47.9961 48.5015 48.5368 48.3954 49.0977C46.9704 57.0007 51.877 69.8456 55.7981 77.9405C56.4702 79.3301 57.1119 80.5732 57.693 81.6343ZM55.7981 74.0649C56.0154 66.3438 57.3949 58.1022 58.4156 53.3827L49.9366 49.7597C49.6991 51.3514 49.7243 53.2159 49.977 55.2978C50.3307 58.1831 51.1139 61.3463 52.1245 64.5196C53.1907 67.8496 54.4995 71.1442 55.7981 74.0649ZM109.027 84.7268C107.84 86.9451 106.799 88.6833 106.026 89.598C107.279 88.5115 108.744 87.2028 110.336 85.7425C118.138 78.5621 128.901 67.6727 132.069 60.8764C132.352 60.27 132.574 59.694 132.726 59.1583L120.129 60.6136C117.567 66.7278 112.635 77.9658 109.022 84.7268H109.027ZM112.539 81.4373C115.096 78.9916 117.799 76.2983 120.336 73.5798C123.014 70.7147 125.49 67.8496 127.42 65.2422C128.552 63.7162 129.467 62.3216 130.124 61.0987L121.26 62.1245C119.542 66.1972 116.975 72.0689 114.444 77.4605C113.802 78.8248 113.16 80.1639 112.534 81.4373H112.539Z" fill="#010101"/>
<path fill-rule="evenodd" clip-rule="evenodd" d="M84.5955 49.2197C85.308 49.7806 85.9244 50.5587 86.359 51.2156C86.7582 51.8169 86.9957 52.489 87.1725 53.156L88.6127 58.6689L93.1402 58.5173C93.1705 58.5173 93.2059 58.5173 93.2362 58.5325C94.9896 59.1792 95.9194 60.0484 96.2024 61.0792C96.4803 62.0999 96.0962 63.1813 95.4494 64.1767C94.1559 66.1777 91.6799 68.0625 90.4116 68.9569C89.2595 69.7755 88.9007 71.2813 88.8249 73.1863C88.7946 74.01 88.8097 74.8892 88.8299 75.7937C88.8299 75.9251 88.8299 76.0565 88.84 76.1878C88.8603 77.2288 88.8704 78.295 88.7946 79.3207C88.7289 80.1747 88.5015 80.776 88.0922 81.1146C87.6728 81.4632 87.1271 81.4784 86.5763 81.3369C86.0255 81.1904 85.409 80.8771 84.7875 80.4829C84.1609 80.0837 83.5091 79.5986 82.8774 79.0984C81.8264 78.2697 80.9371 77.8553 80.2499 77.6835C79.5576 77.5117 79.0826 77.5976 78.8299 77.7341C78.8299 77.7341 78.8198 77.7341 78.8148 77.7391C78.3449 77.9665 76.5662 78.8558 73.2261 80.5992C71.4777 81.5087 70.0781 81.2813 69.0674 80.5587C68.0821 79.8563 67.4959 78.7043 67.2787 77.8149C67.2584 77.7341 67.2787 77.6482 67.3342 77.5825L73.3878 70.5284L81.978 48.6689C82.0083 48.5931 82.069 48.5375 82.1498 48.5122C83.029 48.2646 83.883 48.6487 84.5854 49.2045L84.5955 49.2197ZM82.4176 48.9973C83.024 48.8811 83.6607 49.1439 84.2721 49.6239C84.9239 50.1393 85.505 50.8619 85.9295 51.4986C86.2832 52.0292 86.5055 52.6406 86.6723 53.2874L88.168 59.0024C88.1983 59.1186 88.3044 59.1995 88.4257 59.1944L93.1099 59.0378C94.7572 59.6542 95.4899 60.4273 95.7072 61.2207C95.9295 62.0292 95.6364 62.9488 95.0199 63.9038C93.787 65.8089 91.3868 67.6482 90.1185 68.5426C88.744 69.5127 88.3903 71.2611 88.3095 73.1712C88.2741 74.015 88.2943 74.9094 88.3095 75.8139C88.3095 75.9453 88.3145 76.0767 88.3196 76.208C88.3398 77.249 88.3499 78.2899 88.2741 79.2904C88.2135 80.0938 88.0063 80.5183 87.7587 80.7255C87.5212 80.9225 87.1776 80.968 86.6976 80.8467C86.2226 80.7204 85.6667 80.4425 85.0604 80.0534C84.454 79.6694 83.8224 79.1944 83.1907 78.6992C82.0942 77.8351 81.1442 77.3804 80.3661 77.1883C79.598 76.9963 78.9815 77.0671 78.5823 77.2843C78.0972 77.5168 76.3135 78.4112 72.9836 80.1444C71.3918 80.9731 70.2044 80.7406 69.3656 80.1444C68.552 79.5633 68.0316 78.6082 67.8092 77.8301L73.8022 70.8468C73.8022 70.8468 73.8375 70.8013 73.8476 70.771L82.4025 48.9973H82.4176Z" fill="#010101"/>
<path d="M73.115 80.3756C69.7698 82.1189 67.9507 79.4509 67.5364 77.7632L73.6203 70.6788L82.2307 48.7789C83.7567 48.3544 85.2878 50.0674 86.1468 51.361C86.5207 51.9269 86.7532 52.5687 86.925 53.2256L88.4207 58.9406L93.1604 58.7839C100.033 61.3104 92.8017 66.9648 90.2751 68.7586C87.7486 70.5474 88.8552 75.2619 88.547 79.3145C88.2943 82.6343 85.5707 80.8961 83.0442 78.9102C80.8967 77.2175 79.3656 77.1619 78.7137 77.5207C78.2388 77.748 76.4601 78.6424 73.12 80.3807L73.115 80.3756Z" fill="#010101"/>
<path d="M72.4783 79.4053C69.1383 81.1486 67.5718 78.4554 67.1575 76.7626L72.9836 69.7085L81.5031 48.7282C82.9887 48.3139 84.3126 49.5165 85.111 50.613C85.5203 51.179 85.7527 51.846 85.9245 52.5281L87.3343 58.0865L92.443 58.329C99.3151 60.8556 92.1549 65.9996 89.6284 67.7884C87.1019 69.5771 88.2085 74.2916 87.9003 78.3442C87.6476 81.6641 84.924 79.9258 82.3975 77.9399C80.2499 76.2472 78.7189 76.1916 78.067 76.5504C77.592 76.7777 75.8134 77.6721 72.4682 79.4104L72.4783 79.4053Z" fill="#DB8E27"/>
<path fill-rule="evenodd" clip-rule="evenodd" d="M83.7012 48.8861C84.3581 49.2954 84.9089 49.8967 85.3182 50.4627C85.7578 51.0691 86.0004 51.7765 86.1722 52.4637L87.5365 57.8402L92.4531 58.0726C92.4835 58.0726 92.5087 58.0776 92.5289 58.0878C94.2773 58.7295 95.2121 59.5683 95.5052 60.5486C95.7932 61.5289 95.4142 62.5445 94.7725 63.4794C93.4941 65.349 91.0332 67.1075 89.7801 67.9968C88.6229 68.8154 88.2692 70.3212 88.1934 72.2262C88.1631 73.0499 88.1783 73.9291 88.1934 74.8336C88.1934 74.965 88.1985 75.0963 88.2035 75.2277C88.2237 76.2687 88.2389 77.3348 88.158 78.3606C88.0924 79.2146 87.865 79.8159 87.4557 80.1545C87.0363 80.5031 86.4905 80.5183 85.9398 80.3768C85.389 80.2302 84.7725 79.917 84.151 79.5228C83.5244 79.1236 82.8725 78.6385 82.2359 78.1383C81.1848 77.3096 80.2955 76.8952 79.6083 76.7234C78.916 76.5516 78.441 76.6375 78.1884 76.774H78.1783C77.7083 77.0064 75.9296 77.8957 72.5896 79.639C71.7204 80.0888 70.9524 80.2656 70.2753 80.2252C69.5931 80.1898 69.0221 79.9372 68.5572 79.5784C67.6325 78.8609 67.1171 77.7037 66.8998 76.8295C66.8796 76.7487 66.8998 76.6678 66.9504 76.6022L72.7513 69.5784L81.2556 48.6335C81.2859 48.5577 81.3465 48.5021 81.4274 48.4819C82.2611 48.2495 83.0393 48.4768 83.6962 48.8861H83.7012ZM81.6952 48.9518C82.3066 48.8204 82.8928 48.9872 83.4284 49.3258C84.0095 49.6896 84.5148 50.2353 84.9039 50.7659C85.2879 51.2914 85.5052 51.923 85.677 52.59L87.0868 58.1484C87.1171 58.2596 87.2131 58.3354 87.3243 58.3455L92.3925 58.583C94.0499 59.1994 94.7877 59.9473 95.01 60.6901C95.2323 61.443 94.9544 62.2919 94.348 63.1863C93.1303 64.965 90.7503 66.6729 89.4769 67.5723C88.1025 68.5425 87.7487 70.2909 87.673 72.2009C87.6376 73.0448 87.6578 73.9392 87.673 74.8437C87.673 74.9751 87.678 75.1064 87.6831 75.2378C87.7033 76.2788 87.7134 77.3197 87.6376 78.3202C87.5769 79.1236 87.3698 79.5481 87.1171 79.7553C86.8796 79.9523 86.536 79.9978 86.061 79.8765C85.586 79.7502 85.0302 79.4723 84.4188 79.0832C83.8175 78.6992 83.1808 78.2242 82.5492 77.729C81.4526 76.8649 80.5027 76.4101 79.7245 76.2181C78.9564 76.0261 78.345 76.0968 77.9408 76.3141C77.4557 76.5466 75.6719 77.441 72.342 79.1742C71.5385 79.5936 70.8614 79.7351 70.2955 79.7047C69.7295 79.6744 69.2546 79.4723 68.8604 79.1641C68.1025 78.5779 67.6376 77.6178 67.4254 76.8245L73.1656 69.8715C73.1656 69.8715 73.1959 69.826 73.206 69.8058L81.675 48.9468L81.6952 48.9518Z" fill="#010101"/>
<path d="M75.3789 57.3152L80.4522 49.3717C81.1748 48.2399 82.8978 48.4976 83.2566 49.7912L85.1515 56.5875C85.3233 57.209 85.8589 57.6588 86.5007 57.7143L92.0338 58.2348C93.3779 58.3611 93.9337 60.0337 92.9231 60.9382L86.1369 67.0271C85.8286 67.3 85.6467 67.684 85.6214 68.0984L85.1262 76.9564C85.0555 78.1893 83.6457 78.8513 82.6502 78.1135L77.6225 74.3793C77.1424 74.0206 76.4906 73.9751 75.9651 74.2581L69.4163 77.78C68.1429 78.4672 66.7079 77.1888 67.2334 75.8447L70.0732 68.6289C70.2652 68.1489 70.1995 67.6032 69.9064 67.1787L65.9701 61.489C65.3132 60.539 65.8842 59.2353 67.0262 59.0686L74.2925 58.0175C74.7422 57.9518 75.1364 57.6992 75.3789 57.3152Z" fill="#FEDD03"/>
<path fill-rule="evenodd" clip-rule="evenodd" d="M83.004 49.8615C82.7058 48.7852 81.2708 48.568 80.6695 49.5129L75.5962 57.4563C75.3132 57.901 74.8483 58.1991 74.3279 58.2749L67.0616 59.3259C66.1116 59.4623 65.6366 60.5538 66.1823 61.3421L70.1187 67.0318C70.4623 67.527 70.5381 68.1637 70.3157 68.7246L67.4759 75.9404C67.0363 77.0621 68.2339 78.1233 69.295 77.5523L75.8438 74.0303C76.4603 73.6968 77.2182 73.7524 77.7842 74.1718L82.812 77.906C83.6407 78.5225 84.818 77.9666 84.8736 76.9409L85.3688 68.0829C85.3941 67.6028 85.6114 67.1582 85.9651 66.8348L92.7513 60.7458C93.5901 59.9929 93.1303 58.5983 92.0085 58.4922L86.4754 57.9717C85.7276 57.901 85.101 57.3754 84.8989 56.6528L83.004 49.8565V49.8615ZM80.2298 49.235C81.0737 47.9161 83.0798 48.2142 83.5042 49.7251L85.3991 56.5215C85.5406 57.0369 85.9903 57.4108 86.5209 57.4613L92.054 57.9818C93.6255 58.1283 94.2672 60.0788 93.0949 61.1349L86.3087 67.2238C86.056 67.4512 85.8994 67.7746 85.8792 68.1132L85.384 76.9712C85.3031 78.4113 83.6508 79.1844 82.4936 78.3254L77.4658 74.5912C77.0616 74.2931 76.526 74.2526 76.0813 74.4901L69.5325 78.0121C68.0469 78.8105 66.3693 77.3249 66.9908 75.7534L69.8307 68.5376C69.9873 68.1384 69.9368 67.6837 69.6892 67.33L65.7528 61.6402C64.9898 60.5336 65.6518 59.0076 66.9858 58.8156L74.2521 57.7645C74.626 57.7089 74.9545 57.4967 75.1566 57.1784L80.2298 49.235Z" fill="#010101"/>
<path d="M161.033 59.2095C160.366 55.1165 150.589 49.4419 150.477 53.8179L150.366 51.1701L149.81 48.6638L146.602 45.3187L144.141 43.8027H145.768C145.748 44.111 146.602 44.7375 149.982 45.5713C153.358 46.4051 157.223 50.023 158.724 51.5895L161.013 55.925L161.033 59.2095Z" fill="#010101"/>
<path d="M96.0053 122.928C99.0422 118.512 90.3257 116.597 85.5859 116.188L85.9851 114.581L86.4096 111.781L87.6627 110.948L89.7547 109.457C88.3803 113.782 96.2226 115.44 100.316 115.728L101.402 118.926L96.0053 122.939V122.928Z" fill="#010101"/>
<path d="M80.6643 120.064C80.7755 127.345 88.345 126.845 92.0944 125.824L93.489 129.862L93.8377 132.883C91.1494 128.558 88.9008 131.544 87.6729 133.51L86.0004 130.584L82.0842 126.425L80.1489 121.807L80.6694 120.059L80.6643 120.064Z" fill="#010101"/>
<path d="M44.3935 158.203L39.401 157.283L38.6936 157.364L42.0792 160.163L49.1282 164.231L59.1686 165.04C49.6789 163.165 50.73 160.643 51.8972 159.466L44.3935 158.203Z" fill="#010101"/>
<path d="M57.5717 51.5898C54.7471 58.6894 55.2322 73.4999 57.3191 80.6399L57.8143 70.2912L58.8148 60.9279L60.4975 52.4236L57.5717 51.5898Z" fill="#010101"/>
<path d="M128.244 59.8047C122.61 72.3363 112.448 83.165 108.072 87.0155L115.672 80.0069L122.776 72.9023L126.541 68.304L130.72 62.4525L132.812 59.1074L128.244 59.8047Z" fill="#010101"/>
<path d="M61.7305 35.449C58.3702 40.6334 56.2883 37.2074 55.6719 34.8477V38.4303L57.1524 41.1387L59.3505 43.0184L59.2444 39.4662L61.7305 35.449Z" fill="#010101"/>
<path d="M87.6526 170.139C95.4141 171.064 90.5885 165.662 83.7668 164.692L89.2595 164.363L90.351 159.113C95.9043 177.85 101.655 164.515 99.5425 157.496L103.459 162.059L102.504 168.421L101.038 170.412L91.2706 171.539L87.6526 170.134V170.139Z" fill="#010101"/>
</g>
<defs>
<clipPath id="clip0_2458_940">
<rect width="131.455" height="150" fill="white" transform="translate(34.7725 25)"/>
</clipPath>
</defs>
</svg>
