<svg width="201" height="200" viewBox="0 0 201 200" fill="none" xmlns="http://www.w3.org/2000/svg">
<g clip-path="url(#clip0_2458_965)">
<path fill-rule="evenodd" clip-rule="evenodd" d="M41.8698 38.3853L40.9599 40.3797C40.616 41.1256 39.7908 41.4272 39.0924 41.1944L58.4019 65.3603C77.9706 42.4588 101.406 29.9685 116.579 34.1266C115.605 31.9947 117.595 29.5558 119.97 30.2542L124.647 31.6349C124.705 31.6508 124.773 31.6508 124.821 31.6085L128.921 28.958C131.122 27.5244 133.915 29.614 133.169 32.1375L131.788 36.8141C131.772 36.8723 131.788 36.941 131.815 36.9887L134.465 41.0886C135.105 42.062 135.047 43.1624 134.56 44.0141C140.433 48.8335 149.966 60.4986 150.474 76.8878C151.177 99.2233 136.55 128.5 120.621 143.259C98.0841 164.135 77.7854 176.165 59.079 169.811C56.6773 169.377 54.4236 168.631 52.3498 167.568C52.3392 167.568 52.3287 167.558 52.3181 167.558C52.3075 167.547 52.2863 167.542 52.2863 167.542L52.2652 167.531C41.965 162.225 36.1669 153.597 32.5696 145.709C30.1995 141.302 29.1415 135.689 29.316 129.261L25.6234 130.891C23.8671 131.663 22.0948 129.838 22.9254 128.108L24.9146 123.95L23.0577 119.744C22.2747 117.983 24.1104 116.216 25.8403 117.041L29.9879 119.03L30.5487 118.792C32.2892 110.063 35.8178 100.466 41.0075 90.7324L13.4188 87.9286C14.2653 88.32 14.5985 89.4522 13.9531 90.2563L12.3872 92.2243C12.0645 92.6263 11.5514 92.8379 11.0329 92.785L1.84373 91.8063C0.298977 91.6423 -0.0290189 89.5474 1.37819 88.9073L5.24008 87.1456C5.48872 87.0345 5.7691 86.9975 6.03891 87.0186H6.04949C5.4993 86.6906 5.16073 86.0664 5.22421 85.3945C5.29298 84.601 5.90665 83.9926 6.65258 83.8815H6.56264C6.23994 83.8445 5.9331 83.7016 5.70033 83.4847L2.6743 80.7126C1.55806 79.6863 2.4574 77.8453 3.94397 78.0887L13.2548 79.5911C13.7944 79.681 14.2388 80.0408 14.4345 80.5487L15.2175 82.6066C15.5508 83.4689 15.0535 84.3576 14.26 84.6063L42.7798 87.5106C44.9752 83.654 47.4246 79.7869 50.1226 75.9673L23.4915 57.991C24.0628 58.7422 23.8142 59.9008 22.8672 60.3081L20.5607 61.2974C20.0845 61.5037 19.5291 61.4508 19.1058 61.1599L11.4614 55.9437C10.1865 55.0761 10.8742 53.071 12.4243 53.1663L16.6565 53.4467C16.9316 53.4625 17.1961 53.5578 17.4183 53.7112L17.577 53.8223C17.2331 53.2721 17.2278 52.5526 17.6087 51.9813C18.0478 51.3306 18.8519 51.0766 19.5608 51.32L19.3704 51.1824C19.1006 51.0026 18.8995 50.738 18.7937 50.4418L17.4394 46.564C16.9368 45.1357 18.6033 43.9348 19.8042 44.85L27.2952 50.5793C27.729 50.9073 27.9459 51.4469 27.8824 51.9813L27.602 54.1608C27.4856 55.0708 26.6392 55.6262 25.8139 55.4675L52.1065 73.2164C53.4343 71.4335 54.7781 69.6983 56.1482 68.0107L33.2626 39.3322L35.6379 42.3741C36.3838 43.3211 35.7913 44.7019 34.601 44.8235L32.0934 45.0828C31.5803 45.1357 31.0671 44.924 30.7444 44.5114L25.0151 37.2638C24.0522 36.0417 25.3113 34.3435 26.7556 34.899L30.718 36.4279C30.9772 36.5231 31.284 36.6236 31.448 36.8405C31.0671 36.1369 31.3687 35.5815 32.0194 35.063C32.5537 34.6292 33.2732 34.5763 33.8498 34.8726C33.7334 34.6662 33.6752 34.4335 33.6646 34.1901L33.5271 30.0902C33.4795 28.5772 35.421 27.9212 36.2939 29.1538L41.7323 36.8617C42.0444 37.3061 42.0973 37.8774 41.8698 38.3747V38.3853ZM52.7625 167.579C52.6937 167.589 52.6196 167.595 52.5509 167.589C52.6567 167.563 52.7889 167.51 52.9212 167.425C52.8736 167.483 52.8312 167.536 52.7625 167.579ZM52.1223 166.753L52.0906 166.743C52.0536 166.785 52.0165 166.833 51.9901 166.886C51.9848 166.976 52.0007 167.071 52.0218 167.155C52.0218 167.039 52.0589 166.891 52.1223 166.753Z" fill="#010101"/>
<path fill-rule="evenodd" clip-rule="evenodd" d="M33.8444 34.8778L33.5164 30.0955C33.4688 28.5824 35.4103 27.9264 36.2832 29.1591L41.7216 36.867C42.0337 37.3114 42.0867 37.8827 41.8592 38.38L40.9492 40.3744C40.8434 40.6125 40.6847 40.8029 40.4996 40.9511C40.3197 41.0833 40.1187 41.1733 39.9071 41.2209C39.6373 41.2896 39.3463 41.2738 39.0818 41.1891L58.3912 65.355C59.0366 64.5932 59.6821 63.8579 60.3328 63.1172C78.1874 43.1307 98.8353 31.7407 113.431 33.513C114.516 33.6399 115.568 33.841 116.584 34.1266C116.108 33.095 116.33 31.9894 116.954 31.2117C117.626 30.3758 118.743 29.8944 119.975 30.2542L124.652 31.6349C124.71 31.6508 124.779 31.6508 124.826 31.6085L128.926 28.958C131.127 27.5244 133.92 29.614 133.174 32.1375L131.794 36.8141C131.778 36.8723 131.794 36.941 131.82 36.9887L134.47 41.0886C135.111 42.062 135.052 43.1624 134.566 44.0141C140.438 48.8335 149.971 60.4986 150.479 76.8878C151.182 99.2233 136.555 128.5 120.626 143.259C98.0893 164.135 77.7906 176.165 59.0843 169.811C57.5818 169.541 56.1429 169.15 54.7674 168.637C54.651 168.594 54.5293 168.552 54.413 168.499C54.3918 168.489 54.3653 168.483 54.3442 168.473C54.1167 168.388 53.8998 168.288 53.6776 168.203C53.5665 168.15 53.4607 168.108 53.3496 168.055C53.2279 168.002 53.1116 167.949 52.9899 167.886C52.9317 167.859 52.8629 167.833 52.7994 167.806C52.7307 167.759 52.6513 167.727 52.5719 167.69C52.5614 167.679 52.5508 167.679 52.5508 167.669C52.482 167.642 52.4132 167.605 52.3498 167.568C52.3392 167.568 52.3286 167.558 52.318 167.558C52.3074 167.547 52.2863 167.542 52.2863 167.542L52.2651 167.531C52.2175 167.505 52.1752 167.489 52.1276 167.462C52.027 167.409 51.9265 167.357 51.826 167.298C51.8154 167.288 51.8049 167.288 51.7943 167.282C51.7625 167.267 51.7255 167.245 51.6938 167.23C51.6356 167.203 51.5721 167.166 51.5139 167.129C51.334 167.039 51.1647 166.949 51.006 166.849C50.4294 166.526 49.8792 166.198 49.3343 165.854C49.3026 165.838 49.2761 165.817 49.2444 165.801C40.8011 160.469 35.7965 152.798 32.5642 145.709C30.5962 142.053 29.5329 137.551 29.3318 132.441C29.2842 131.409 29.2842 130.351 29.3107 129.261L25.6181 130.891C23.8617 131.663 22.0895 129.838 22.92 128.108L24.9092 123.95L23.0523 119.744C22.2693 117.983 24.1051 116.216 25.835 117.041L29.9825 119.03L30.5433 118.792C30.6438 118.252 30.7655 117.713 30.8872 117.163C30.9401 116.887 31.0089 116.602 31.0723 116.327C32.7546 109.121 35.6114 101.392 39.5632 93.5151C40.0287 92.5893 40.5102 91.6635 41.0021 90.7324L13.4134 87.9286C14.2599 88.32 14.5932 89.4522 13.9478 90.2563L12.3818 92.2243C12.0591 92.6263 11.546 92.8379 11.0275 92.785L1.83836 91.8063C0.293606 91.6423 -0.03439 89.5474 1.37282 88.9073L5.23471 87.1456C5.48335 87.0345 5.76373 86.9975 6.03354 87.0186H6.04412C6.04412 87.0186 6.03354 87.0186 6.03354 87.0081C5.87483 86.9181 5.73199 86.7859 5.61032 86.6483C5.32464 86.3097 5.17652 85.8601 5.22413 85.3892C5.27703 84.8338 5.59445 84.3629 6.03883 84.0984C6.19754 84.0032 6.37211 83.9397 6.55727 83.8974C6.58372 83.8868 6.62605 83.8868 6.6525 83.8709H6.56256C6.23986 83.8339 5.93302 83.6911 5.70025 83.4742L2.67422 80.7021C1.55798 79.6758 2.45732 77.8348 3.94388 78.0781L13.2547 79.5805C13.7943 79.6705 14.2387 80.0302 14.4345 80.5381L15.2174 82.596C15.5507 83.4583 15.0534 84.3471 14.2599 84.5957L42.7797 87.5C44.5149 84.4423 46.4088 81.3898 48.4614 78.3585C49.0063 77.5544 49.5565 76.7608 50.1226 75.9567L23.4914 57.9804C24.0627 58.7316 23.8141 59.8902 22.8671 60.2975L20.5606 61.2868C20.0845 61.4931 19.529 61.4402 19.1058 61.1493L11.4613 55.9331C10.1864 55.0655 10.8741 53.0605 12.4242 53.1557L16.6564 53.4361C16.9315 53.4519 17.196 53.5472 17.4182 53.7006L17.5769 53.8117C17.5346 53.7482 17.5028 53.69 17.4711 53.6212C17.4288 53.5154 17.3917 53.4096 17.3706 53.3038C17.2648 52.8594 17.3388 52.3727 17.6086 51.9707C17.9155 51.4998 18.4233 51.2353 18.9471 51.2195C19.074 51.2142 19.201 51.2195 19.3174 51.2406C19.4073 51.2565 19.4867 51.2829 19.566 51.3094L19.3756 51.1718C19.1058 50.992 18.9047 50.7275 18.7989 50.4312L17.4446 46.5534C16.9421 45.1251 18.6085 43.9242 19.8094 44.8394L27.3004 50.5688C27.7342 50.8968 27.9511 51.4364 27.8876 51.9707L27.6072 54.1503C27.4908 55.0602 26.6444 55.6157 25.8191 55.457L52.1117 73.2058C53.4395 71.423 54.7833 69.6878 56.1535 68.0002L33.2625 39.3322L35.6378 42.3741C36.3838 43.3211 35.7912 44.7019 34.6009 44.8235L32.0934 45.0828C31.5802 45.1357 31.067 44.924 30.7443 44.5114L25.015 37.2638C24.0522 36.0417 25.3112 34.3435 26.7555 34.899L30.7179 36.4279C30.9771 36.5231 31.2839 36.6236 31.4479 36.8405M33.3048 34.7086C32.8551 34.6504 32.3949 34.7615 32.0193 35.0683C31.813 35.2217 31.6648 35.4227 31.559 35.6449C31.4691 35.8248 31.4109 36.0205 31.3897 36.2269C31.3686 36.4332 31.3897 36.6448 31.4479 36.8458M33.3048 34.7086C33.49 34.7297 33.6804 34.7879 33.8497 34.8778C33.7333 34.6715 33.6751 34.4388 33.6646 34.1954L33.8497 34.8778M52.0535 166.785C52.0376 166.817 52.0059 166.843 51.99 166.886V166.933C51.99 166.933 51.99 166.97 51.99 166.991C51.99 167.05 52.0059 167.108 52.0165 167.155C52.0218 167.087 52.027 167.007 52.0535 166.923C52.0641 166.912 52.0641 166.902 52.0641 166.891C52.0747 166.88 52.0747 166.87 52.0747 166.859C52.0852 166.849 52.0905 166.827 52.0905 166.812C52.1011 166.79 52.1064 166.78 52.117 166.764V166.753L52.0852 166.743C52.0852 166.743 52.0747 166.753 52.0641 166.764C52.0641 166.764 52.057 166.771 52.0429 166.785H52.0535ZM52.7307 167.531C52.6619 167.552 52.609 167.573 52.5508 167.589C52.6196 167.595 52.6989 167.589 52.7624 167.579C52.7994 167.547 52.8365 167.515 52.8735 167.478C52.8735 167.478 52.8841 167.478 52.8841 167.468C52.9052 167.457 52.9105 167.436 52.9211 167.425C52.8999 167.436 52.8947 167.446 52.8735 167.457L52.8153 167.489C52.8153 167.489 52.7783 167.51 52.7465 167.52C52.7465 167.52 52.7359 167.521 52.7254 167.531H52.7307Z" fill="white"/>
<path d="M150.474 76.8875C149.923 59.1863 138.851 46.9923 133.233 42.9876C133.132 42.9135 133.005 42.9082 132.899 42.9717L66.7182 80.3685C66.66 80.4003 66.6124 80.4532 66.5912 80.5219L37.0557 152.11C37.0134 152.221 37.0345 152.337 37.098 152.417C61.7189 184.454 88.969 172.583 120.615 143.254C136.555 128.494 151.177 99.2177 150.479 76.8822L150.474 76.8875Z" fill="#010101"/>
<path d="M52.9583 166.499C52.9265 166.473 53.0006 166.526 52.9583 166.499C70.2045 175.361 100.132 162.299 123.514 130.547C146.019 99.9903 150.839 69.2433 138.803 52.0606C133.206 44.2839 125.281 39.5385 121.335 36.8775C120.028 36.0046 118.367 36.2163 117.24 37.3008L86.6678 66.6617C83.6259 69.3015 80.6052 72.19 77.6479 75.3166L75.6799 77.2052C75.5107 77.3692 75.3625 77.5385 75.225 77.7342L74.4314 78.8505C71.7281 81.9135 69.0989 85.1723 66.5595 88.6163C63.2002 93.1871 60.1901 97.8213 57.5502 102.445L31.538 138.821C30.808 139.847 32.2258 143.418 32.7336 144.566C36.2728 152.634 42.4095 161.088 52.953 166.51L52.9583 166.499Z" fill="#C62129"/>
<path fill-rule="evenodd" clip-rule="evenodd" d="M116.812 36.8501C118.134 35.5858 120.118 35.3159 121.684 36.3634C122.086 36.6385 122.546 36.9348 123.038 37.2628C127.249 40.0349 134.222 44.6321 139.301 51.6946C145.453 60.4711 147.241 72.6334 144.712 86.3987C142.178 100.164 135.306 115.574 124.017 130.911C112.278 146.856 98.7772 158.256 86.0223 164.557C73.3151 170.842 61.1317 172.545 52.3551 167.567C52.3445 167.567 52.334 167.557 52.3234 167.557C52.3128 167.546 52.2916 167.541 52.2916 167.541L52.2705 167.53C41.5683 162.018 35.7331 152.924 32.1622 144.803C31.9136 144.221 31.411 143.01 31.0724 141.809C30.9084 141.206 30.7656 140.587 30.7285 140.037C30.6862 139.513 30.718 138.899 31.0354 138.455L57.0264 102.1C59.6768 97.4659 62.6923 92.8105 66.0622 88.245C68.5962 84.7904 71.2308 81.5316 73.9394 78.458L74.717 77.3629C74.8705 77.1407 75.0503 76.9397 75.2461 76.7545L77.2035 74.8765C80.166 71.7447 83.1921 68.8509 86.2445 66.2058L116.812 36.8554V36.8501ZM120.991 37.3844C119.949 36.6914 118.61 36.8395 117.669 37.7389L87.0751 67.1051L87.0645 67.1157C84.0438 69.7344 81.0442 72.6176 78.1028 75.7282L78.0922 75.7388L76.1084 77.638C75.9708 77.7703 75.8492 77.9237 75.7275 78.0718L74.9128 79.2198L74.8916 79.241C72.1989 82.2934 69.5749 85.5364 67.0568 88.9698C63.7027 93.5194 60.7137 98.1325 58.0845 102.735L58.0686 102.767L32.0405 139.174C31.9929 139.232 31.9294 139.46 31.9559 139.926C31.9982 140.37 32.1093 140.899 32.2627 141.47C32.5854 142.592 33.0563 143.74 33.2943 144.301C36.8123 152.294 42.4782 161.081 52.8101 166.414C52.8313 166.424 52.8524 166.43 52.8577 166.44C52.8683 166.44 52.8789 166.451 52.8894 166.451L52.9 166.461C61.2004 170.948 72.9184 169.651 85.4669 163.446C98.0154 157.251 111.363 145.983 123.012 130.181C134.211 114.961 140.993 99.7143 143.49 86.1765C145.982 72.6281 144.178 60.8309 138.285 52.4141C133.338 45.5579 126.572 41.0929 122.356 38.3102C121.853 37.9822 121.393 37.6754 120.98 37.3897L120.991 37.3844Z" fill="#010101"/>
<path d="M37.9974 152.056C53.7253 163.632 85.4246 147.279 108.818 115.527C132.201 83.7645 138.412 48.6319 122.679 37.0463C106.956 25.4712 75.2514 41.8234 51.8685 73.5861C28.4749 105.338 22.2747 140.471 37.9974 152.056Z" fill="#ECF8FE"/>
<path fill-rule="evenodd" clip-rule="evenodd" d="M69.9663 148.941C82.5783 142.428 96.2166 130.552 107.823 114.781C119.43 99.0269 126.726 82.4737 129.196 68.4968C131.677 54.4406 129.222 43.4052 121.943 38.0408C114.664 32.6818 103.401 33.6182 90.7041 40.1622C78.0921 46.6745 64.4644 58.5617 52.8576 74.3161C41.2508 90.0705 33.9449 106.624 31.4744 120.601C28.9933 134.662 31.4479 145.703 38.7273 151.057C46.0067 156.416 57.275 155.479 69.9663 148.935V148.941ZM108.818 115.527C85.4244 147.279 53.7199 163.637 37.9973 152.056C22.2693 140.471 28.4748 105.338 51.8683 73.5861C75.246 41.8234 106.951 25.4712 122.678 37.0463C138.412 48.6319 132.201 83.7645 108.818 115.527Z" fill="#010101"/>
<path d="M42.5471 139.735C54.958 148.877 80.637 135.09 99.8882 108.946C119.139 82.8016 124.678 54.1919 112.267 45.0503C99.8459 35.9087 74.1776 49.6951 54.921 75.8396C35.6698 101.984 30.1309 130.588 42.5524 139.735H42.5471Z" fill="#EE3446"/>
<path fill-rule="evenodd" clip-rule="evenodd" d="M67.935 136.234C78.0658 130.79 89.133 120.982 98.6608 108.047C108.189 95.1179 114.272 81.633 116.457 70.3436C118.669 58.9166 116.822 50.3041 111.357 46.2835C105.903 42.2629 97.1213 43.0511 86.8794 48.553C76.738 53.9967 65.6707 63.8154 56.143 76.7395C46.6258 89.6742 40.542 103.154 38.3571 114.454C36.1352 125.87 37.9921 134.493 43.4464 138.514C48.9112 142.534 57.6824 141.736 67.935 136.234ZM99.8881 108.952C80.6369 135.096 54.9632 148.877 42.547 139.741C30.1255 130.589 35.6644 101.99 54.9156 75.8455C74.1775 49.701 99.8405 35.9146 112.262 45.0561C124.673 54.1977 119.134 82.8074 99.8828 108.952H99.8881Z" fill="#010101"/>
<path d="M46.5675 133.213C56.1005 140.238 77.251 127.695 93.7989 105.201C110.357 82.7175 116.066 58.8002 106.527 51.7853C97.0048 44.7704 75.8543 57.3031 59.2958 79.7972C42.7373 102.286 37.0397 126.198 46.5675 133.213Z" fill="#EE3446"/>
<path d="M129.286 71.3117C137.163 62.0961 143.49 70.0949 145.675 75.2529L146.606 65.4448L142.85 58.213C138.01 64.0376 132.91 57.2184 130.968 53.0762C131.302 57.155 130.751 62.0961 130.429 64.0535L129.281 71.317L129.286 71.3117Z" fill="#010101"/>
<path d="M52.4239 128.304C60.8089 134.477 79.0656 123.934 93.1959 104.746C107.326 85.5583 111.982 64.9951 103.586 58.8213C95.2009 52.637 76.9442 63.1911 62.8139 82.3736C48.6942 101.561 44.0388 122.125 52.4239 128.309V128.304Z" fill="#ECF8FE"/>
<path fill-rule="evenodd" clip-rule="evenodd" d="M69.8976 124.712C77.0553 120.58 85.0013 113.301 91.9685 103.836C98.9411 94.3721 103.522 84.6275 105.353 76.5598C106.268 72.5287 106.464 68.9895 105.993 66.1486C105.512 63.3183 104.379 61.2816 102.687 60.0437C100.994 58.8004 98.7189 58.319 95.8622 58.6999C93.0107 59.0808 89.6884 60.324 86.1175 62.3978C78.9545 66.5401 71.0085 73.8089 64.036 83.2732C57.0687 92.7375 52.482 102.487 50.6516 110.55C49.747 114.581 49.5407 118.12 50.0168 120.961C50.4982 123.791 51.6303 125.828 53.3232 127.077C55.0055 128.325 57.2909 128.801 60.137 128.42C62.9885 128.029 66.3055 126.786 69.8923 124.717L69.8976 124.712ZM93.1959 104.741C79.0656 123.929 60.8089 134.472 52.4238 128.299C44.0388 122.114 48.6889 101.551 62.8139 82.3633C76.9442 63.1861 95.2009 52.632 103.586 58.811C111.982 64.9848 107.331 85.548 93.1959 104.736V104.741Z" fill="#010101"/>
<path d="M60.2798 114.803C65.1416 118.384 76.4892 111.232 85.6307 98.8262C94.7617 86.4153 98.2321 73.4542 93.3704 69.8726C88.4981 66.2911 77.1505 73.4436 68.0089 85.8598C58.8779 98.2655 55.4022 111.227 60.2745 114.803H60.2798Z" fill="#EE3446"/>
<path fill-rule="evenodd" clip-rule="evenodd" d="M70.5378 111.517C74.9234 108.75 79.9121 104.005 84.3982 97.9159C88.8844 91.8268 91.9316 85.6531 93.27 80.6432C93.9419 78.1303 94.1641 75.9931 93.9842 74.3266C93.7938 72.6708 93.2224 71.6551 92.4659 71.0996C91.6988 70.5335 90.5614 70.2902 88.9214 70.6076C87.2814 70.9144 85.3082 71.7662 83.1021 73.1522C78.7165 75.919 73.7278 80.6644 69.2417 86.7535C64.7555 92.8426 61.7083 99.0163 60.3752 104.037C59.7033 106.55 59.4811 108.687 59.661 110.343C59.8514 111.999 60.4228 113.014 61.1793 113.58C61.9464 114.141 63.0838 114.379 64.7238 114.062C66.3638 113.755 68.337 112.903 70.5431 111.517H70.5378ZM85.6309 98.8258C76.4893 111.231 65.1417 118.384 60.28 114.802C55.4076 111.221 58.878 98.2598 68.0143 85.8594C77.1559 73.4485 88.5035 66.2907 93.3758 69.8723C98.2376 73.4538 94.7672 86.4149 85.6362 98.8258H85.6309Z" fill="#010101"/>
<path d="M68.9612 103.022C71.1461 104.635 76.5739 100.979 81.0812 94.8692C85.5885 88.7484 87.4612 82.4847 85.2764 80.8712C83.0915 79.2682 77.6637 82.9238 73.1617 89.0341C68.6544 95.1443 66.7816 101.419 68.9665 103.022H68.9612Z" fill="#ECF8FE"/>
<path fill-rule="evenodd" clip-rule="evenodd" d="M73.3044 100.577C75.3147 99.2284 77.6689 96.9218 79.8485 93.9646C82.0281 91.0126 83.5305 88.0765 84.2182 85.7488C84.5727 84.5744 84.6944 83.6433 84.6467 82.9873C84.6044 82.3154 84.414 82.1409 84.3611 82.1038C84.3188 82.0774 84.0913 81.9398 83.4353 82.0985C82.7899 82.252 81.9434 82.6434 80.9224 83.3206C78.9121 84.6749 76.5579 86.9814 74.3784 89.944C72.1988 92.896 70.6963 95.832 70.0086 98.1598C69.6542 99.3236 69.5325 100.255 69.5801 100.921C69.6224 101.593 69.8129 101.768 69.8658 101.805C69.9081 101.831 70.1356 101.969 70.7916 101.81C71.437 101.651 72.2834 101.265 73.3044 100.577ZM81.0811 94.8692C76.5738 100.979 71.146 104.635 68.9611 103.022C66.7763 101.419 68.649 95.1443 73.1563 89.0341C77.6636 82.9238 83.0914 79.2682 85.271 80.8712C87.4559 82.4847 85.5831 88.7484 81.0758 94.8692H81.0811Z" fill="#010101"/>
<path d="M131.921 31.7724C132.317 30.4128 130.815 29.2913 129.625 30.0583L125.535 32.7141C125.165 32.9521 124.705 33.0156 124.276 32.8886L119.6 31.5079C118.24 31.1111 117.118 32.6135 117.885 33.8038L120.536 37.8932C120.785 38.2635 120.848 38.7238 120.721 39.147L119.34 43.8289C118.944 45.1779 120.446 46.31 121.636 45.5324L125.726 42.8819C126.096 42.6439 126.556 42.5698 126.979 42.6968L131.661 44.0775C133.01 44.4743 134.142 42.9719 133.365 41.7921L130.714 37.6922C130.476 37.3219 130.402 36.8616 130.529 36.4384L131.91 31.7618L131.921 31.7724Z" fill="#FEE200"/>
<path fill-rule="evenodd" clip-rule="evenodd" d="M124.821 31.6085L128.91 28.958C131.122 27.5244 133.91 29.614 133.169 32.1375L131.788 36.8141L130.535 36.4438L131.915 31.7672C132.312 30.4076 130.81 29.286 129.619 30.0531L125.53 32.7088C125.16 32.9469 124.699 33.0104 124.271 32.8834L119.594 31.5027C118.235 31.1059 117.113 32.6083 117.88 33.7986L120.531 37.888L119.436 38.6022L116.785 34.5128C115.352 32.3015 117.441 29.5135 119.965 30.2542L124.641 31.6349C124.699 31.6508 124.768 31.6508 124.816 31.6085H124.821ZM121.636 45.5377C120.446 46.3101 118.944 45.1833 119.34 43.8343L120.721 39.1524C120.848 38.7292 120.79 38.2636 120.536 37.8986L119.441 38.6128C119.483 38.671 119.483 38.7292 119.467 38.7873L118.087 43.4692C117.346 45.9821 120.134 48.0718 122.345 46.6381L126.435 43.9877C126.482 43.9559 126.551 43.9454 126.609 43.9612L131.291 45.342C133.804 46.0826 135.894 43.2946 134.46 41.0939L131.81 36.994C131.778 36.9463 131.767 36.8776 131.783 36.8194L130.529 36.4491C130.402 36.8723 130.471 37.3378 130.714 37.7028L133.365 41.8028C134.137 42.9825 133.01 44.485 131.661 44.0882L126.98 42.7074C126.556 42.5805 126.091 42.6492 125.726 42.8926L121.636 45.543V45.5377Z" fill="#010101"/>
<path d="M35.7438 119.395C36.0559 118.76 35.3999 118.088 34.7545 118.368L30.3107 120.32C30.1097 120.405 29.8769 120.41 29.6759 120.31L25.3008 118.215C24.6554 117.903 23.9835 118.559 24.2639 119.204L26.2266 123.648C26.3113 123.849 26.306 124.082 26.2054 124.283L24.1105 128.658C23.809 129.293 24.465 129.975 25.0998 129.684L29.5436 127.732C29.7552 127.642 29.988 127.653 30.1837 127.743L34.5588 129.848C35.1936 130.15 35.8655 129.499 35.5851 128.848L33.633 124.415C33.5377 124.204 33.543 123.971 33.6436 123.775L35.7385 119.4L35.7438 119.395Z" fill="#FEE200"/>
<path fill-rule="evenodd" clip-rule="evenodd" d="M34.2202 117.172C35.9871 116.4 37.7541 118.235 36.9235 119.965L34.9344 124.113L36.7807 128.329C37.5636 130.085 35.7279 131.858 33.998 131.027L29.8504 129.038L25.6341 130.895C23.8777 131.667 22.1055 129.842 22.936 128.112L24.9252 123.954L23.0683 119.748C22.2853 117.987 24.1211 116.22 25.851 117.045L29.9985 119.034L34.2149 117.177L34.2202 117.172ZM34.7492 118.373C35.3999 118.092 36.0506 118.759 35.7385 119.399L33.6435 123.774C33.543 123.975 33.5377 124.208 33.633 124.414L35.5851 128.848C35.8654 129.498 35.1989 130.149 34.5587 129.847L30.1837 127.742C29.9827 127.652 29.7499 127.647 29.5436 127.731L25.0998 129.683C24.4596 129.974 23.8089 129.297 24.1105 128.657L26.2054 124.282C26.3059 124.081 26.3112 123.848 26.2266 123.647L24.2639 119.203C23.9835 118.553 24.6501 117.902 25.3008 118.214L29.6758 120.309C29.8769 120.404 30.1096 120.404 30.3107 120.32L34.7545 118.368L34.7492 118.373Z" fill="#010101"/>
<path fill-rule="evenodd" clip-rule="evenodd" d="M80.055 90.1191C80.219 90.1403 80.346 90.299 80.3248 90.4683C80.2243 91.2777 79.8752 92.3834 79.3567 93.3832C78.8383 94.3619 78.1135 95.2983 77.193 95.6528C77.029 95.7162 76.8544 95.6369 76.7962 95.4888C76.7327 95.3248 76.8121 95.1502 76.9602 95.0814C77.6691 94.8063 78.3039 94.0392 78.8065 93.0923C79.2985 92.1665 79.6106 91.119 79.7059 90.3942C79.727 90.2302 79.8857 90.1033 80.055 90.1244V90.1191Z" fill="#010101"/>
<g opacity="0.4">
<path d="M105.776 92.0918L102.44 92.2241C102.08 92.2452 101.777 92.4304 101.678 92.6896L80.4041 153.385L84.3047 152.512L105.783 92.0918H105.776Z" fill="#010101"/>
<path fill-rule="evenodd" clip-rule="evenodd" d="M106.312 91.7539L84.6362 152.756L79.8115 153.846L101.276 92.6109C101.41 92.2247 101.868 91.9496 102.404 91.9179L106.312 91.7539ZM105.219 92.4258L102.454 92.5422C102.27 92.5474 102.122 92.6427 102.08 92.7696L80.9895 152.93L83.9591 152.264L105.226 92.4258H105.219Z" fill="#010101"/>
</g>
<path d="M27.9089 51.98L27.6286 54.1596C27.4857 55.297 26.2002 55.8683 25.2532 55.2229L19.3969 51.1812C19.1271 51.0013 18.9261 50.7368 18.8203 50.4405L17.466 46.5628C16.9634 45.1344 18.6298 43.9335 19.8307 44.8487L27.3217 50.5781C27.7555 50.9061 27.9724 51.4457 27.9089 51.98Z" fill="#FEE200"/>
<path d="M20.5819 61.2912L22.8885 60.3019C23.9941 59.8311 24.1423 58.3287 23.1583 57.6515L17.4448 53.7103C17.2226 53.5569 16.9581 53.4616 16.683 53.4458L12.4508 53.1654C10.9007 53.0702 10.213 55.0752 11.488 55.9534L19.1271 61.159C19.5503 61.4499 20.1058 61.5028 20.5819 61.2965V61.2912Z" fill="#FEE200"/>
<path fill-rule="evenodd" clip-rule="evenodd" d="M26.8773 54.071L27.1577 51.8862C27.1842 51.6111 27.0731 51.3465 26.8615 51.1773L19.3704 45.4479C18.7674 44.9877 17.9368 45.5907 18.1854 46.3102L19.5397 50.1774C19.5926 50.3308 19.6984 50.4631 19.8307 50.553L19.4022 51.1773C19.1324 50.9974 18.9314 50.7329 18.8255 50.4366L17.4712 46.5589C16.9687 45.1305 18.6351 43.9296 19.836 44.8448L27.327 50.5742C27.7608 50.9022 27.9777 51.4418 27.9142 51.9761L27.6338 54.1557C27.491 55.2931 26.2055 55.8644 25.2585 55.219L19.4022 51.1773L19.8307 50.553L25.687 54.5948C26.1578 54.9122 26.8085 54.6318 26.8773 54.0657V54.071ZM20.2751 60.5992L22.5922 59.6099C23.1371 59.3719 23.2165 58.6207 22.7139 58.2821L17.0057 54.3408C16.8946 54.2668 16.7571 54.2139 16.6195 54.2139L12.3873 53.9335C11.6149 53.8806 11.2711 54.891 11.9059 55.3248L19.545 60.5304C19.7566 60.6786 20.0317 60.705 20.2698 60.6045L20.2751 60.5992ZM22.8885 60.303L20.5819 61.2922C20.1058 61.4986 19.5503 61.4457 19.1271 61.1547L11.488 55.9491C10.213 55.0762 10.9007 53.0659 12.4508 53.1611L16.683 53.4415C16.9581 53.4574 17.2226 53.5526 17.4448 53.706L23.1583 57.6472C24.1423 58.3244 23.9994 59.8268 22.8885 60.2977V60.303Z" fill="#010101"/>
<path d="M78.4519 93.949L79.2983 92.6741C79.4888 92.3937 79.4147 92.0075 79.1343 91.817L19.8146 51.7751C19.1798 51.3466 18.3122 51.5106 17.889 52.156C17.4711 52.7855 17.6351 53.6478 18.2699 54.0763L77.5948 94.1183C77.8752 94.3088 78.2614 94.2347 78.4519 93.9543V93.949Z" fill="#010101"/>
<path fill-rule="evenodd" clip-rule="evenodd" d="M17.6352 51.9814C18.1536 51.1985 19.217 50.9921 19.9894 51.5159L79.3037 91.5578C79.7376 91.8488 79.8381 92.4201 79.5577 92.8487L78.7112 94.1236C78.4203 94.5468 77.8383 94.6579 77.4204 94.3775L18.0902 54.325C17.3178 53.8066 17.1062 52.7538 17.6352 51.9814ZM19.6402 52.029C19.1482 51.701 18.4711 51.828 18.1484 52.3306C17.8204 52.8226 17.9473 53.4891 18.4393 53.8171L77.7643 93.8591C77.9071 93.9596 78.0976 93.9226 78.1875 93.7797L79.0445 92.5048C79.1345 92.362 79.0974 92.1715 78.9546 92.071L19.6402 52.029Z" fill="#010101"/>
<path d="M41.8697 38.385L40.9598 40.3794C40.4837 41.4216 39.0765 41.5856 38.3781 40.681L33.9872 35.0839C33.7915 34.8193 33.6804 34.5125 33.6645 34.1951L33.527 30.0951C33.4794 28.5821 35.4209 27.9261 36.2938 29.1588L41.7322 36.8667C42.0443 37.3111 42.0972 37.8824 41.8697 38.3797V38.385Z" fill="#FEE200"/>
<path d="M32.0987 45.0871L34.6062 44.8279C35.7965 44.7062 36.5213 43.3466 35.7807 42.3997L31.3739 36.9084C31.1993 36.6915 30.9771 36.5275 30.7179 36.4323L26.7555 34.9034C25.3113 34.3479 24.0575 36.0461 25.015 37.2681L30.7443 44.5158C31.0671 44.9284 31.5802 45.14 32.0934 45.0871H32.0987Z" fill="#FEE200"/>
<path fill-rule="evenodd" clip-rule="evenodd" d="M40.2616 40.0619L41.1821 38.0622C41.2879 37.8136 41.2668 37.5332 41.1081 37.3057L35.6697 29.5978C35.2306 28.9841 34.2572 29.3121 34.2783 30.0686L34.4265 34.1686C34.4265 34.322 34.4794 34.486 34.5799 34.6077L38.9708 40.2154C39.32 40.665 40.0183 40.5751 40.2563 40.0619H40.2616ZM32.0247 44.3312L34.5217 44.072C35.1248 44.0138 35.5004 43.3366 35.1248 42.8552L30.7709 37.3851C30.6863 37.274 30.5646 37.1893 30.4376 37.1364L26.4858 35.6128C25.761 35.3272 25.1315 36.1789 25.6129 36.7926L31.3422 44.0402C31.4957 44.2465 31.7549 44.3523 32.0194 44.3312H32.0247ZM40.9599 40.3794L41.8699 38.3849C42.1026 37.8876 42.0444 37.3163 41.7323 36.8719L36.2939 29.164C35.421 27.9314 33.4742 28.5821 33.5271 30.1004L33.6647 34.2003C33.6805 34.523 33.7916 34.8246 33.9874 35.0891L38.3783 40.6862C39.0819 41.5855 40.4838 41.4268 40.9599 40.3846V40.3794ZM34.6063 44.8232L32.0988 45.0824C31.5856 45.1353 31.0724 44.9237 30.7497 44.511L25.0204 37.2634C24.0576 36.0413 25.3166 34.3432 26.7609 34.8986L30.7233 36.4275C30.9825 36.5228 31.2047 36.6868 31.3793 36.9037L35.7861 42.3949C36.532 43.3419 35.8019 44.7015 34.6116 44.8232H34.6063Z" fill="#010101"/>
<path d="M77.542 93.271L79.2138 91.922L34.1566 35.5226C33.6805 34.9195 32.8023 34.8243 32.2098 35.3004C31.6067 35.7871 31.5115 36.6547 31.9982 37.2472L76.6639 93.1705C76.8808 93.435 77.2722 93.4827 77.542 93.2658V93.271Z" fill="#010101"/>
<path fill-rule="evenodd" clip-rule="evenodd" d="M32.0193 35.0677C32.7493 34.4805 33.8179 34.5969 34.4052 35.327L79.6475 91.9645L77.7324 93.5092C77.3409 93.8266 76.7537 93.7579 76.431 93.3664L31.7547 37.4431C31.1675 36.713 31.2839 35.6444 32.014 35.0677H32.0193ZM33.9238 35.7131C33.5534 35.2529 32.8657 35.1788 32.4107 35.5491C31.9399 35.9195 31.8764 36.5966 32.2362 37.0569L76.9071 92.9802C77.0182 93.1125 77.2139 93.1389 77.3462 93.0278L78.7799 91.8745L33.9238 35.7131Z" fill="#010101"/>
<path d="M14.4556 80.5436L15.2386 82.6015C15.6459 83.6701 14.7836 84.7917 13.6515 84.6594L6.58371 83.8764C6.26101 83.8447 5.95417 83.7019 5.7214 83.4903L2.69537 80.7182C1.57913 79.6918 2.47847 77.8508 3.96504 78.0942L13.2759 79.5966C13.8155 79.6866 14.2599 80.0463 14.4556 80.5542V80.5436Z" fill="#FEE200"/>
<path d="M12.4032 92.223L13.9691 90.255C14.7256 89.3134 14.1437 87.922 12.9534 87.7898L6.06016 87.0174C5.78507 86.9909 5.50468 87.0333 5.26133 87.1444L1.39944 88.906C-0.013058 89.5461 0.320228 91.6411 1.86498 91.8051L11.0542 92.7838C11.5726 92.8367 12.0858 92.6304 12.4085 92.223H12.4032Z" fill="#FEE200"/>
<path fill-rule="evenodd" clip-rule="evenodd" d="M14.5351 82.8754L13.7521 80.8175C13.6516 80.5689 13.4294 80.3837 13.1543 80.3414L3.84345 78.8337C3.09752 78.712 2.64256 79.6378 3.20333 80.1457L6.23994 82.9178C6.35103 83.0289 6.49916 83.1029 6.66845 83.1135L13.7362 83.907C14.3023 83.9705 14.7361 83.4151 14.5351 82.8807V82.8754ZM11.8106 91.7472L13.3765 89.7792C13.7521 89.3137 13.4717 88.6154 12.8739 88.5466L5.98071 87.7742C5.84317 87.7636 5.70033 87.7848 5.57336 87.843L1.71147 89.5941C1.00787 89.9168 1.17187 90.9695 1.94425 91.0542L11.1334 92.0329C11.3979 92.0593 11.6466 91.9535 11.8106 91.7472ZM15.244 82.6004L14.461 80.5424C14.2653 80.0346 13.8209 79.6748 13.2813 79.5849L3.97041 78.0825C2.47856 77.8391 1.58451 79.6801 2.70075 80.7064L5.72678 83.4785C5.95955 83.6901 6.26639 83.833 6.58909 83.8647L13.6569 84.6477C14.789 84.7799 15.6566 83.6637 15.244 82.5898V82.6004ZM13.969 90.2554L12.4031 92.2233C12.0804 92.6254 11.5672 92.837 11.0488 92.7841L1.8596 91.8054C0.314846 91.6414 -0.0131497 89.5465 1.39406 88.9063L5.25595 87.1447C5.50459 87.0336 5.78497 86.9966 6.05478 87.0177L12.948 87.7901C14.1383 87.9223 14.7202 89.3137 13.9637 90.2554H13.969Z" fill="#010101"/>
<path d="M78.6689 93.6264L78.8223 92.1028C78.854 91.759 78.6107 91.4627 78.2668 91.4204L7.06521 84.1833C6.30342 84.104 5.61568 84.6594 5.54691 85.4318C5.47284 86.183 6.02832 86.8602 6.78483 86.9396L77.997 94.1872C78.3409 94.2189 78.6371 93.9756 78.6741 93.6317L78.6689 93.6264Z" fill="#010101"/>
<path fill-rule="evenodd" clip-rule="evenodd" d="M5.24544 85.3938C5.33009 84.4574 6.16595 83.775 7.10232 83.8702L78.3039 91.1179C78.8118 91.1708 79.1821 91.6204 79.1292 92.1283L78.9864 93.6519C78.9335 94.1703 78.4838 94.5406 77.9653 94.4877L6.75846 87.2401C5.83266 87.1449 5.15022 86.3196 5.24544 85.3938ZM7.03884 84.4839C6.44104 84.4257 5.90673 84.8542 5.85911 85.452C5.80092 86.0392 6.22943 86.5629 6.81665 86.6264L78.0182 93.8741C78.1928 93.8952 78.3462 93.7736 78.3674 93.5937L78.5102 92.0701C78.5314 91.9061 78.4097 91.7421 78.2298 91.7315L7.03884 84.4839Z" fill="#010101"/>
<g opacity="0.4">
<path d="M83.2748 152.517L81.0176 153.2C80.6508 153.311 80.4321 153.596 80.5027 153.887L84.3046 169.684L85.5672 169.504L84.4104 153.062C84.3751 152.644 83.7967 152.364 83.2748 152.517Z" fill="#010101"/>
<path fill-rule="evenodd" clip-rule="evenodd" d="M83.1267 152.232C83.9026 151.999 84.7702 152.407 84.8266 153.052L86.0046 169.753L83.9731 170.055L80.1077 153.941C80.0019 153.507 80.3123 153.079 80.8625 152.915L83.1267 152.232ZM83.9943 153.079C83.9802 152.872 83.6839 152.729 83.437 152.814L81.1658 153.486C80.9894 153.539 80.8766 153.692 80.9118 153.835L84.6362 169.32L85.137 169.246L83.9943 153.079Z" fill="#010101"/>
</g>
</g>
<defs>
<clipPath id="clip0_2458_965">
<rect width="200" height="143.017" fill="white" transform="translate(0.5 28.4922)"/>
</clipPath>
</defs>
</svg>
