<svg width="132" height="34" viewBox="0 0 132 34" fill="none" xmlns="http://www.w3.org/2000/svg">
<path d="M6.17192 3.26855H18.2374C23.0333 3.26855 26.2704 5.97275 26.2704 9.71884C26.2704 13.0673 24.0275 15.9942 20.6552 17.4974C23.0731 18.6586 24.6718 21.0208 24.6718 23.725C24.6718 29.3083 19.2316 32.792 13.1392 32.792H0L6.17192 3.26855ZM12.6699 26.5644C15.39 26.5644 17.4659 24.8862 17.4659 22.6115C17.4659 21.323 16.4319 20.631 14.3561 20.631H9.89416L8.64546 26.5644H12.6779H12.6699ZM14.0061 14.9602C16.5512 14.9602 18.4998 13.3695 18.4998 11.2618C18.4601 10.1006 17.5057 9.49615 15.6048 9.49615H12.2166L11.0951 14.9522H14.0061V14.9602Z" fill="white"/>
<path d="M66.0857 23.3827C66.0857 16.0734 73.2995 10.0605 80.5929 10.0605C84.5219 10.0605 87.3693 11.866 89.0952 14.2282L83.7425 17.7914C83.0505 16.7176 81.4519 16.1132 80.1554 16.1132C76.4412 16.1132 72.9893 19.7241 72.9893 23.2077C72.9893 25.4824 74.7152 27.2481 77.0058 27.2481C78.7795 27.2481 80.7599 26.2618 82.0166 25.0529L86.2876 29.4353C83.5277 31.9724 80.2429 33.3007 76.4889 33.3007C70.5317 33.3007 66.0857 28.8706 66.0857 23.3747" fill="white"/>
<path d="M108.072 23.3827C108.072 16.0734 115.286 10.0605 122.579 10.0605C126.508 10.0605 129.356 11.866 131.082 14.2282L125.729 17.7914C125.037 16.7176 123.438 16.1132 122.142 16.1132C118.428 16.1132 114.976 19.7241 114.976 23.2077C114.976 25.4824 116.702 27.2481 118.992 27.2481C120.766 27.2481 122.746 26.2618 124.003 25.0529L128.274 29.4353C125.514 31.9724 122.23 33.3007 118.475 33.3007C112.518 33.3007 108.072 28.8706 108.072 23.3747" fill="white"/>
<path d="M36.8247 27.2481C35.7669 27.2481 34.8205 26.8981 34.1046 26.3016L43.7363 22.0147L50.7911 18.873C50.6241 17.3698 50.123 15.962 49.3356 14.7372C47.5381 11.9296 44.2851 10.0605 40.3561 10.0605C33.1025 10.0605 25.8887 16.0336 25.8887 23.3827C25.8887 23.9712 25.9443 24.5439 26.0398 25.1086C26.3023 26.5879 26.8908 27.9559 27.7498 29.1331C29.603 31.6623 32.6889 33.3166 36.3793 33.3166C40.0698 33.3166 43.4341 31.877 46.1224 29.5546L41.74 25.0609C40.3959 26.3732 38.6143 27.2481 36.8088 27.2481M39.9584 16.1132C41.2628 16.1132 42.3683 16.646 43.108 17.4971L32.7764 22.0942C33.4047 18.9685 36.5941 16.1132 39.9584 16.1132Z" fill="white"/>
<path d="M64.7335 1.97977L57.0106 5.41569L55.913 10.5696H52.9782L51.7295 16.3677H54.7121C52.7714 25.3949 52.5567 26.3414 52.5567 27.4548C52.5567 30.851 54.9745 33.3007 58.6411 33.3007C60.6295 33.3007 62.7849 32.5689 64.296 31.368L63.5166 26.2936C63.0394 26.7231 62.0054 27.2401 61.0112 27.2401C60.2318 27.2401 59.8023 26.8504 59.8023 25.9039C59.8023 25.3869 59.9296 24.87 61.7032 16.3597H66.3242L67.5331 10.5616H62.9121L64.7335 1.96387V1.97977Z" fill="white"/>
<path d="M93.2707 3.26855H100.206L94.0502 32.792H87.1147L93.2707 3.26855Z" fill="white"/>
<path d="M101.598 10.5698H108.565L103.905 32.7919H96.9373L101.598 10.5698ZM102.616 4.85123C102.616 2.52881 104.692 0.683594 106.847 0.683594C108.836 0.683594 110.299 2.27429 110.299 4.207C110.299 6.40216 108.311 8.33486 106.195 8.33486C104.079 8.33486 102.608 6.78393 102.608 4.85123" fill="white"/>
</svg>
