<svg width="444" height="150" viewBox="0 0 444 150" fill="none" xmlns="http://www.w3.org/2000/svg">
<path d="M443.478 0H0.521729V150H443.478V0Z" fill="#E10014"/>
<path d="M50.7438 32.4185H85.548C99.3825 32.4185 108.72 40.219 108.72 51.0251C108.72 60.684 102.25 69.1269 92.5226 73.4631C99.4972 76.8128 104.109 83.6268 104.109 91.4273C104.109 107.533 88.4159 117.582 70.8417 117.582H32.9402L50.7438 32.4185ZM69.4881 99.6179C77.3345 99.6179 83.3226 94.777 83.3226 88.2153C83.3226 84.4986 80.34 82.5026 74.3519 82.5026H61.481L57.879 99.6179H69.511H69.4881ZM73.3425 66.1444C80.6842 66.1444 86.3051 61.5558 86.3051 55.476C86.1904 52.1263 83.4373 50.3827 77.954 50.3827H68.1803L64.9454 66.1214H73.3425V66.1444Z" fill="white"/>
<path d="M223.572 90.4404C223.572 69.356 244.381 52.0112 265.419 52.0112C276.753 52.0112 284.967 57.2192 289.945 64.0333L274.505 74.3116C272.509 71.2144 267.897 69.4707 264.158 69.4707C253.443 69.4707 243.486 79.8867 243.486 89.9357C243.486 96.4973 248.465 101.591 255.072 101.591C260.188 101.591 265.901 98.7457 269.526 95.2584L281.847 107.9C273.885 115.219 264.41 119.05 253.581 119.05C236.397 119.05 223.572 106.271 223.572 90.4175" fill="white"/>
<path d="M344.687 90.4404C344.687 69.356 365.496 52.0112 386.534 52.0112C397.868 52.0112 406.082 57.2192 411.06 64.0333L395.62 74.3116C393.624 71.2144 389.012 69.4707 385.273 69.4707C374.558 69.4707 364.601 79.8867 364.601 89.9357C364.601 96.4973 369.58 101.591 376.187 101.591C381.304 101.591 387.016 98.7457 390.641 95.2584L402.962 107.9C395 115.219 385.525 119.05 374.696 119.05C357.512 119.05 344.687 106.271 344.687 90.4175" fill="white"/>
<path d="M139.165 101.591C136.113 101.591 133.383 100.581 131.318 98.8604L159.102 86.4943L179.452 77.4318C178.971 73.0957 177.525 69.0348 175.254 65.5016C170.069 57.4028 160.685 52.0112 149.351 52.0112C128.428 52.0112 107.618 69.2413 107.618 90.4404C107.618 92.1382 107.779 93.7901 108.054 95.419C108.811 99.6864 110.509 103.633 112.987 107.028C118.333 114.324 127.234 119.096 137.88 119.096C148.525 119.096 158.23 114.943 165.985 108.244L153.343 95.2813C149.466 99.0669 144.327 101.591 139.119 101.591M148.204 69.4707C151.967 69.4707 155.156 71.0079 157.29 73.4627L127.487 86.7237C129.299 77.7072 138.499 69.4707 148.204 69.4707Z" fill="white"/>
<path d="M219.671 28.7016L197.394 38.6129L194.228 53.4799H185.762L182.16 70.2052H190.763C185.165 96.2452 184.546 98.9754 184.546 102.187C184.546 111.984 191.52 119.05 202.097 119.05C207.833 119.05 214.05 116.94 218.409 113.475L216.161 98.8378C214.784 100.077 211.802 101.568 208.934 101.568C206.686 101.568 205.447 100.444 205.447 97.7136C205.447 96.2223 205.814 94.731 210.93 70.1822H224.26L227.747 53.4569H214.417L219.671 28.6558V28.7016Z" fill="white"/>
<path d="M301.99 32.4185H321.996L304.238 117.582H284.232L301.99 32.4185Z" fill="white"/>
<path d="M326.011 53.4793H346.109L332.665 117.582H312.567L326.011 53.4793ZM328.948 36.9835C328.948 30.2842 334.936 24.9614 341.153 24.9614C346.889 24.9614 351.111 29.55 351.111 35.1251C351.111 41.4573 345.375 47.0324 339.272 47.0324C333.169 47.0324 328.925 42.5586 328.925 36.9835" fill="white"/>
</svg>
